SplineFontDB: 2.0
FontName: Sawasdee
FullName: Sawasdee
FamilyName: Sawasdee
Weight: Regular
Copyright: Created by Pol Udomwittayanukul,,, with FontForge 2.0 (http://fontforge.sf.net)
Version: 001.000
ItalicAngle: 0
UnderlinePosition: -75
UnderlineWidth: 50
Ascent: 750
Descent: 250
XUID: [1021 180 1442959360 14105409]
UniqueID: 4256560
FSType: 8
OS2Version: 0
OS2_WeightWidthSlopeOnly: 0
OS2_UseTypoMetrics: 1
CreationTime: 1178430034
ModificationTime: 1181010186
PfmFamily: 17
TTFWeight: 400
TTFWidth: 5
LineGap: 90
VLineGap: 0
OS2TypoAscent: 0
OS2TypoAOffset: 1
OS2TypoDescent: 0
OS2TypoDOffset: 1
OS2TypoLinegap: 90
OS2WinAscent: 0
OS2WinAOffset: 1
OS2WinDescent: 0
OS2WinDOffset: 1
HheadAscent: 2
HheadAOffset: 1
HheadDescent: 40
HheadDOffset: 1
OS2Vendor: 'PfEd'
Lookup: 4 0 1 "'liga' Standard Ligatures in Latin lookup 0"  {"'liga' Standard Ligatures in Latin lookup 0"  } ['liga' ('latn' <'dflt' > ) ]
Lookup: 4 0 1 "'liga' Standard Ligatures lookup 1"  {"'liga' Standard Ligatures lookup 1"  } ['liga' ('latn' <'dflt' > 'thai' <'dflt' > ) ]
Lookup: 6 0 0 "'liga' Standard Ligatures lookup 2"  {"'liga' Standard Ligatures lookup 2 contextual 0"  "'liga' Standard Ligatures lookup 2 contextual 1"  "'liga' Standard Ligatures lookup 2 contextual 2"  "'liga' Standard Ligatures lookup 2 contextual 3"  "'liga' Standard Ligatures lookup 2 contextual 4"  "'liga' Standard Ligatures lookup 2 contextual 5"  "'liga' Standard Ligatures lookup 2 contextual 6"  "'liga' Standard Ligatures lookup 2 contextual 7"  "'liga' Standard Ligatures lookup 2 contextual 8"  "'liga' Standard Ligatures lookup 2 contextual 9"  "'liga' Standard Ligatures lookup 2 contextual 10"  "'liga' Standard Ligatures lookup 2 contextual 11"  } ['liga' ('latn' <'dflt' > 'thai' <'dflt' > ) ]

StartChar: exclam
Encoding: 33 33 1
Width: 168
Flags: W
HStem: -5 56<64.5 103.5> 480 20G<64 104>
VStem: 56 56<3.5 42.5> 64 40<377 500> 74 20<90 213>
Fore
94 90 m 1xc8
 74 90 l 1xc8
 64 500 l 1
 104 500 l 1xd0
 94 90 l 1xc8
56 23 m 0xe0
 56 38 69 51 84 51 c 0
 99 51 112 38 112 23 c 0
 112 8 99 -5 84 -5 c 0
 69 -5 56 8 56 23 c 0xe0
EndSplineSet
EndChar
StartChar: quotedbl
Encoding: 34 34 2
Width: 232
Flags: W
VStem: 56 120<520 520>
Fore
86 390 m 1
 66 390 l 1
 56 520 l 1
 96 520 l 1
 86 390 l 1
166 390 m 1
 146 390 l 1
 136 520 l 1
 176 520 l 1
 166 390 l 1
EndSplineSet
EndChar
StartChar: numbersign
Encoding: 35 35 3
Width: 358
Flags: W
HStem: 0 21G<35 66 175 205> 155 30<0 72 109 212 249 323> 315 30<34 110 148 249 288 358> 480 20G<154 185 294 325>
Fore
205 0 m 1
 175 0 l 1
 212 155 l 1
 103 155 l 1
 66 0 l 1
 35 0 l 1
 72 155 l 1
 0 155 l 1
 0 185 l 1
 79 185 l 1
 110 315 l 1
 34 315 l 1
 34 345 l 1
 117 345 l 1
 154 500 l 1
 185 500 l 1
 148 345 l 1
 257 345 l 1
 294 500 l 1
 325 500 l 1
 288 345 l 1
 358 345 l 1
 358 315 l 1
 280 315 l 1
 249 185 l 1
 323 185 l 1
 323 155 l 1
 242 155 l 1
 205 0 l 1
109 185 m 1
 218 185 l 1
 249 315 l 1
 140 315 l 1
 109 185 l 1
EndSplineSet
EndChar
StartChar: dollar
Encoding: 36 36 4
Width: 396
Flags: W
VStem: 41 30<34.0017 139> 80 30<330.4 440.9> 184 31<-50 -9 22 256 302 470 503 548> 324 31<53.9 225.5>
Fore
215 -50 m 1
 184 -50 l 1
 184 -9 l 1
 118 -4 54 42 41 139 c 1
 71 143 l 1
 82 63 131 27 184 22 c 1
 184 270 l 1
 130 294 80 322 80 387 c 0
 80 446 121 497 184 503 c 1
 184 548 l 1
 214 548 l 1
 214 503 l 1
 260 497 305 466 324 411 c 1
 296 401 l 1
 281 444 249 467 215 473 c 1
 215 291 l 1
 281 263 355 233 355 143 c 0
 355 60 290 3 215 -5 c 1
 215 -50 l 1
214 256 m 1
 214 22 l 1
 272 30 324 74 324 141 c 0
 324 206 271 232 214 256 c 1
184 302 m 1
 184 470 l 1
 139 464 110 428 110 385 c 0
 110 343 143 321 184 302 c 1
EndSplineSet
EndChar
StartChar: percent
Encoding: 37 37 5
Width: 526
Flags: W
HStem: -6 31<337.6 436.4> 159 31<337.6 436.4> 308 31<89.6 188.4> 473 31<89.6 188.4>
VStem: 41 30<357.9 454.1> 207 30<357.9 454.1> 289 30<43.9 140.1> 455 30<43.9 140.1>
Fore
387 190 m 0
 441 190 485 146 485 92 c 0
 485 38 441 -6 387 -6 c 0
 333 -6 289 38 289 92 c 0
 289 146 333 190 387 190 c 0
319 92 m 0
 319 55 349 25 387 25 c 0
 425 25 455 55 455 92 c 0
 455 129 425 159 387 159 c 0
 349 159 319 129 319 92 c 0
139 504 m 0
 193 504 237 460 237 406 c 0
 237 352 193 308 139 308 c 0
 85 308 41 352 41 406 c 0
 41 460 85 504 139 504 c 0
71 406 m 0
 71 369 101 339 139 339 c 0
 177 339 207 369 207 406 c 0
 207 443 177 473 139 473 c 0
 101 473 71 443 71 406 c 0
422 500 m 1
 459 500 l 1
 104 0 l 1
 67 0 l 1
 422 500 l 1
EndSplineSet
EndChar
StartChar: ampersand
Encoding: 38 38 6
Width: 454
Flags: W
HStem: -5 29<115.6 292.4> 477 30<187.1 289.8>
VStem: 41 30<68.5 264.8> 141 30<382.793 462.7> 318 30<399 473.1> 387 32<138.052 179>
Fore
387 179 m 1
 419 179 l 1
 419 141 407 106 387 77 c 1
 442 0 l 1
 405 0 l 1
 367 53 l 1
 333 17 284 -5 230 -5 c 0
 126 -5 41 78 41 180 c 0
 41 257 89 323 157 351 c 1
 146 372 141 393 141 412 c 0
 141 469 185 507 243 507 c 0
 297 507 348 472 348 399 c 1
 318 399 l 1
 318 456 279 477 243 477 c 0
 200 477 171 451 171 412 c 0
 171 394 177 373 193 349 c 2
 368 103 l 1
 381 126 387 151 387 179 c 1
350 77 m 1
 173 324 l 1
 113 302 71 245 71 179 c 0
 71 94 142 24 230 24 c 0
 278 24 321 45 350 77 c 1
EndSplineSet
EndChar
StartChar: quoteright
Encoding: 8217 8217 7
Width: 176
Flags: W
HStem: 485 20G<76.99 77>
VStem: 84.77 34.22<408.145 458>
Fore
77 505 m 1
 76.99 505 l 1
 96.14 505 118.99 490.35 118.99 458 c 0
 118.99 419.65 97.04 383.88 67.5 361 c 1
 41.89 361 l 1
 66.27 380.51 84.85 414.57 84.77 437.79 c 1
 82.39 437.24 79.84 437 77 437 c 0
 58.52 437 43 452.52 43 471 c 0
 43 489.48 58.52 505 77 505 c 1
EndSplineSet
EndChar
StartChar: parenleft
Encoding: 40 40 8
Width: 164
Flags: W
VStem: 40.9834 33.8906<92.6612 358.127>
Fore
118 527 m 1
 141 527 l 1
 97.1221 428.277 74.874 327.316 74.874 224.613 c 0
 74.874 121.335 97.3721 16.2959 143 -90 c 1
 120 -90 l 1
 67.7568 17.5283 40.9834 124.028 40.9834 228.584 c 0
 40.9834 330.169 66.2568 429.92 118 527 c 1
EndSplineSet
EndChar
StartChar: parenright
Encoding: 41 41 9
Width: 154
Flags: W
VStem: 89.126 33.89<92.6612 358.127>
Fore
23 527 m 1
 46 527 l 1
 97.7422 429.92 123.016 330.169 123.016 228.584 c 0
 123.016 124.028 96.2422 17.5283 44 -90 c 1
 21 -90 l 1
 66.627 16.2959 89.126 121.335 89.126 224.613 c 0
 89.126 327.316 66.877 428.277 23 527 c 1
EndSplineSet
EndChar
StartChar: asterisk
Encoding: 42 42 10
Width: 306
Flags: W
HStem: 410 182<137 198>
VStem: 137 32<522 592>
Fore
137 592 m 1
 169 592 l 1
 169 522 l 1
 243 540 l 1
 250 511 l 1
 178 494 l 1
 223 427 l 1
 198 410 l 1
 153 477 l 1
 108 410 l 1
 83 427 l 1
 128 494 l 1
 56 511 l 1
 63 540 l 1
 137 522 l 1
 137 592 l 1
EndSplineSet
EndChar
StartChar: plus
Encoding: 43 43 11
Width: 348
Flags: W
HStem: 235 30<41 159 189 307>
VStem: 159 30<117 235 265 383>
Fore
189 117 m 1
 159 117 l 1
 159 235 l 1
 41 235 l 1
 41 265 l 1
 159 265 l 1
 159 383 l 1
 189 383 l 1
 189 265 l 1
 307 265 l 1
 307 235 l 1
 189 235 l 1
 189 117 l 1
EndSplineSet
EndChar
StartChar: comma
Encoding: 44 44 12
Width: 176
Flags: W
HStem: -5 56<64.5 99.6673>
VStem: 99 21<-32.5 10>
Fore
56 23 m 4
 56 38 69 51 84 51 c 4
 100 51 120 39 120 10 c 4
 120 -46 71 -81 71 -81 c 5
 56 -81 l 5
 76 -65 99 -25 99 0 c 5
 94 -4 90 -5 84 -5 c 4
 69 -5 56 8 56 23 c 4
EndSplineSet
EndChar
StartChar: hyphen
Encoding: 45 45 13
Width: 288
Flags: W
HStem: 185 30<41 247>
Fore
247 215 m 5
 247 185 l 5
 41 185 l 5
 41 215 l 5
 247 215 l 5
EndSplineSet
EndChar
StartChar: period
Encoding: 46 46 14
Width: 168
Flags: W
HStem: -5 56<64.5 103.5>
VStem: 56 56<3.5 42.5>
Fore
56 23 m 4
 56 38 69 51 84 51 c 4
 99 51 112 38 112 23 c 4
 112 8 99 -5 84 -5 c 4
 69 -5 56 8 56 23 c 4
EndSplineSet
EndChar
StartChar: slash
Encoding: 47 47 15
Width: 392
Flags: W
HStem: 0 21G<0 37> 480 20G<355 392>
VStem: 0 392<0 500>
Fore
355 500 m 1
 392 500 l 1
 37 0 l 1
 0 0 l 1
 355 500 l 1
EndSplineSet
EndChar
StartChar: zero
Encoding: 48 48 16
Width: 400
Flags: W
HStem: -5 30<110.3 289.7> 475 30<110.3 289.7>
VStem: 34 30<79.7 420.3> 336 30<79.7 420.3>
Fore
366 250 m 0
 366 116 298 -5 200 -5 c 0
 102 -5 34 116 34 250 c 0
 34 384 102 505 200 505 c 0
 298 505 366 384 366 250 c 0
64 250 m 0
 64 119 131 25 200 25 c 0
 269 25 336 119 336 250 c 0
 336 381 269 475 200 475 c 0
 131 475 64 381 64 250 c 0
EndSplineSet
EndChar
StartChar: one
Encoding: 49 49 17
Width: 400
Flags: W
HStem: 0 21G<185 215>
VStem: 185 30<0 446>
Fore
185 0 m 1
 184 446 l 1
 130 414 l 1
 115 440 l 1
 215 500 l 1
 215 0 l 1
 185 0 l 1
EndSplineSet
EndChar
StartChar: two
Encoding: 50 50 18
Width: 400
Flags: W
HStem: 0 30<64 360> 346 21G<55 85> 475 30<119.1 281.6>
VStem: 55 30<346 440.9> 316 29<170.5 440.9>
Fore
360 0 m 1
 34 0 l 1
 34 14 l 2
 34 185 316 211 316 346 c 0
 316 419 263 475 201 475 c 0
 138 475 85 419 85 346 c 1
 55 346 l 1
 55 433 119 505 200 505 c 0
 281 505 345 433 345 346 c 0
 345 194 82 166 64 30 c 1
 360 30 l 1
 360 0 l 1
EndSplineSet
EndChar
StartChar: three
Encoding: 51 51 19
Width: 400
Flags: W
HStem: -5 30<112.6 289.4> 273 30<201 264.7> 475 30<136 266>
VStem: 46 31<60.6 149> 81 30<386 449.7> 291 30<330.1 449.7> 325 29<60.6 229.6>
Fore
46 149 m 1
 77 149 l 1
 77 81 133 25 201 25 c 0
 269 25 325 81 325 149 c 0
 325 217 269 273 201 273 c 1
 201 303 l 1
 250 303 291 336 291 386 c 0
 291 435 251 475 201 475 c 0
 151 475 111 435 111 386 c 1
 81 386 l 1
 81 452 135 505 201 505 c 0
 267 505 321 452 321 386 c 0
 321 343 298 308 264 289 c 1
 317 265 354 211 354 149 c 0
 354 64 285 -5 200 -5 c 0
 115 -5 46 64 46 149 c 1
EndSplineSet
EndChar
StartChar: four
Encoding: 52 52 20
Width: 400
Flags: W
HStem: 0 21G<283 313> 93 30<60 283 313 358>
VStem: 283 30<0 93 123 416>
Fore
283 123 m 1
 283 416 l 1
 60 123 l 1
 283 123 l 1
313 0 m 1
 283 0 l 1
 283 93 l 1
 0 93 l 1
 313 506 l 1
 313 123 l 1
 368 123 l 1
 358 93 l 1
 313 93 l 1
 313 0 l 1
EndSplineSet
EndChar
StartChar: five
Encoding: 53 53 21
Width: 400
Flags: W
HStem: -6 30<111.9 296.5> 328 28<139.2 296.5> 470 30<94 307>
VStem: 337 30<65.5 286.5>
Fore
307 470 m 1
 94 470 l 1
 80 303 l 1
 111 336 153 356 199 356 c 0
 293 356 367 274 367 175 c 0
 367 76 293 -6 199 -6 c 0
 114 -6 45 62 33 148 c 1
 63 148 l 1
 75 77 132 24 199 24 c 0
 274 24 337 91 337 176 c 0
 337 261 274 328 199 328 c 0
 148 328 102 296 78 250 c 1
 45 250 l 1
 66 500 l 1
 317 500 l 1
 307 470 l 1
EndSplineSet
EndChar
StartChar: six
Encoding: 54 54 22
Width: 400
Flags: W
HStem: 0 29<101.5 296.5> 333 29<160.325 296.5> 484 20G<208 244>
VStem: 31 30<70.5 291.5> 337 30<70.5 291.5>
Fore
337 181 m 0
 337 266 274 333 199 333 c 0
 124 333 61 266 61 181 c 0
 61 96 124 29 199 29 c 0
 274 29 337 96 337 181 c 0
208 504 m 1
 244 504 l 1
 141 351 l 1
 159 358 179 362 199 362 c 0
 293 362 367 280 367 181 c 0
 367 82 293 0 199 0 c 0
 105 0 31 82 31 181 c 0
 31 280 98 340 208 504 c 1
EndSplineSet
EndChar
StartChar: seven
Encoding: 55 55 23
Width: 400
Flags: W
HStem: 0 21G<133 166> 470 30<55 344>
VStem: 45 345<470 500>
Fore
55 500 m 1
 390 500 l 1
 166 0 l 1
 133 0 l 1
 344 470 l 1
 45 470 l 1
 55 500 l 1
EndSplineSet
EndChar
StartChar: eight
Encoding: 56 56 24
Width: 400
Flags: W
HStem: -5 30<111.6 288.4> 273 30<136.3 263.7> 475 30<136.3 263.7>
VStem: 46 30<60.6 230.9> 81 30<334.4 450.1> 289 30<334.4 450.1> 324 30<60.6 230.9>
Fore
200 505 m 0
 265 505 319 453 319 389 c 0
 319 347 296 310 262 290 c 1
 316 266 354 212 354 149 c 0
 354 64 285 -5 200 -5 c 0
 115 -5 46 64 46 149 c 0
 46 212 84 266 138 290 c 1
 104 310 81 347 81 389 c 0
 81 453 135 505 200 505 c 0
76 149 m 0
 76 81 132 25 200 25 c 0
 268 25 324 81 324 149 c 0
 324 217 268 273 200 273 c 0
 132 273 76 217 76 149 c 0
200 303 m 0
 249 303 289 342 289 389 c 0
 289 436 249 475 200 475 c 0
 151 475 111 436 111 389 c 0
 111 342 151 303 200 303 c 0
EndSplineSet
EndChar
StartChar: nine
Encoding: 57 57 25
Width: 400
Flags: W
HStem: 0 21G<154 190> 142 29<101.5 237.675> 475 29<101.5 296.5>
VStem: 31 30<212.5 433.5> 337 30<212.5 433.5>
Fore
61 323 m 0
 61 238 124 171 199 171 c 0
 274 171 337 238 337 323 c 0
 337 408 274 475 199 475 c 0
 124 475 61 408 61 323 c 0
190 0 m 1
 154 0 l 1
 257 153 l 1
 239 146 219 142 199 142 c 0
 105 142 31 224 31 323 c 0
 31 422 105 504 199 504 c 0
 293 504 367 422 367 323 c 0
 367 224 300 164 190 0 c 1
EndSplineSet
EndChar
StartChar: colon
Encoding: 58 58 26
Width: 168
Flags: W
HStem: -5 56<64.5 103.5> 290 56<64.5 103.5>
VStem: 56 56<3.5 42.5 298.5 337.5>
Fore
56 23 m 0
 56 38 69 51 84 51 c 0
 99 51 112 38 112 23 c 0
 112 8 99 -5 84 -5 c 0
 69 -5 56 8 56 23 c 0
56 318 m 0
 56 333 69 346 84 346 c 0
 99 346 112 333 112 318 c 0
 112 303 99 290 84 290 c 0
 69 290 56 303 56 318 c 0
EndSplineSet
EndChar
StartChar: semicolon
Encoding: 59 59 27
Width: 168
Flags: W
HStem: -5 56<64.5 99.6673> 290 56<64.5 103.5>
VStem: 56 56<298.5 337.5> 99 21<-32.5 10>
Fore
56 23 m 0xe0
 56 38 69 51 84 51 c 0
 100 51 120 39 120 10 c 0xd0
 120 -46 71 -81 71 -81 c 1
 56 -81 l 1xe0
 76 -65 99 -25 99 0 c 1xd0
 94 -4 90 -5 84 -5 c 0
 69 -5 56 8 56 23 c 0xe0
56 318 m 0xe0
 56 333 69 346 84 346 c 0
 99 346 112 333 112 318 c 0
 112 303 99 290 84 290 c 0
 69 290 56 303 56 318 c 0xe0
EndSplineSet
EndChar
StartChar: less
Encoding: 60 60 28
Width: 397
Flags: W
HStem: 0 21G<319 377> 320 20G<319 377>
VStem: 41 336<0 170>
Fore
377 0 m 1
 319 0 l 1
 41 170 l 1
 319 340 l 1
 377 340 l 1
 99 170 l 1
 377 0 l 1
EndSplineSet
EndChar
StartChar: equal
Encoding: 61 61 29
Width: 348
Flags: W
HStem: 145 30<41 307> 225 30<41 307>
Fore
307 255 m 1
 307 225 l 1
 41 225 l 1
 41 255 l 1
 307 255 l 1
307 175 m 1
 307 145 l 1
 41 145 l 1
 41 175 l 1
 307 175 l 1
EndSplineSet
EndChar
StartChar: greater
Encoding: 62 62 30
Width: 404
Flags: W
HStem: 0 21G<41 99> 320 20G<41 99>
VStem: 41 336<0 170>
Fore
99 0 m 1
 41 0 l 1
 319 170 l 1
 41 340 l 1
 99 340 l 1
 377 170 l 1
 99 0 l 1
EndSplineSet
EndChar
StartChar: question
Encoding: 63 63 31
Width: 348
Flags: W
HStem: -5 56<144.5 183.5> 475 30<97.8 251.2>
VStem: 41 30<379 438.8> 136 56<3.5 42.5> 150 30<103 256> 277 30<290.6 453.1>
Fore
136 23 m 0xf4
 136 38 149 51 164 51 c 0
 179 51 192 38 192 23 c 0
 192 8 179 -5 164 -5 c 0
 149 -5 136 8 136 23 c 0xf4
180 103 m 1xec
 150 103 l 1
 150 153 l 2
 150 270 277 311 277 379 c 0
 277 436 235 475 181 475 c 0
 117 475 71 425 71 379 c 1
 41 379 l 1
 41 445 103 505 181 505 c 0
 253 505 307 452 307 379 c 0
 307 292 180 256 180 153 c 2
 180 103 l 1xec
EndSplineSet
EndChar
StartChar: at
Encoding: 64 64 32
Width: 681
Flags: W
HStem: -166 29<149.9 402.1> -7 31<205.5 357.9 496 574> 314 30<253.8 427.3> 473 31<149.9 529.5>
VStem: 41 31<-53 389> 156 32<48.9 246.5> 452 16<88.6 216> 610 30<25.2 391.8>
Fore
485 340 m 1
 517 340 l 1
 477 173 l 2
 475 166 468 144 468 120 c 0
 468 59 505 24 535 24 c 0
 565 24 610 60 610 176 c 0
 610 342 486 473 341 473 c 0
 194 473 72 338 72 168 c 0
 72 -2 194 -137 341 -137 c 0
 388 -137 432 -123 471 -99 c 1
 487 -124 l 1
 444 -151 394 -166 341 -166 c 0
 174 -166 41 -15 41 169 c 0
 41 353 174 504 341 504 c 0
 505 504 640 356 640 176 c 0
 640 36 578 -7 535 -7 c 0
 489 -7 450 35 440 92 c 1
 401 35 339 -6 276 -6 c 0
 204 -6 156 48 156 122 c 0
 156 235 261 344 361 344 c 0
 412 344 451 317 469 275 c 1
 485 340 l 1
363 314 m 0
 279 314 188 218 188 123 c 0
 188 66 222 25 277 25 c 0
 359 25 452 118 452 216 c 0
 452 273 418 314 363 314 c 0
EndSplineSet
EndChar
StartChar: A
Encoding: 65 65 33
Width: 444
Flags: W
HStem: 0 21G<12 44 400 432> 155 30<122 324>
VStem: 12 420<0 0>
Fore
122 185 m 1
 324 185 l 1
 223 428 l 1
 122 185 l 1
336 155 m 1
 108 155 l 1
 44 0 l 1
 12 0 l 1
 222 506 l 1
 432 0 l 1
 400 0 l 1
 336 155 l 1
EndSplineSet
EndChar
StartChar: B
Encoding: 66 66 34
Width: 434
Flags: W
HStem: 0 30<86 232> 263 30<86 298.8> 470 30<86 298.8>
VStem: 56 30<30 263 293 470> 325 31<325.4 428> 363 30<65.1 226.3>
Fore
86 30 m 1
 232 30 l 2
 306 30 363 84 363 147 c 0
 363 210 306 263 232 263 c 2
 86 263 l 1
 86 30 l 1
325 380 m 2
 325 381 l 2
 325 428 282 470 226 470 c 2
 86 470 l 1
 86 293 l 1
 226 293 l 2
 282 293 325 333 325 380 c 2
56 500 m 1
 228 500 l 2
 298 500 356 446 356 380 c 0
 356 338 332 302 296 281 c 1
 353 259 393 208 393 147 c 0
 393 65 320 0 232 0 c 2
 56 0 l 1
 56 500 l 1
EndSplineSet
EndChar
StartChar: C
Encoding: 67 67 35
Width: 540
Flags: W
HStem: -4 29<133.8 391.2> 475 31<133.8 391.2>
VStem: 41 30<88.8 411.2>
Fore
475 116 m 1
 499 100 l 1
 453 37 379 -4 295 -4 c 0
 155 -4 41 110 41 251 c 0
 41 392 155 506 295 506 c 0
 379 506 453 465 499 402 c 1
 475 384 l 1
 434 439 369 475 295 475 c 0
 171 475 71 374 71 250 c 0
 71 126 171 25 295 25 c 0
 369 25 434 61 475 116 c 1
EndSplineSet
EndChar
StartChar: D
Encoding: 68 68 36
Width: 452
Flags: W
HStem: 0 30<86 157> 470 30<86 318.2>
VStem: 56 30<30 470> 381 30<88.8 411.2>
Fore
86 30 m 1
 157 30 l 2
 281 30 381 126 381 250 c 0
 381 374 281 470 157 470 c 2
 86 470 l 1
 86 30 l 1
56 0 m 1
 56 500 l 1
 157 500 l 2
 297 500 411 391 411 250 c 0
 411 109 297 0 157 0 c 2
 56 0 l 1
EndSplineSet
EndChar
StartChar: E
Encoding: 69 69 37
Width: 367
Flags: W
HStem: 0 30<86 346> 275 30<86 326> 470 30<86 347>
VStem: 56 30<30 275 305 470>
Fore
326 305 m 1
 326 275 l 1
 86 275 l 1
 86 30 l 1
 346 30 l 1
 346 0 l 1
 56 0 l 1
 56 500 l 1
 347 500 l 1
 347 470 l 1
 86 470 l 1
 86 305 l 1
 326 305 l 1
EndSplineSet
EndChar
StartChar: F
Encoding: 70 70 38
Width: 367
Flags: W
HStem: 0 21G<56 86> 275 30<86 326> 470 30<86 347>
VStem: 56 30<0 275 305 470>
Fore
326 305 m 1
 326 275 l 1
 86 275 l 1
 86 0 l 1
 56 0 l 1
 56 500 l 1
 347 500 l 1
 347 470 l 1
 86 470 l 1
 86 305 l 1
 326 305 l 1
EndSplineSet
EndChar
StartChar: G
Encoding: 71 71 39
Width: 590
Flags: W
HStem: -5 30<133.8 449.7> 235 30<295 518> 475 30<133.8 391.2>
VStem: 41 30<88.8 411.2>
CounterMasks: 1 00
Fore
499 402 m 1
 475 384 l 1
 434 439 369 475 295 475 c 0
 171 475 71 374 71 250 c 0
 71 126 171 25 295 25 c 0
 414 25 511 118 518 235 c 1
 295 235 l 1
 295 265 l 1
 549 265 l 1
 549 250 l 2
 549 109 435 -5 295 -5 c 0
 155 -5 41 109 41 250 c 0
 41 391 155 505 295 505 c 0
 378 505 453 464 499 402 c 1
EndSplineSet
EndChar
StartChar: H
Encoding: 72 72 40
Width: 468
Flags: W
HStem: 0 21G<56 86 382 412> 275 30<86 382> 480 20G<56 86 382 412>
VStem: 56 30<0 275 305 500> 382 30<0 275 305 500>
Fore
382 500 m 1
 412 500 l 1
 412 0 l 1
 382 0 l 1
 382 275 l 1
 86 275 l 1
 86 0 l 1
 56 0 l 1
 56 500 l 1
 86 500 l 1
 86 305 l 1
 382 305 l 1
 382 500 l 1
EndSplineSet
EndChar
StartChar: I
Encoding: 73 73 41
Width: 142
Flags: W
HStem: 0 21G<56 86> 480 20G<56 86>
VStem: 56 30<0 500>
Fore
86 0 m 1
 56 0 l 1
 56 500 l 1
 86 500 l 1
 86 0 l 1
EndSplineSet
EndChar
StartChar: J
Encoding: 74 74 42
Width: 343
Flags: W
HStem: -5 30<98.7 231.3> 480 20G<259 287>
VStem: 41 30<53.3 130> 259 28<71 500>
Fore
259 500 m 1
 287 500 l 1
 287 130 l 2
 287 56 233 -5 164 -5 c 0
 95 -5 41 56 41 130 c 1
 71 130 l 1
 71 71 114 25 165 25 c 0
 216 25 259 71 259 130 c 2
 259 500 l 1
EndSplineSet
EndChar
StartChar: K
Encoding: 75 75 43
Width: 386
Flags: W
HStem: 0 21G<56 86 343 382> 480 20G<56 86 319 364>
VStem: 56 30<0 247 288 500>
Fore
56 500 m 1
 86 500 l 1
 86 288 l 1
 319 500 l 1
 364 500 l 1
 161 316 l 1
 382 0 l 1
 343 0 l 1
 140 296 l 1
 86 247 l 1
 86 0 l 1
 56 0 l 1
 56 500 l 1
EndSplineSet
EndChar
StartChar: L
Encoding: 76 76 44
Width: 367
Flags: W
HStem: 0 30<86 347> 480 20G<56 86>
VStem: 56 30<30 500>
Fore
347 0 m 1
 56 0 l 1
 56 500 l 1
 86 500 l 1
 86 30 l 1
 347 30 l 1
 347 0 l 1
EndSplineSet
EndChar
StartChar: M
Encoding: 77 77 45
Width: 581
Flags: W
HStem: 0 21G<12 41 538 569>
Fore
41 0 m 1
 12 0 l 1
 108 506 l 1
 290 72 l 1
 476 506 l 1
 569 0 l 1
 538 0 l 1
 464 402 l 1
 289 -6 l 1
 118 402 l 1
 41 0 l 1
EndSplineSet
EndChar
StartChar: N
Encoding: 78 78 46
Width: 563
Flags: W
HStem: 0 21G<56 86> 480 20G<477 507>
VStem: 56 30<0 433> 477 30<67 500>
Fore
56 0 m 1
 56 507 l 1
 477 67 l 1
 477 500 l 1
 507 500 l 1
 507 -7 l 1
 86 433 l 1
 86 0 l 1
 56 0 l 1
EndSplineSet
EndChar
StartChar: O
Encoding: 79 79 47
Width: 590
Flags: W
HStem: -5 30<133.8 456.2> 475 30<133.8 456.2>
VStem: 41 30<88.8 411.2> 519 30<88.8 411.2>
Fore
295 505 m 0
 435 505 549 391 549 250 c 0
 549 109 435 -5 295 -5 c 0
 155 -5 41 109 41 250 c 0
 41 391 155 505 295 505 c 0
71 250 m 0
 71 126 171 25 295 25 c 0
 419 25 519 126 519 250 c 0
 519 374 419 475 295 475 c 0
 171 475 71 374 71 250 c 0
EndSplineSet
EndChar
StartChar: P
Encoding: 80 80 48
Width: 404
Flags: W
HStem: 0 21G<56 86> 235 31<86 303.9> 471 30<86 304.2>
VStem: 56 30<0 235 266 471> 332 31<293.9 442.1>
Fore
56 0 m 1
 56 501 l 1
 234 501 l 2
 306 501 363 441 363 368 c 0
 363 295 306 235 235 235 c 2
 86 235 l 1
 86 0 l 1
 56 0 l 1
86 266 m 1
 235 266 l 2
 288 266 332 311 332 368 c 0
 332 425 288 471 234 471 c 2
 86 471 l 1
 86 266 l 1
EndSplineSet
EndChar
StartChar: Q
Encoding: 81 81 49
Width: 590
Flags: W
HStem: -5 30<133.8 371.7> 475 30<133.8 456.2>
VStem: 41 30<88.8 411.2> 519 30<179.8 411.2>
Fore
376 170 m 1
 415 170 l 1
 468 107 l 1
 500 146 519 196 519 250 c 0
 519 374 419 475 295 475 c 0
 171 475 71 374 71 250 c 0
 71 126 171 25 295 25 c 0
 354 25 407 48 447 85 c 1
 376 170 l 1
557 0 m 1
 517 0 l 1
 466 61 l 1
 421 20 361 -5 295 -5 c 0
 155 -5 41 109 41 250 c 0
 41 391 155 505 295 505 c 0
 435 505 549 391 549 250 c 0
 549 186 526 128 487 83 c 1
 557 0 l 1
EndSplineSet
EndChar
StartChar: R
Encoding: 82 82 50
Width: 404
Flags: W
HStem: 0 21G<56 86 356 390> 235 30<86 227> 470 30<86 304.2>
VStem: 56 30<0 235 265 470> 332 31<292.9 441.1>
Fore
56 0 m 1
 56 500 l 1
 234 500 l 2
 306 500 363 440 363 367 c 0
 363 303 319 249 260 237 c 1
 390 0 l 1
 356 0 l 1
 227 235 l 1
 86 235 l 1
 86 0 l 1
 56 0 l 1
86 265 m 1
 235 265 l 2
 288 265 332 310 332 367 c 0
 332 424 288 470 234 470 c 2
 86 470 l 1
 86 265 l 1
EndSplineSet
EndChar
StartChar: S
Encoding: 83 83 51
Width: 395
Flags: W
HStem: -7 31<121.9 280.5> 475 31<129.4 249>
VStem: 41 30<28.0406 141> 80 30<238.2 450.1> 324 30<47.8 326>
Fore
323 412 m 1
 295 402 l 1
 278 452 237 475 197 475 c 0
 145 475 110 436 110 389 c 0
 110 273 354 307 354 143 c 0
 354 53 278 -7 196 -7 c 0
 126 -7 55 38 41 141 c 1
 71 145 l 1
 83 59 139 24 196 24 c 0
 261 24 324 70 324 144 c 0
 324 284 80 246 80 390 c 0
 80 452 127 506 197 506 c 0
 248 506 302 474 323 412 c 1
EndSplineSet
EndChar
StartChar: T
Encoding: 84 84 52
Width: 330
Flags: W
HStem: 0 21G<150 180> 470 30<20 150 180 310>
VStem: 150 30<0 470>
Fore
310 500 m 1
 310 470 l 1
 180 470 l 1
 180 0 l 1
 150 0 l 1
 150 470 l 1
 20 470 l 1
 20 500 l 1
 310 500 l 1
EndSplineSet
EndChar
StartChar: U
Encoding: 85 85 53
Width: 468
Flags: W
HStem: -5 30<131 339> 480 20G<56 86 382 412>
VStem: 56 30<97 500> 382 30<69.1 500>
Fore
56 500 m 1
 86 500 l 1
 86 190 l 2
 86 97 155 25 235 25 c 0
 315 25 382 97 382 190 c 2
 382 500 l 1
 412 500 l 1
 412 190 l 2
 412 83 333 -5 234 -5 c 0
 135 -5 56 83 56 190 c 2
 56 500 l 1
EndSplineSet
EndChar
StartChar: V
Encoding: 86 86 54
Width: 432
Flags: W
HStem: 480 20G<12 44 387 420>
VStem: 12 408<500 500>
Fore
387 500 m 1
 420 500 l 1
 219 -6 l 1
 12 500 l 1
 44 500 l 1
 218 75 l 1
 387 500 l 1
EndSplineSet
EndChar
StartChar: W
Encoding: 87 87 55
Width: 659
Flags: W
HStem: 480 20G<8 38 619 651>
Fore
8 500 m 1
 38 500 l 1
 185 86 l 1
 329 506 l 1
 473 86 l 1
 619 500 l 1
 651 500 l 1
 473 -6 l 1
 330 412 l 1
 187 -6 l 1
 8 500 l 1
EndSplineSet
EndChar
StartChar: X
Encoding: 88 88 56
Width: 324
Flags: W
HStem: 0 21G<8 42 282 316> 480 20G<28 62 262 296>
VStem: 8 308<0 0>
Fore
28 500 m 1
 62 500 l 1
 162 303 l 1
 262 500 l 1
 296 500 l 1
 179 270 l 1
 316 0 l 1
 282 0 l 1
 162 236 l 1
 42 0 l 1
 8 0 l 1
 145 270 l 1
 28 500 l 1
EndSplineSet
EndChar
StartChar: Y
Encoding: 89 89 57
Width: 412
Flags: W
HStem: 0 21G<191 221> 480 20G<12 47 365 400>
VStem: 191 30<0 216>
Fore
12 500 m 1
 47 500 l 1
 206 248 l 1
 365 500 l 1
 400 500 l 1
 221 216 l 1
 221 0 l 1
 191 0 l 1
 191 216 l 1
 12 500 l 1
EndSplineSet
EndChar
StartChar: Z
Encoding: 90 90 58
Width: 398
Flags: W
HStem: 0 30<68 376> 470 30<45 323>
VStem: 12 374<0 30>
Fore
45 500 m 1
 379 500 l 1
 68 30 l 1
 386 30 l 1
 376 0 l 1
 12 0 l 1
 323 470 l 1
 35 470 l 1
 45 500 l 1
EndSplineSet
EndChar
StartChar: bracketleft
Encoding: 91 91 59
Width: 146
Flags: W
HStem: -105 30<86 146> 500 30<86 146>
VStem: 56 90<-105 -75 500 530> 56 30<-75 500>
Fore
86 500 m 1xd0
 86 -75 l 1xd0
 146 -75 l 1
 146 -105 l 1
 56 -105 l 1
 56 530 l 1
 146 530 l 1
 146 500 l 1xe0
 86 500 l 1xd0
EndSplineSet
EndChar
StartChar: backslash
Encoding: 92 92 60
Width: 392
Flags: W
HStem: 0 21G<355 392> 480 20G<0 37>
VStem: 0 392<0 500>
Fore
0 500 m 1
 37 500 l 1
 392 0 l 1
 355 0 l 1
 0 500 l 1
EndSplineSet
EndChar
StartChar: bracketright
Encoding: 93 93 61
Width: 146
Flags: W
HStem: -105 30<0 60> 500 30<0 60>
VStem: 0 90<-105 -75 500 530> 60 30<-75 500>
Fore
60 500 m 1xd0
 0 500 l 1
 0 530 l 1
 90 530 l 1
 90 -105 l 1
 0 -105 l 1
 0 -75 l 1xe0
 60 -75 l 1
 60 500 l 1xd0
EndSplineSet
EndChar
StartChar: asciicircum
Encoding: 94 94 62
Width: 402
Flags: W
HStem: 250 250<185 361>
VStem: 41 320<250 250>
Fore
185 500 m 1
 219 500 l 1
 361 250 l 1
 326 250 l 1
 202 469 l 1
 76 250 l 1
 41 250 l 1
 185 500 l 1
EndSplineSet
EndChar
StartChar: underscore
Encoding: 95 95 63
Width: 326
Flags: W
HStem: -30 30<0 326>
Fore
326 0 m 1
 326 -30 l 1
 0 -30 l 1
 0 0 l 1
 326 0 l 1
EndSplineSet
EndChar
StartChar: quoteleft
Encoding: 8216 8216 64
Width: 176
Flags: W
HStem: 487 20G<93.4 119.01>
VStem: 41.91 34.22<410 459.855>
Fore
83.9 363 m 1
 83.91 363 l 1
 64.76 363 41.91 377.65 41.91 410 c 0
 41.91 448.35 63.86 484.12 93.4 507 c 1
 119.01 507 l 1
 94.63 487.49 76.05 453.43 76.13 430.21 c 1
 78.51 430.76 81.06 431 83.9 431 c 0
 102.38 431 117.9 415.48 117.9 397 c 0
 117.9 378.52 102.38 363 83.9 363 c 1
EndSplineSet
EndChar
StartChar: a
Encoding: 97 97 65
Width: 356
Flags: W
HStem: -6 30<70.8 209.9> 173 22.003<175.1 270> 316 30<125.7 232.3>
VStem: 34 30<51.6 192> 270 30<5.56201 71 109 173 195 292>
Fore
308 0 m 1
 276 0 l 1
 272 13 270 28 270 45 c 2
 270 71 l 1
 241 30 194 -6 141 -6 c 0
 65 -6 34 46 34 88 c 0
 34 193.142 176.36 195.003 260.933 195.003 c 0
 270 195 l 1
 268 272 217 316 166 316 c 0
 135 316 103 300 80 267 c 1
 56 283 l 1
 85 326 126 346 166 346 c 0
 233 346 298 292 300 195 c 2
 300 45 l 2
 300 25 303 10 308 0 c 1
141 24 m 0
 196 24 248 69 270 109 c 1
 270 173 l 1
 197 172 64 168 64 88 c 0
 64 60 87 24 141 24 c 0
EndSplineSet
EndChar
StartChar: b
Encoding: 98 98 66
Width: 408
Flags: W
HStem: -5 30<144.4 300.4> 315 30<144.4 300.4> 480 20G<56 86>
VStem: 56 30<5.56201 500> 338 29<64.7 275.3>
Fore
80 0 m 1
 48 0 l 1
 53 10 56 25 56 45 c 2
 56 500 l 1
 86 500 l 1
 86 253 l 1
 103 301 160 345 212 345 c 0
 299 345 367 265 367 170 c 0
 367 75 299 -5 212 -5 c 0
 160 -5 103 42 86 87 c 1
 86 45 l 2
 86 28 84 13 80 0 c 1
86 170 m 0
 86 89 144 25 212 25 c 0
 280 25 338 89 338 170 c 0
 338 251 280 315 212 315 c 0
 144 315 86 251 86 170 c 0
EndSplineSet
EndChar
StartChar: c
Encoding: 99 99 67
Width: 369
Flags: W
HStem: -4 31<107.6 253.2> 315 31<107.6 253.2>
VStem: 41 29<66.7 277.3>
Fore
302 94 m 1
 328 79 l 1
 301 30 252 -4 196 -4 c 0
 109 -4 41 76 41 171 c 0
 41 266 109 346 196 346 c 0
 252 346 301 312 328 263 c 1
 302 248 l 1
 279 289 240 315 196 315 c 0
 128 315 70 253 70 172 c 0
 70 91 128 27 196 27 c 0
 240 27 279 53 302 94 c 1
EndSplineSet
EndChar
StartChar: d
Encoding: 100 100 68
Width: 408
Flags: W
HStem: -5 30<107.6 263.6> 315 30<107.6 263.6> 480 20G<322 352>
VStem: 41 29<64.7 275.3> 322 30<5.56201 500>
Fore
360 0 m 1
 328 0 l 1
 324 13 322 28 322 45 c 2
 322 87 l 1
 305 42 248 -5 196 -5 c 0
 109 -5 41 75 41 170 c 0
 41 265 109 345 196 345 c 0
 248 345 305 301 322 253 c 1
 322 500 l 1
 352 500 l 1
 352 45 l 2
 352 25 355 10 360 0 c 1
322 170 m 0
 322 251 264 315 196 315 c 0
 128 315 70 251 70 170 c 0
 70 89 128 25 196 25 c 0
 264 25 322 89 322 170 c 0
EndSplineSet
EndChar
StartChar: e
Encoding: 101 101 69
Width: 395
Flags: W
HStem: -5 31<107.6 253.2> 170 29<74 321> 315 30<120.3 275>
VStem: 41 29<64.7 170>
Fore
74 199 m 1
 321 199 l 1
 309 266 257 315 197 315 c 0
 138 315 86 266 74 199 c 1
354 170 m 1
 70 170 l 1
 70 89 128 26 196 26 c 0
 240 26 289 52 312 93 c 1
 338 78 l 1
 311 29 252 -5 196 -5 c 0
 109 -5 41 75 41 170 c 0
 41 265 110 345 197 345 c 0
 280 345 346 273 353 185 c 2
 354 170 l 1
EndSplineSet
EndChar
StartChar: f
Encoding: 102 102 70
Width: 179
Flags: W
HStem: 0 21G<55 85> 310 30<26 55 85 169> 485 20<112.7 179>
VStem: 55 30<0 310 340 429>
Fore
55 0 m 1
 55 310 l 1
 26 310 l 1
 26 340 l 1
 55 340 l 1
 55 370 l 2
 55 444 110 505 179 505 c 1
 179 485 l 1
 128 485 85 429 85 370 c 2
 85 340 l 1
 179 340 l 1
 169 310 l 1
 85 310 l 1
 85 0 l 1
 55 0 l 1
EndSplineSet
EndChar
StartChar: g
Encoding: 103 103 71
Width: 408
Flags: W
HStem: -175 30<155.7 284.4> -5 30<105.6 263.6> 315 30<105.6 263.6>
VStem: 41 27<64.7 275.3> 322 30<-95 334.438>
Fore
328 340 m 1
 360 340 l 1
 355 330 352 315 352 295 c 2
 352 0 l 2
 352 -95 282 -175 195 -175 c 0
 155 -175 119 -158 92 -131 c 1
 114 -110 l 1
 136 -132 165 -145 196 -145 c 0
 264 -145 322 -81 322 0 c 2
 322 87 l 1
 305 39 248 -5 196 -5 c 0
 109 -5 41 75 41 170 c 0
 41 265 109 345 196 345 c 0
 248 345 305 298 322 253 c 1
 322 295 l 2
 322 312 324 327 328 340 c 1
320 170 m 0
 320 251 262 315 194 315 c 0
 126 315 68 251 68 170 c 0
 68 89 126 25 194 25 c 0
 262 25 320 89 320 170 c 0
EndSplineSet
EndChar
StartChar: h
Encoding: 104 104 72
Width: 360
Flags: W
HStem: 0 21G<56 86 274 304> 315 30<146.4 276.7> 480 20G<56 86>
VStem: 56 30<0 221 243 500> 274 30<0 267.2>
Fore
56 0 m 1
 56 500 l 1
 86 500 l 1
 86 243 l 1
 109 296 159 345 201 345 c 0
 272 345 304 282 304 210 c 2
 304 0 l 1
 274 0 l 1
 274 210 l 2
 274 254 259 315 200 315 c 0
 145 315 86 221 86 170 c 2
 86 0 l 1
 56 0 l 1
EndSplineSet
EndChar
StartChar: i
Encoding: 105 105 73
Width: 142
Flags: W
HStem: 0 21G<56 86> 320 20G<56 86> 393 54<51.5 90.5>
VStem: 44 54<400.5 439.5> 56 30<0 340>
Fore
44 420 m 0xf0
 44 435 56 447 71 447 c 0
 86 447 98 435 98 420 c 0
 98 405 86 393 71 393 c 0
 56 393 44 405 44 420 c 0xf0
86 0 m 1xe8
 56 0 l 1
 56 340 l 1
 86 340 l 1
 86 0 l 1xe8
EndSplineSet
EndChar
StartChar: j
Encoding: 106 106 74
Width: 140
Flags: W
HStem: -104 25<-10 36.8> 320 20G<56 86> 393 54<50.5 89.5>
VStem: 43 54<400.5 439.5> 56 30<-42 340>
Fore
56 340 m 1xe8
 86 340 l 1
 86 1 l 2
 86 -56 44 -104 -10 -104 c 1
 -10 -79 l 1
 26 -79 56 -42 56 1 c 2
 56 340 l 1xe8
43 420 m 0xf0
 43 435 55 447 70 447 c 0
 85 447 97 435 97 420 c 0
 97 405 85 393 70 393 c 0
 55 393 43 405 43 420 c 0xf0
EndSplineSet
EndChar
StartChar: k
Encoding: 107 107 75
Width: 319
Flags: W
HStem: 0 21G<56 86 280 319> 320 20G<237 282> 480 20G<56 86>
VStem: 56 30<0 163 203 500>
Fore
86 0 m 1
 56 0 l 1
 56 500 l 1
 86 500 l 1
 86 203 l 1
 237 340 l 1
 282 340 l 1
 139 210 l 1
 319 0 l 1
 280 0 l 1
 117 190 l 1
 86 163 l 1
 86 0 l 1
EndSplineSet
EndChar
StartChar: l
Encoding: 108 108 76
Width: 142
Flags: W
HStem: 0 21G<56 86> 480 20G<56 86>
VStem: 56 30<0 500>
Fore
86 0 m 1
 56 0 l 1
 56 500 l 1
 86 500 l 1
 86 0 l 1
EndSplineSet
EndChar
StartChar: m
Encoding: 109 109 77
Width: 535
Flags: W
HStem: 0 21G<56 86 252 282 449 479> 315 30<141.9 254.6 335.6 451.6>
VStem: 56 30<0 244.1 246 334.438> 252 30<0 237.9> 449 30<0 266.2>
Fore
48 340 m 1
 80 340 l 1
 84 327 86 312 86 295 c 2
 86 246 l 1
 107 297 153 345 190 345 c 0
 245 345 276 301 284 246 c 1
 305 298 347 344 385 344 c 0
 451 344 479 279 479 209 c 2
 479 0 l 1
 449 0 l 1
 449 209 l 2
 449 253 436 314 384 314 c 0
 337 314 282 222 282 169 c 2
 282 0 l 1
 252 0 l 1
 252 210 l 2
 252 254 239 315 187 315 c 0
 143 315 86 227 86 170 c 2
 86 0 l 1
 56 0 l 1
 56 295 l 2
 56 315 53 330 48 340 c 1
EndSplineSet
EndChar
StartChar: n
Encoding: 110 110 78
Width: 360
Flags: W
HStem: 0 21G<56 86 274 304> 315 30<146.4 276.7>
VStem: 56 30<0 236.3 244 334.438> 274 30<0 267.2>
Fore
48 340 m 1
 80 340 l 1
 84 327 86 312 86 295 c 2
 86 244 l 1
 110 298 159 345 201 345 c 0
 272 345 304 282 304 210 c 2
 304 0 l 1
 274 0 l 1
 274 210 l 2
 274 254 259 315 200 315 c 0
 145 315 86 221 86 170 c 2
 86 0 l 1
 56 0 l 1
 56 295 l 2
 56 315 53 330 48 340 c 1
EndSplineSet
EndChar
StartChar: o
Encoding: 111 111 79
Width: 430
Flags: W
HStem: -5 30<112 320> 315 30<112 320>
VStem: 41 30<66 274> 361 28<66 274>
Fore
215 345 m 0
 311 345 389 267 389 170 c 0
 389 73 311 -5 215 -5 c 0
 119 -5 41 73 41 170 c 0
 41 267 119 345 215 345 c 0
71 170 m 0
 71 90 136 25 216 25 c 0
 296 25 361 90 361 170 c 0
 361 250 296 315 216 315 c 0
 136 315 71 250 71 170 c 0
EndSplineSet
EndChar
StartChar: p
Encoding: 112 112 80
Width: 408
Flags: W
HStem: -150 21G<56 86> -5 30<144.4 300.4> 315 30<144.4 300.4>
VStem: 56 30<-150 334.438> 338 29<64.7 275.3>
Fore
48 340 m 1
 80 340 l 1
 84 327 86 312 86 295 c 2
 86 253 l 1
 103 298 160 345 212 345 c 0
 299 345 367 265 367 170 c 0
 367 75 299 -5 212 -5 c 0
 160 -5 103 39 86 87 c 1
 86 -150 l 1
 56 -150 l 1
 56 295 l 2
 56 315 53 330 48 340 c 1
86 170 m 0
 86 89 144 25 212 25 c 0
 280 25 338 89 338 170 c 0
 338 251 280 315 212 315 c 0
 144 315 86 251 86 170 c 0
EndSplineSet
EndChar
StartChar: q
Encoding: 113 113 81
Width: 408
Flags: W
HStem: -150 21G<322 352> -5 30<107.6 263.6> 315 30<107.6 263.6>
VStem: 41 29<64.7 275.3> 322 30<-150 334.438>
Fore
328 340 m 1
 360 340 l 1
 355 330 352 315 352 295 c 2
 352 -150 l 1
 322 -150 l 1
 322 87 l 1
 305 39 248 -5 196 -5 c 0
 109 -5 41 75 41 170 c 0
 41 265 109 345 196 345 c 0
 248 345 305 298 322 253 c 1
 322 295 l 2
 322 312 324 327 328 340 c 1
322 170 m 0
 322 251 264 315 196 315 c 0
 128 315 70 251 70 170 c 0
 70 89 128 25 196 25 c 0
 264 25 322 89 322 170 c 0
EndSplineSet
EndChar
StartChar: r
Encoding: 114 114 82
Width: 218
Flags: W
HStem: 0 21G<56 86> 320 20G<48 80>
VStem: 56 30<0 272.5 293.091 334.438>
Fore
48 340 m 1
 80 340 l 1
 84 327 86 312 86 295 c 2
 86 253 l 1
 97 288 142 331 179 345 c 1
 212 321 l 1
 152 321 86 250 86 175 c 2
 86 0 l 1
 56 0 l 1
 56 295 l 2
 56 315 53 330 48 340 c 1
EndSplineSet
EndChar
StartChar: s
Encoding: 115 115 83
Width: 300
Flags: W
HStem: -5.8457 29.8301<102.818 200.911> 316.331 29.379<114.299 181.025>
VStem: 41 30<26.0962 97.0521> 66 31<170.4 307.589> 229 30<39.1289 214.7>
Fore
238 280 m 1xd8
 210 270 l 1
 199.241 301.808 173.822 316.331 149.812 316.331 c 0
 122.494 316.331 97 297.53 97 264 c 0xd8
 97 192 259 212 259 99 c 0
 259 33.4385 203.65 -5.8457 148.523 -5.8457 c 0
 99.3857 -5.8457 50.4258 25.3662 41 97 c 1
 71 101 l 1xe8
 78.0596 46.877 113.472 23.9844 148.984 23.9844 c 0
 188.928 23.9844 229 52.9453 229 99 c 0
 229 188 66 164 66 264 c 0
 66 316.268 106.907 345.71 149.666 345.71 c 0
 185.441 345.71 222.512 325.099 238 280 c 1xd8
EndSplineSet
EndChar
StartChar: t
Encoding: 116 116 84
Width: 186
Flags: W
HStem: 0 21G<56 86> 310 30<26 56 86 170>
VStem: 56 30<0 310 340 420>
Fore
86 0 m 1
 56 0 l 1
 56 310 l 1
 26 310 l 1
 26 340 l 1
 56 340 l 1
 56 420 l 1
 86 420 l 1
 86 340 l 1
 180 340 l 1
 170 310 l 1
 86 310 l 1
 86 0 l 1
EndSplineSet
EndChar
StartChar: u
Encoding: 117 117 85
Width: 358
Flags: W
HStem: -5 30<111.7 244.3> 320 20G<56 86 272 302>
VStem: 56 30<71 340> 272 30<53.3 340>
Fore
56 340 m 1
 86 340 l 1
 86 130 l 2
 86 71 127 25 178 25 c 0
 229 25 272 71 272 130 c 2
 272 340 l 1
 302 340 l 1
 302 130 l 2
 302 56 248 -5 179 -5 c 0
 110 -5 56 56 56 130 c 2
 56 340 l 1
EndSplineSet
EndChar
StartChar: v
Encoding: 118 118 86
Width: 318
Flags: W
HStem: -10 350<12 160>
VStem: 12 294<340 340>
Fore
12 340 m 1
 44 340 l 1
 159 68 l 1
 273 340 l 1
 306 340 l 1
 160 -10 l 1
 12 340 l 1
EndSplineSet
EndChar
StartChar: w
Encoding: 119 119 87
Width: 537
Flags: W
HStem: -10 360<270 384>
Fore
12 340 m 1
 45 340 l 1
 156 70 l 1
 270 350 l 1
 384 70 l 1
 493 340 l 1
 525 340 l 1
 384 -10 l 1
 269 270 l 1
 155 -10 l 1
 12 340 l 1
EndSplineSet
EndChar
StartChar: x
Encoding: 120 120 88
Width: 304
Flags: W
HStem: 0 21G<12 47 257 292> 320 20G<26 59 243 278>
VStem: 12 280<0 0>
Fore
26 340 m 1
 59 340 l 1
 151 206 l 1
 243 340 l 1
 278 340 l 1
 169 180 l 1
 292 0 l 1
 257 0 l 1
 152 154 l 1
 47 0 l 1
 12 0 l 1
 135 180 l 1
 26 340 l 1
EndSplineSet
EndChar
StartChar: y
Encoding: 121 121 89
Width: 318
Flags: W
HStem: 320 20G<12 43 274 306>
VStem: 12 294<340 340>
Fore
12 340 m 1
 43 340 l 1
 160 40 l 1
 274 340 l 1
 306 340 l 1
 111 -175 l 1
 79 -175 l 1
 145 -1 l 1
 12 340 l 1
EndSplineSet
EndChar
StartChar: z
Encoding: 122 122 90
Width: 298
Flags: W
HStem: 0 30<69 275> 310 30<53 230>
VStem: 12 274<0 340>
Fore
53 340 m 1
 286 340 l 1
 69 30 l 1
 285 30 l 1
 275 0 l 1
 12 0 l 1
 230 310 l 1
 43 310 l 1
 53 340 l 1
EndSplineSet
EndChar
StartChar: braceleft
Encoding: 123 123 91
Width: 192
Flags: W
HStem: -104 20<127.8 172> 505 20<127.8 172>
VStem: 86 30<-49 177.3 259 488>
Fore
116 410 m 2
 116 311 l 2
 116 258 103 233 77 211 c 1
 99 193 116 169 116 111 c 2
 116 11 l 2
 116 -49 137 -84 172 -84 c 1
 172 -104 l 1
 138 -104 86 -87 86 11 c 2
 86 111 l 2
 86 162 72 178 42 198 c 1
 42 223 l 1
 72 243 86 259 86 310 c 2
 86 410 l 2
 86 508 138 525 172 525 c 1
 172 505 l 1
 137 505 116 470 116 410 c 2
EndSplineSet
EndChar
StartChar: bar
Encoding: 124 124 92
Width: 142
Flags: W
VStem: 56 30<-50 550>
Fore
86 -50 m 1
 56 -50 l 1
 56 550 l 1
 86 550 l 1
 86 -50 l 1
EndSplineSet
EndChar
StartChar: braceright
Encoding: 125 125 93
Width: 193
Flags: W
HStem: -105 20<20 64.2> 505 19<20 64.2>
VStem: 76 31<-50 176.3 258 488>
Fore
20 505 m 1
 20 524 l 1
 54 524 107 507 107 409 c 2
 107 309 l 2
 107 258 121 242 151 222 c 1
 151 197 l 1
 121 177 107 161 107 110 c 2
 107 10 l 2
 107 -88 54 -105 20 -105 c 1
 20 -85 l 1
 55 -85 77 -50 77 10 c 2
 77 110 l 2
 77 168 94 192 116 210 c 1
 90 232 76 257 76 310 c 2
 76 410 l 2
 76 470 55 505 20 505 c 1
EndSplineSet
EndChar
StartChar: asciitilde
Encoding: 126 126 94
Width: 355
Flags: W
HStem: 127 31<195.5 276.87> 172 31<80.0737 163.8>
VStem: 41 20<130 176.8> 294 20<151.9 200>
Fore
294 200 m 1
 314 200 l 1
 314 147 287 127 254 127 c 0
 203 127 150 172 104 172 c 0
 87 172 61 166 61 130 c 1
 41 130 l 1
 41 185 72 203 104 203 c 0
 161 203 209 158 254 158 c 0
 269 158 294 163 294 200 c 1
EndSplineSet
EndChar
StartChar: exclamdown
Encoding: 161 161 95
Width: 192
Flags: W
HStem: 289 56<76.5 115.5>
VStem: 68 56<297.5 336.5> 76 40<-160 -37> 86 20<127 250>
Fore
86 250 m 1x90
 106 250 l 1x90
 116 -160 l 1
 76 -160 l 1xa0
 86 250 l 1x90
68 317 m 0xc0
 68 332 81 345 96 345 c 0
 111 345 124 332 124 317 c 0
 124 302 111 289 96 289 c 0
 81 289 68 302 68 317 c 0xc0
EndSplineSet
EndChar
StartChar: cent
Encoding: 162 162 96
Width: 371
Flags: W
VStem: 41 30<72.2 269.8> 182 30<-80 -4 27 314 345 420>
Fore
182 420 m 1
 212 420 l 1
 212 345 l 1
 262 340 305 308 330 263 c 1
 304 248 l 1
 284 284 251 309 213 314 c 1
 213 26 l 1
 251 31 284 56 304 92 c 1
 330 77 l 1
 305 33 262 1 212 -4 c 1
 212 -80 l 1
 182 -80 l 1
 182 -4 l 1
 102 4 41 80 41 170 c 0
 41 260 102 336 182 344 c 1
 182 420 l 1
182 27 m 1
 182 315 l 1
 121 307 71 247 71 171 c 0
 71 95 121 35 182 27 c 1
EndSplineSet
EndChar
StartChar: sterling
Encoding: 163 163 97
Width: 347
Flags: W
HStem: 0 30<78 313> 235 30<38 115 147 242> 477 29<157.7 263>
VStem: 101 29<343.845 464.1> 119 29<120.5 240.953> 299 20<399 468.496>
Fore
242 235 m 1xf4
 147 235 l 1
 148 225 148 215 148 205 c 0
 148 140 133 79 78 30 c 1
 323 30 l 1
 313 0 l 1
 32 0 l 1
 24 28 l 1
 101 72 119 134 119 203 c 0xec
 119 213 119 223 118 233 c 1
 28 233 l 1
 38 263 l 1
 115 263 l 1
 110 312 101 359 101 402 c 0
 101 467 156 506 211 506 c 0
 260 506 309 474 319 403 c 1
 299 399 l 1
 292 452 251 477 211 477 c 0
 170 477 130 450 130 403 c 0
 130 364 139 315 144 265 c 1
 252 265 l 1
 242 235 l 1xf4
EndSplineSet
EndChar
StartChar: fraction
Encoding: 8260 8260 98
Width: 395
Flags: W
HStem: 0 21G<1 38> 480 20G<356 393>
VStem: 1 392<0 500>
Fore
356 500 m 1
 393 500 l 1
 38 0 l 1
 1 0 l 1
 356 500 l 1
EndSplineSet
EndChar
StartChar: yen
Encoding: 165 165 99
Width: 412
Flags: W
HStem: 0 21G<191 221> 134 32<70 191 221 339> 216 32<71 171 241 342> 480 20G<12 47 365 400>
VStem: 191 30<0 134 166 216>
Fore
339 166 m 1
 339 134 l 1
 221 134 l 1
 221 0 l 1
 191 0 l 1
 191 134 l 1
 70 134 l 1
 70 166 l 1
 191 166 l 1
 191 216 l 1
 71 216 l 1
 71 248 l 1
 171 248 l 1
 12 500 l 1
 47 500 l 1
 206 248 l 1
 365 500 l 1
 400 500 l 1
 241 248 l 1
 342 248 l 1
 342 216 l 1
 221 216 l 1
 221 166 l 1
 339 166 l 1
EndSplineSet
EndChar
StartChar: florin
Encoding: 402 402 100
Width: 272
Flags: W
HStem: -55 20<-25 45.2> 263 30<74 127 164 286> 485 20<224.8 295>
VStem: -25 322<-55 293>
Fore
297 293 m 1
 286 263 l 1
 158 263 l 1
 115 47 l 2
 102 -26 42 -55 -25 -55 c 1
 -25 -35 l 1
 29 -35 75 -4 85 53 c 2
 127 263 l 1
 64 263 l 1
 74 293 l 1
 133 293 l 1
 155 403 l 2
 169 476 228 505 295 505 c 1
 295 485 l 1
 241 485 195 454 185 397 c 2
 164 293 l 1
 297 293 l 1
EndSplineSet
EndChar
StartChar: section
Encoding: 167 167 101
Width: 301
Flags: W
HStem: -45 30<102.2 202.3> 475 30<98.7 198.8>
VStem: 41 30<29.92 58 172.9 298 354.2 460.8> 229 31<-0.8 106.8 170.8 286.5 403 431.08>
Fore
41 58 m 1
 71 58 l 1
 78 4 113 -15 149 -15 c 0
 190 -15 229 13 229 59 c 0
 229 154 41 124 41 246 c 0
 41 286 61 311 80 326 c 1
 57 342 41 365 41 401 c 0
 41 464 94 505 151 505 c 0
 200 505 250 475 260 403 c 1
 229 403 l 1
 222 454 188 475 152 475 c 0
 111 475 72 447 72 401 c 0
 72 306 260 337 260 215 c 0
 260 181 244 153 221 135 c 1
 244 119 260 96 260 60 c 0
 260 -3 207 -45 150 -45 c 0
 101 -45 51 -14 41 58 c 1
230 215 m 0
 230 270 162 284 108 309 c 1
 92 300 71 281 71 247 c 0
 71 190 138 178 192 152 c 1
 208 161 230 180 230 215 c 0
EndSplineSet
EndChar
StartChar: currency
Encoding: 164 164 102
Width: 437
Flags: W
HStem: 111 31<174.5 264.2> 370 30<173.8 263.5>
VStem: 75 30<210.8 300.5> 333 31<211.8 298.9>
Fore
387 399 m 1
 334 345 l 1
 353 320 364 289 364 256 c 0
 364 222 352 190 332 165 c 1
 389 107 l 1
 368 86 l 1
 311 143 l 1
 286 123 254 111 220 111 c 0
 185 111 153 123 128 143 c 1
 69 85 l 1
 48 106 l 1
 107 164 l 1
 87 189 75 221 75 255 c 0
 75 290 87 322 107 347 c 1
 55 399 l 1
 76 420 l 1
 128 368 l 1
 153 388 184 400 218 400 c 0
 253 400 285 387 310 366 c 1
 366 420 l 1
 387 399 l 1
105 256 m 0
 105 193 156 142 219 142 c 0
 282 142 333 193 333 256 c 0
 333 319 282 370 219 370 c 0
 156 370 105 319 105 256 c 0
EndSplineSet
EndChar
StartChar: quotesingle
Encoding: 39 39 103
Width: 152
Flags: W
VStem: 56 40<481 520 520 520>
Fore
86 390 m 1
 66 390 l 1
 56 520 l 1
 96 520 l 1
 86 390 l 1
EndSplineSet
EndChar
StartChar: quotedblleft
Encoding: 8220 8220 104
Width: 248
Flags: W
HStem: 363 68<73.9442 107.924 163.941 197.934> 487 20G<93.4 119.01 183.4 209.01>
VStem: 41.91 34.22<410 459.855> 131.91 34.22<410 459.855>
Fore
83.9 363 m 1
 83.91 363 l 1
 64.76 363 41.91 377.65 41.91 410 c 0
 41.91 448.35 63.86 484.12 93.4 507 c 1
 119.01 507 l 1
 94.63 487.49 76.05 453.43 76.13 430.21 c 1
 78.51 430.76 81.06 431 83.9 431 c 0
 102.38 431 117.9 415.48 117.9 397 c 0
 117.9 378.52 102.38 363 83.9 363 c 1
173.91 363 m 1
 154.76 363 131.91 377.65 131.91 410 c 0
 131.91 448.35 153.86 484.12 183.4 507 c 1
 209.01 507 l 1
 184.63 487.49 166.05 453.43 166.13 430.21 c 1
 168.51 430.76 171.06 431 173.91 431 c 0
 192.39 431 207.91 415.48 207.91 397 c 0
 207.91 378.52 192.39 363 173.91 363 c 1
EndSplineSet
EndChar
StartChar: guillemotleft
Encoding: 171 171 105
Width: 294
Flags: W
HStem: 50 240<237 274>
VStem: 41 233<170 290>
Fore
237 290 m 1
 274 290 l 1
 188 170 l 1
 274 50 l 1
 237 50 l 1
 151 170 l 1
 237 290 l 1
127 290 m 1
 164 290 l 1
 78 170 l 1
 164 50 l 1
 127 50 l 1
 41 170 l 1
 127 290 l 1
EndSplineSet
EndChar
StartChar: guilsinglleft
Encoding: 8249 8249 106
Width: 159
Flags: W
HStem: 50 240<98 135>
VStem: 12 123<170 290>
Fore
98 290 m 1
 135 290 l 1
 49 170 l 1
 135 50 l 1
 98 50 l 1
 12 170 l 1
 98 290 l 1
EndSplineSet
EndChar
StartChar: guilsinglright
Encoding: 8250 8250 107
Width: 159
Flags: W
HStem: 50 240<24 61>
VStem: 24 123<170 290>
Fore
24 290 m 1
 61 290 l 1
 147 170 l 1
 61 50 l 1
 24 50 l 1
 110 170 l 1
 24 290 l 1
EndSplineSet
EndChar
StartChar: endash
Encoding: 8211 8211 108
Width: 178
Flags: W
HStem: 149 42<0 178>
Fore
178 191 m 1
 178 149 l 1
 0 149 l 1
 0 191 l 1
 178 191 l 1
EndSplineSet
EndChar
StartChar: dagger
Encoding: 8224 8224 109
Width: 392
Flags: W
HStem: 315 30<48 130.8 261.2 344> 320 20<103.2 186 206 288.8> 480 20G<181 211>
VStem: 181 30<-96 153.6 404 500> 186 20<70.4 320 340 436>
Fore
211 -96 m 1x70
 181 -96 l 1x70
 186 320 l 1x68
 48 315 l 1
 48 345 l 1xa8
 186 340 l 1x68
 181 500 l 1
 211 500 l 1x70
 206 340 l 1x68
 344 345 l 1
 344 315 l 1xa8
 206 320 l 1x68
 211 -96 l 1x70
EndSplineSet
EndChar
StartChar: daggerdbl
Encoding: 8225 8225 110
Width: 392
Flags: W
HStem: 88 30<48 130.8 261.2 344> 93 20<103.2 186 206 288.8> 287 30<48 130.8 261.2 344> 292 20<103.2 186 206 288.8> 480 20G<181 211>
VStem: 181 30<-96 17.4 387.2 500> 186 20<-20.4 93 113 292 312 424.8>
Fore
211 -96 m 1x4c
 181 -96 l 1x4c
 186 93 l 1x4a
 48 88 l 1
 48 118 l 1x8a
 186 113 l 1
 186 292 l 1x5a
 48 287 l 1
 48 317 l 1x2a
 186 312 l 1x1a
 181 500 l 1
 211 500 l 1x1c
 206 312 l 1x1a
 344 317 l 1
 344 287 l 1x2a
 206 292 l 1
 206 113 l 1x5a
 344 118 l 1
 344 88 l 1x8a
 206 93 l 1x4a
 211 -96 l 1x4c
EndSplineSet
EndChar
StartChar: periodcentered
Encoding: 183 183 111
Width: 168
Flags: W
HStem: 222 56<64.5 103.5>
VStem: 56 56<230.5 269.5>
Fore
56 250 m 0
 56 265 69 278 84 278 c 0
 99 278 112 265 112 250 c 0
 112 235 99 222 84 222 c 0
 69 222 56 235 56 250 c 0
EndSplineSet
EndChar
StartChar: paragraph
Encoding: 182 182 112
Width: 423
Flags: W
HStem: 470 30<287 337>
VStem: 41 246<210.6 439.4> 257 30<-83 150> 337 30<-83 470>
Fore
287 -83 m 1xb0
 257 -83 l 1
 257 150 l 1xb0
 250 150 l 2
 112 150 41 237 41 325 c 0xd0
 41 413 112 500 250 500 c 2
 367 500 l 1
 367 -83 l 1
 337 -83 l 1
 337 470 l 1
 287 470 l 1
 287 -83 l 1xb0
EndSplineSet
EndChar
StartChar: bullet
Encoding: 8226 8226 113
Width: 332
Flags: W
HStem: 80 240<81.5 250.5>
VStem: 48 236<114.2 285.8>
Fore
48 200 m 0
 48 266 101 320 166 320 c 0
 231 320 284 266 284 200 c 0
 284 134 231 80 166 80 c 0
 101 80 48 134 48 200 c 0
EndSplineSet
EndChar
StartChar: quotesinglbase
Encoding: 8218 8218 114
Width: 176
Flags: W
VStem: 104.77 34.23<-39.845 10.01>
Fore
97 57 m 1
 97 57.01 l 1
 116.15 57.01 139 42.36 139 10.01 c 0
 139 -28.34 117.05 -64.12 87.5 -87 c 1
 61.89 -87 l 1
 86.27 -67.49 104.85 -33.43 104.77 -10.21 c 1
 102.39 -10.76 99.84 -11 97 -11 c 0
 78.52 -11 63 4.52 63 23 c 0
 63 41.48 78.52 57 97 57 c 1
EndSplineSet
EndChar
StartChar: quotedblbase
Encoding: 8222 8222 115
Width: 248
Flags: W
HStem: -5 68<52.976 86.9558 142.976 167 167 176.969>
VStem: 84.77 34.22<-33.835 16.0201> 174.78 34.22<-33.845 16.01>
Fore
167 63 m 1
 167 63.01 l 1
 186.15 63.01 209 48.36 209 16.01 c 0
 209 -22.34 187.05 -58.12 157.51 -81 c 1
 131.9 -81 l 1
 156.28 -61.49 174.86 -27.43 174.78 -4.20999 c 1
 172.4 -4.75999 169.85 -5 167 -5 c 0
 148.52 -5 133 10.52 133 29 c 0
 133 47.48 148.52 63 167 63 c 1
77 63.01 m 1
 76.99 63.0201 l 1
 96.14 63.0201 118.99 48.3701 118.99 16.0201 c 0
 118.99 -22.33 97.04 -58.11 67.5 -80.99 c 1
 41.89 -80.99 l 1
 66.27 -61.48 84.85 -27.42 84.77 -4.19997 c 1
 82.39 -4.74997 79.84 -4.98997 77 -4.98997 c 0
 58.52 -4.98997 43 10.53 43 29.01 c 0
 43 47.49 58.52 63.01 77 63.01 c 1
EndSplineSet
EndChar
StartChar: quotedblright
Encoding: 8221 8221 116
Width: 248
Flags: W
HStem: 437 68<52.976 86.9558 142.976 176.969>
VStem: 84.77 34.22<408.145 458> 174.78 34.22<408.145 458>
Fore
167 505 m 1
 186.15 505 209 490.35 209 458 c 0
 209 419.65 187.05 383.88 157.51 361 c 1
 131.9 361 l 1
 156.28 380.51 174.86 414.57 174.78 437.79 c 1
 172.4 437.24 169.85 437 167 437 c 0
 148.52 437 133 452.52 133 471 c 0
 133 489.48 148.52 505 167 505 c 1
77 505 m 1
 76.99 505 l 1
 96.14 505 118.99 490.35 118.99 458 c 0
 118.99 419.65 97.04 383.88 67.5 361 c 1
 41.89 361 l 1
 66.27 380.51 84.85 414.57 84.77 437.79 c 1
 82.39 437.24 79.84 437 77 437 c 0
 58.52 437 43 452.52 43 471 c 0
 43 489.48 58.52 505 77 505 c 1
EndSplineSet
EndChar
StartChar: guillemotright
Encoding: 187 187 117
Width: 294
Flags: W
HStem: 50 240<41 78>
VStem: 41 233<170 290>
Fore
41 290 m 1
 78 290 l 1
 164 170 l 1
 78 50 l 1
 41 50 l 1
 127 170 l 1
 41 290 l 1
151 290 m 1
 188 290 l 1
 274 170 l 1
 188 50 l 1
 151 50 l 1
 237 170 l 1
 151 290 l 1
EndSplineSet
EndChar
StartChar: ellipsis
Encoding: 8230 8230 118
Width: 592
Flags: W
HStem: -5 56<76.5 115.5 277.5 316.5 476.5 515.5>
VStem: 68 56<3.5 42.5> 269 56<3.5 42.5> 468 56<3.5 42.5>
Fore
68 23 m 0
 68 38 81 51 96 51 c 0
 111 51 124 38 124 23 c 0
 124 8 111 -5 96 -5 c 0
 81 -5 68 8 68 23 c 0
468 23 m 0
 468 38 481 51 496 51 c 0
 511 51 524 38 524 23 c 0
 524 8 511 -5 496 -5 c 0
 481 -5 468 8 468 23 c 0
269 23 m 0
 269 38 282 51 297 51 c 0
 312 51 325 38 325 23 c 0
 325 8 312 -5 297 -5 c 0
 282 -5 269 8 269 23 c 0
EndSplineSet
EndChar
StartChar: perthousand
Encoding: 8240 8240 119
Width: 742
Flags: W
HStem: -6 31<320.6 419.4 570.6 669.4> 159 31<320.6 419.4 570.6 669.4> 307 31<72.6 171.4> 472 31<72.6 171.4>
VStem: 24 30<356.9 453.1> 190 30<356.9 453.1> 272 30<43.9 140.1> 438 30<43.9 140.1> 522 30<42.9 139.1> 688 30<42.9 139.1>
Fore
370 190 m 0
 424 190 468 146 468 92 c 0
 468 38 424 -6 370 -6 c 0
 316 -6 272 38 272 92 c 0
 272 146 316 190 370 190 c 0
302 92 m 0
 302 55 332 25 370 25 c 0
 408 25 438 55 438 92 c 0
 438 129 408 159 370 159 c 0
 332 159 302 129 302 92 c 0
620 189 m 0
 674 189 718 145 718 91 c 0
 718 37 674 -7 620 -7 c 0
 566 -7 522 37 522 91 c 0
 522 145 566 189 620 189 c 0
552 91 m 0
 552 54 582 24 620 24 c 0
 658 24 688 54 688 91 c 0
 688 128 658 158 620 158 c 0
 582 158 552 128 552 91 c 0
122 503 m 0
 176 503 220 459 220 405 c 0
 220 351 176 307 122 307 c 0
 68 307 24 351 24 405 c 0
 24 459 68 503 122 503 c 0
54 405 m 0
 54 368 84 338 122 338 c 0
 160 338 190 368 190 405 c 0
 190 442 160 472 122 472 c 0
 84 472 54 442 54 405 c 0
405 497 m 1
 442 497 l 1
 87 -3 l 1
 50 -3 l 1
 405 497 l 1
EndSplineSet
EndChar
StartChar: questiondown
Encoding: 191 191 120
Width: 348
Flags: W
HStem: -165 30<96.8 250.2> 289 56<164.5 203.5>
VStem: 41 30<-113.1 49.4> 156 56<297.5 336.5> 168 30<84 237> 277 30<-98.8 -39>
Fore
212 317 m 0xf4
 212 302 199 289 184 289 c 0
 169 289 156 302 156 317 c 0
 156 332 169 345 184 345 c 0
 199 345 212 332 212 317 c 0xf4
168 237 m 1xec
 198 237 l 1
 198 187 l 2
 198 70 71 29 71 -39 c 0
 71 -96 113 -135 167 -135 c 0
 231 -135 277 -85 277 -39 c 1
 307 -39 l 1
 307 -105 245 -165 167 -165 c 0
 95 -165 41 -112 41 -39 c 0
 41 48 168 84 168 187 c 2
 168 237 l 1xec
EndSplineSet
EndChar
StartChar: grave
Encoding: 96 96 121
Width: 143
Flags: W
HStem: 412 98<24 95>
VStem: 24 71<412 510>
Fore
95 412 m 1
 72 412 l 1
 24 510 l 1
 62 510 l 1
 95 412 l 1
EndSplineSet
EndChar
StartChar: acute
Encoding: 180 180 122
Width: 212
Flags: W
HStem: 400 120<104 144>
VStem: 68 132<400 520>
Fore
144 520 m 1
 200 520 l 1
 104 400 l 1
 68 400 l 1
 144 520 l 1
EndSplineSet
EndChar
StartChar: circumflex
Encoding: 710 710 123
Width: 232
Flags: W
HStem: 490 89<105 208>
VStem: 24 184<490 490>
Fore
105 579 m 1
 127 579 l 1
 208 490 l 1
 167 490 l 1
 116 545 l 1
 65 490 l 1
 24 490 l 1
 105 579 l 1
EndSplineSet
EndChar
StartChar: tilde
Encoding: 732 732 124
Width: 218
Flags: W
HStem: 437 31<138.433 162.847> 474 29<56.4707 83.6359>
VStem: 24 20<443 471.125> 175 19<470.387 499>
Fore
175 499 m 1
 194 499 l 1
 194 488 193 476 191 468 c 0
 183 437 162 437 154 437 c 0
 135 437 114 450 103 458 c 0
 87 469 75 474 67 474 c 0
 59 474 45 469 44 443 c 1
 24 443 l 1
 24 452 24 460 27 471 c 0
 34 495 51 503 67 503 c 0
 88 503 110 489 119 483 c 0
 135 473 147 468 154 468 c 0
 161 468 175 475 175 499 c 1
EndSplineSet
EndChar
StartChar: macron
Encoding: 175 175 125
Width: 288
Flags: W
HStem: 405 30<41 247>
Fore
247 435 m 1
 247 405 l 1
 41 405 l 1
 41 435 l 1
 247 435 l 1
EndSplineSet
EndChar
StartChar: dotaccent
Encoding: 729 729 126
Width: 192
Flags: W
HStem: 415 56<76.5 115.5>
VStem: 68 56<423.5 462.5>
Fore
68 443 m 0
 68 458 81 471 96 471 c 0
 111 471 124 458 124 443 c 0
 124 428 111 415 96 415 c 0
 81 415 68 428 68 443 c 0
EndSplineSet
EndChar
StartChar: dieresis
Encoding: 168 168 127
Width: 258
Flags: W
HStem: 405 56<49.5 88.5 169.5 208.5>
VStem: 41 56<413.5 452.5> 161 56<413.5 452.5>
Fore
41 433 m 0
 41 448 54 461 69 461 c 0
 84 461 97 448 97 433 c 0
 97 418 84 405 69 405 c 0
 54 405 41 418 41 433 c 0
161 433 m 0
 161 448 174 461 189 461 c 0
 204 461 217 448 217 433 c 0
 217 418 204 405 189 405 c 0
 174 405 161 418 161 433 c 0
EndSplineSet
EndChar
StartChar: ring
Encoding: 730 730 128
Width: 192
Flags: W
HStem: 376 30<66.1 125.9> 490 30<66.1 125.9>
VStem: 24 30<418.1 477.9> 138 30<418.1 477.9>
Fore
96 520 m 0
 136 520 168 488 168 448 c 0
 168 408 136 376 96 376 c 0
 56 376 24 408 24 448 c 0
 24 488 56 520 96 520 c 0
54 448 m 0
 54 425 73 406 96 406 c 0
 119 406 138 425 138 448 c 0
 138 471 119 490 96 490 c 0
 73 490 54 471 54 448 c 0
EndSplineSet
EndChar
StartChar: cedilla
Encoding: 184 184 129
Width: 210
Flags: W
HStem: -134 30<75.5927 126> -20 20G<106 134>
VStem: 132 30<-97.6 -66.1489>
Fore
106 0 m 1
 134 0 l 1
 116 -32 l 1
 162 -40 162 -71 162 -82 c 0
 162 -113 135 -134 100 -134 c 0
 83 -134 65 -129 48 -118 c 1
 64 -93 l 1
 76 -101 89 -104 100 -104 c 0
 120 -104 132 -94 132 -82 c 0
 132 -68 114 -61 96 -58 c 2
 74 -55 l 1
 106 0 l 1
EndSplineSet
EndChar
StartChar: hungarumlaut
Encoding: 733 733 130
Width: 342
Flags: W
HStem: 400 120<104 144>
VStem: 68 262<400 520>
Fore
144 520 m 1
 200 520 l 1
 104 400 l 1
 68 400 l 1
 144 520 l 1
274 520 m 1
 330 520 l 1
 234 400 l 1
 198 400 l 1
 274 520 l 1
EndSplineSet
EndChar
StartChar: ogonek
Encoding: 731 731 131
Width: 203
Flags: W
HStem: -131 25<90.3 133.321> -20 20G<88 120>
VStem: 48 31<-99.7 -49>
Fore
140 -97 m 1
 155 -115 l 1
 139 -126 122 -131 106 -131 c 0
 74 -131 48 -109 48 -76 c 0
 48 -48 68 -21 88 0 c 1
 120 0 l 1
 88 -33 79 -55 79 -75 c 0
 79 -94 96 -106 115 -106 c 0
 123 -106 132 -103 140 -97 c 1
EndSplineSet
EndChar
StartChar: caron
Encoding: 711 711 132
Width: 232
Flags: W
HStem: 490 89<24 127>
VStem: 24 184<579 579>
Fore
127 490 m 1
 105 490 l 1
 24 579 l 1
 65 579 l 1
 116 524 l 1
 167 579 l 1
 208 579 l 1
 127 490 l 1
EndSplineSet
EndChar
StartChar: emdash
Encoding: 8212 8212 133
Width: 378
Flags: W
HStem: 149 42<0 378>
Fore
378 191 m 1
 378 149 l 1
 0 149 l 1
 0 191 l 1
 378 191 l 1
EndSplineSet
EndChar
StartChar: AE
Encoding: 198 198 134
Width: 517
Flags: W
HStem: 0 30<351 505> 155 30<121 292> 275 30<306 477> 470 30<239 240 270 497>
VStem: 12 493<0 30>
Fore
477 305 m 1
 477 275 l 1
 306 275 l 1
 351 30 l 1
 505 30 l 1
 505 0 l 1
 326 0 l 1
 297 155 l 1
 108 155 l 1
 44 0 l 1
 12 0 l 1
 219 500 l 1
 497 500 l 1
 497 470 l 1
 270 470 l 1
 300 305 l 1
 477 305 l 1
121 185 m 1
 292 185 l 1
 240 470 l 1
 239 470 l 1
 121 185 l 1
EndSplineSet
EndChar
StartChar: ordfeminine
Encoding: 170 170 135
Width: 293
Flags: W
HStem: 208 26<84.8 182.3> 346 21<92.7 188.342> 432 25<102.2 191.9>
VStem: 41 26<242.2 346.2> 216 28<241.102 267 277.6 335>
Fore
216 314 m 2
 216 335 l 1
 197 341 171 346 146 346 c 0
 105 346 67 333 67 289 c 0
 67 253 95 234 129 234 c 0
 179 234 213 286 216 314 c 2
71 390 m 1
 50 402 l 1
 69 434 101 457 138 457 c 0
 196 457 244 415 244 346 c 2
 244 275 l 2
 244 269 246 238 252 214 c 1
 225 208 l 1
 221 223 218 244 217 267 c 1
 200 237 170 208 129 208 c 0
 79 208 41 240 41 289 c 0
 41 347 91 367 143 367 c 0
 169 367 195 362 216 354 c 1
 213 403 179 432 136 432 c 0
 110 432 86 416 71 390 c 1
EndSplineSet
EndChar
StartChar: Lslash
Encoding: 321 321 136
Width: 363
Flags: W
HStem: 0 30<78 339> 480 20G<48 78>
VStem: 48 30<30 170 237 500>
Fore
339 0 m 1
 48 0 l 1
 48 170 l 1
 -5 123 l 1
 -5 163 l 1
 48 210 l 1
 48 500 l 1
 78 500 l 1
 78 237 l 1
 194 340 l 1
 194 300 l 1
 78 197 l 1
 78 30 l 1
 339 30 l 1
 339 0 l 1
EndSplineSet
EndChar
StartChar: Oslash
Encoding: 216 216 137
Width: 589
Flags: W
HStem: -5 30<244.3 456.2> 475 30<133.8 348.3>
VStem: 41 30<153.8 411.2> 519 29<88.8 343.6>
Fore
127 -38 m 1
 102 -22 l 1
 145 44 l 1
 82 90 41 165 41 250 c 0
 41 391 155 505 295 505 c 0
 343 505 387 492 425 469 c 1
 470 538 l 1
 495 522 l 1
 449 452 l 1
 509 405 548 332 548 250 c 0
 548 109 434 -5 294 -5 c 0
 249 -5 207 7 170 28 c 1
 127 -38 l 1
433 427 m 1
 187 53 l 1
 219 35 256 25 295 25 c 0
 419 25 519 126 519 250 c 0
 519 322 485 386 433 427 c 1
162 69 m 1
 408 444 l 1
 375 464 336 475 295 475 c 0
 171 475 71 374 71 250 c 0
 71 176 107 110 162 69 c 1
EndSplineSet
EndChar
StartChar: OE
Encoding: 338 338 138
Width: 644
Flags: W
HStem: -5 30<133.8 343.668> 0 30<363 624> 275 30<363 604> 470 30<362 623> 475 30<133.8 343.668>
VStem: 41 30<88.8 411.2> 333 29<30 275 305 470>
Fore
362 305 m 1x36
 604 305 l 1
 604 275 l 1
 363 275 l 1
 363 30 l 1
 624 30 l 1
 624 0 l 1
 345 0 l 1x76
 329 -3 312 -5 295 -5 c 0
 155 -5 41 109 41 250 c 0
 41 391 155 505 295 505 c 0xae
 312 505 329 503 345 500 c 1
 623 500 l 1
 623 470 l 1
 362 470 l 1
 362 305 l 1x36
333 28 m 1
 333 472 l 1
 321 474 308 475 295 475 c 0
 171 475 71 374 71 250 c 0
 71 126 171 25 295 25 c 0xae
 308 25 321 26 333 28 c 1
EndSplineSet
EndChar
StartChar: ordmasculine
Encoding: 186 186 139
Width: 310
Flags: W
HStem: 207 29<95.2 214.8> 406 29<95.2 214.8>
VStem: 41 30<259.9 382.1> 239 30<259.9 382.1>
Fore
155 435 m 0
 218 435 269 384 269 321 c 0
 269 258 218 207 155 207 c 0
 92 207 41 258 41 321 c 0
 41 384 92 435 155 435 c 0
71 321 m 0
 71 274 109 236 155 236 c 0
 201 236 239 274 239 321 c 0
 239 368 201 406 155 406 c 0
 109 406 71 368 71 321 c 0
EndSplineSet
EndChar
StartChar: ae
Encoding: 230 230 140
Width: 624
Flags: W
HStem: -5 31<70.8 208.6 347 482.2> 170 29<171.421 270 303 550> 316 30<125.7 232.3 349.3 504>
VStem: 34 30<51.6 192>
Fore
583 170 m 1
 299 170 l 1
 299 89 357 26 425 26 c 0
 469 26 508 52 531 93 c 1
 557 78 l 1
 530 29 481 -5 425 -5 c 0
 365 -5 315 32 288 86 c 1
 256 37 203 -6 141 -6 c 0
 65 -6 34 46 34 88 c 0
 34 197 187 199 270 199 c 1
 268 276 217 316 166 316 c 0
 135 316 103 300 80 267 c 1
 56 283 l 1
 85 326 126 346 166 346 c 0
 217 346 268 314 289 254 c 1
 316 308 367 345 426 345 c 0
 509 345 575 273 582 185 c 2
 583 170 l 1
141 24 m 0
 193 24 249 65 277 115 c 1
 273 132 270 150 270 170 c 1
 197 169 64 168 64 88 c 0
 64 60 87 24 141 24 c 0
303 199 m 1
 550 199 l 1
 538 266 486 315 426 315 c 0
 367 315 315 266 303 199 c 1
EndSplineSet
EndChar
StartChar: lslash
Encoding: 322 322 141
Width: 126
Flags: W
HStem: 0 21G<48 78> 480 20G<48 78>
VStem: 48 30<0 170 237 500>
Fore
78 0 m 1
 48 0 l 1
 48 170 l 1
 10 136 l 1
 10 176 l 1
 48 210 l 1
 48 500 l 1
 78 500 l 1
 78 237 l 1
 116 271 l 1
 116 231 l 1
 78 197 l 1
 78 0 l 1
EndSplineSet
EndChar
StartChar: oslash
Encoding: 248 248 142
Width: 431
Flags: W
HStem: -5 29<177.746 320> 314 31<111 253.025>
VStem: 41 29<101.4 273> 361 29<65 232.7>
Fore
311 377 m 1
 339 362 l 1
 314 314 l 1
 360 283 390 230 390 170 c 0
 390 73 312 -5 216 -5 c 0
 193 -5 171 -1 151 7 c 1
 128 -37 l 1
 101 -23 l 1
 124 21 l 1
 74 52 41 107 41 170 c 0
 41 267 119 345 215 345 c 0
 240 345 264 340 286 330 c 1
 311 377 l 1
300 287 m 1
 165 33 l 1
 181 27 198 24 216 24 c 0
 296 24 361 89 361 169 c 0
 361 218 337 261 300 287 c 1
138 46 m 1
 272 302 l 1
 254 310 235 314 215 314 c 0
 135 314 70 249 70 169 c 0
 70 117 97 72 138 46 c 1
EndSplineSet
EndChar
StartChar: oe
Encoding: 339 339 143
Width: 713
Flags: W
HStem: -5 30<112 306 432.8 573.2> 169 30<393 640> 315 30<112 306 439.3 594>
VStem: 41 30<66 274> 361 29<66 170>
Fore
71 170 m 0
 71 90 136 25 216 25 c 0
 296 25 361 90 361 170 c 0
 361 250 296 315 216 315 c 0
 136 315 71 250 71 170 c 0
672 169 m 1
 390 169 l 1
 390 88 448 26 516 26 c 0
 560 26 599 52 622 93 c 1
 648 78 l 1
 621 29 572 -5 516 -5 c 0
 452 -5 398 37 374 97 c 1
 346 37 285 -5 215 -5 c 0
 119 -5 41 73 41 170 c 0
 41 267 119 345 215 345 c 0
 285 345 346 303 374 243 c 1
 398 303 452 345 515 345 c 0
 598 345 664 273 671 185 c 2
 672 169 l 1
393 199 m 1
 640 199 l 1
 628 266 576 316 516 316 c 0
 457 316 405 266 393 199 c 1
EndSplineSet
EndChar
StartChar: germandbls
Encoding: 223 223 144
Width: 380
Flags: W
HStem: -6 24<171.696 273.9> 529 29<120.6 244.1>
VStem: 56 30<0 519.7> 194 31<222.7 338.4> 276 31<349.4 511.9> 308 31<36.9 218.9>
Fore
86 391 m 2
 86 0 l 1
 56 0 l 1
 56 390 l 2
 56 505 120 558 185 558 c 0
 247 558 307 510 307 429 c 0
 307 353 225 327 225 289 c 0
 225 238 339 210 339 122 c 0
 339 40 278 -6 212 -6 c 0
 178 -6 143 6 114 31 c 1
 134 44 l 1
 155 26 180 18 205 18 c 0
 258 18 308 57 308 124 c 0
 308 197 194 217 194 290 c 0
 194 346 276 368 276 430 c 0
 276 493 230 529 183 529 c 0
 135 529 86 490 86 391 c 2
EndSplineSet
EndChar
StartChar: logicalnot
Encoding: 172 172 145
Width: 468
Flags: W
HStem: 275 30<41 397>
VStem: 397 30<120 275>
Fore
427 305 m 1
 427 120 l 1
 397 120 l 1
 397 275 l 1
 41 275 l 1
 41 305 l 1
 427 305 l 1
EndSplineSet
EndChar
StartChar: trademark
Encoding: 8482 8482 146
Width: 575
Flags: W
HStem: 474 26<48 119 145 216>
VStem: 119 26<250 474>
Fore
216 500 m 1
 216 474 l 1
 145 474 l 1
 145 250 l 1
 119 250 l 1
 119 474 l 1
 48 474 l 1
 48 500 l 1
 216 500 l 1
468 423 m 1
 379 244 l 1
 294 424 l 1
 260 251 l 1
 233 251 l 1
 284 506 l 1
 380 304 l 1
 478 505 l 1
 527 250 l 1
 501 250 l 1
 468 423 l 1
EndSplineSet
EndChar
StartChar: Eth
Encoding: 208 208 147
Width: 452
Flags: W
HStem: 0 30<86 157> 235 30<3 56 86 234> 470 30<86 318.2>
VStem: 56 30<30 235 265 470> 381 30<88.8 411.2>
CounterMasks: 1 00
Fore
86 30 m 1
 157 30 l 2
 281 30 381 126 381 250 c 0
 381 374 281 470 157 470 c 2
 86 470 l 1
 86 265 l 1
 234 265 l 1
 234 235 l 1
 86 235 l 1
 86 30 l 1
56 265 m 1
 56 500 l 1
 157 500 l 2
 297 500 411 391 411 250 c 0
 411 109 297 0 157 0 c 2
 56 0 l 1
 56 235 l 1
 3 235 l 1
 3 265 l 1
 56 265 l 1
EndSplineSet
EndChar
StartChar: onehalf
Encoding: 189 189 148
Width: 620
Flags: W
HStem: 0 30<393 566> 308 30<424.9 521.1> 480 20G<446 483>
VStem: 102 30<169 448> 374 30<229 287.5> 542 32<121.1 287.5>
Fore
566 30 m 1
 566 0 l 1
 359 0 l 1
 359 14 l 2
 359 128 542 146 542 229 c 0
 542 274 510 308 473 308 c 0
 436 308 404 274 404 229 c 1
 374 229 l 1
 374 288 418 338 474 338 c 0
 530 338 574 289 574 230 c 0
 574 130 411 110 393 30 c 1
 566 30 l 1
446 500 m 1
 483 500 l 1
 128 0 l 1
 91 0 l 1
 446 500 l 1
102 169 m 1
 102 448 l 1
 63 421 l 1
 46 446 l 1
 132 505 l 1
 132 169 l 1
 102 169 l 1
EndSplineSet
Ligature2: "'frac' Diagonal Fractions in Latin lookup 42" one fraction two
Ligature2: "'frac' Diagonal Fractions in Latin lookup 42" one slash two
EndChar
StartChar: plusminus
Encoding: 177 177 149
Width: 348
Flags: W
HStem: 0 30<41 307> 235 30<41 159 189 307>
VStem: 159 30<117 235 265 383>
Fore
307 30 m 1
 307 0 l 1
 41 0 l 1
 41 30 l 1
 307 30 l 1
189 117 m 1
 159 117 l 1
 159 235 l 1
 41 235 l 1
 41 265 l 1
 159 265 l 1
 159 383 l 1
 189 383 l 1
 189 265 l 1
 307 265 l 1
 307 235 l 1
 189 235 l 1
 189 117 l 1
EndSplineSet
EndChar
StartChar: Thorn
Encoding: 222 222 150
Width: 381
Flags: W
HStem: 0 21G<56 86> 106 31<92.7519 273.2> 363 29<92.7519 273.2> 480 20G<56 86>
VStem: 56 30<0 112 143 357 386 500> 309 31<156.4 343.6>
Fore
86 357 m 1
 86 143 l 1
 109 139 131 137 151 137 c 0
 245 137 309 178 309 250 c 0
 309 322 245 363 151 363 c 0
 131 363 109 361 86 357 c 1
56 0 m 1
 56 500 l 1
 86 500 l 1
 86 386 l 1
 108 390 130 392 151 392 c 0
 267 392 340 335 340 249 c 0
 340 163 267 106 151 106 c 0
 130 106 108 108 86 112 c 1
 86 0 l 1
 56 0 l 1
EndSplineSet
EndChar
StartChar: onequarter
Encoding: 188 188 151
Width: 620
Flags: W
HStem: 0 21G<122 159 493 523> 54 31<364 493 523 560> 480 20G<477 514>
VStem: 102 30<169 448> 493 29<0 54 85 255>
Fore
477 500 m 1
 514 500 l 1
 159 0 l 1
 122 0 l 1
 477 500 l 1
493 85 m 1
 493 255 l 1
 364 85 l 1
 493 85 l 1
102 169 m 1
 102 448 l 1
 63 421 l 1
 46 446 l 1
 132 505 l 1
 132 169 l 1
 102 169 l 1
493 54 m 1
 303 54 l 1
 522 343 l 1
 522 85 l 1
 570 85 l 1
 560 54 l 1
 523 54 l 1
 523 0 l 1
 493 0 l 1
 493 54 l 1
EndSplineSet
Ligature2: "'frac' Diagonal Fractions in Latin lookup 42" one fraction four
Ligature2: "'frac' Diagonal Fractions in Latin lookup 42" one slash four
EndChar
StartChar: divide
Encoding: 247 247 152
Width: 362
Flags: W
HStem: 129 56<161.5 200.5> 235 30<48 314> 315 56<161.5 200.5>
VStem: 153 56<137.5 176.5 323.5 362.5>
CounterMasks: 1 00
Fore
153 157 m 0
 153 172 166 185 181 185 c 0
 196 185 209 172 209 157 c 0
 209 142 196 129 181 129 c 0
 166 129 153 142 153 157 c 0
153 343 m 0
 153 358 166 371 181 371 c 0
 196 371 209 358 209 343 c 0
 209 328 196 315 181 315 c 0
 166 315 153 328 153 343 c 0
314 265 m 1
 314 235 l 1
 48 235 l 1
 48 265 l 1
 314 265 l 1
EndSplineSet
EndChar
StartChar: brokenbar
Encoding: 166 166 153
Width: 142
Flags: W
VStem: 56 30<-170 100 240 510>
Fore
86 240 m 1
 56 240 l 1
 56 510 l 1
 86 510 l 1
 86 240 l 1
86 -170 m 1
 56 -170 l 1
 56 100 l 1
 86 100 l 1
 86 -170 l 1
EndSplineSet
EndChar
StartChar: degree
Encoding: 176 176 154
Width: 252
Flags: W
HStem: 406 31<87 165> 545 31<87 165>
VStem: 41 31<452 530> 180 31<452 530>
Fore
126 576 m 0
 173 576 211 538 211 491 c 0
 211 444 173 406 126 406 c 0
 79 406 41 444 41 491 c 0
 41 538 79 576 126 576 c 0
72 491 m 0
 72 461 96 437 126 437 c 0
 156 437 180 461 180 491 c 0
 180 521 156 545 126 545 c 0
 96 545 72 521 72 491 c 0
EndSplineSet
EndChar
StartChar: thorn
Encoding: 254 254 155
Width: 414
Flags: W
HStem: -5 31<145.1 304> 316 29<145.1 304> 480 20G<56 86>
VStem: 56 30<-170 67 123.2 241.28 273 500> 342 31<65.7 276.3>
Fore
86 -170 m 1
 56 -170 l 1
 56 500 l 1
 86 500 l 1
 86 273 l 1
 115 316 161 345 214 345 c 0
 303 345 373 265 373 170 c 0
 373 75 303 -5 214 -5 c 0
 161 -5 115 24 86 67 c 1
 86 -170 l 1
86 182 m 2
 86 160 l 2
 91 84 147 26 213 26 c 0
 283 26 342 90 342 171 c 0
 342 252 283 316 213 316 c 0
 147 316 91 258 86 182 c 2
EndSplineSet
EndChar
StartChar: threequarters
Encoding: 190 190 156
Width: 620
Flags: W
HStem: 0 21G<162 199 513 543> 55 30<384 513 543 580> 163 29<86.4 195.6> 344 30<141 180> 475 30<102 180>
VStem: 35 30<213.4 268> 57 30<422 459.7> 195 28<386.9 459.7> 217 28<213.4 318.7> 513 29<0 55 85 255>
Fore
35 268 m 1xfcc0
 65 268 l 1
 65 226 99 192 141 192 c 0
 183 192 217 226 217 268 c 0xfcc0
 217 310 183 344 141 344 c 1
 141 374 l 1
 171 374 195 393 195 422 c 0
 195 451 171 475 141 475 c 0
 111 475 87 451 87 422 c 1
 57 422 l 1
 57 468 94 505 140 505 c 0
 186 505 223 468 223 422 c 0xfb40
 223 395 210 373 191 359 c 1
 223 341 245 307 245 268 c 0
 245 210 198 163 140 163 c 0
 82 163 35 210 35 268 c 1xfcc0
517 500 m 1
 554 500 l 1
 199 0 l 1
 162 0 l 1
 517 500 l 1
513 85 m 1
 513 255 l 1
 384 85 l 1
 513 85 l 1
513 55 m 1
 323 55 l 1
 542 344 l 1
 542 85 l 1
 590 85 l 1
 580 55 l 1
 543 55 l 1
 543 0 l 1
 513 0 l 1
 513 55 l 1
EndSplineSet
Ligature2: "'frac' Diagonal Fractions in Latin lookup 42" three fraction four
Ligature2: "'frac' Diagonal Fractions in Latin lookup 42" three slash four
EndChar
StartChar: registered
Encoding: 174 174 157
Width: 590
Flags: W
HStem: -5 30<133.8 456.2> 232 30<243 306> 365 30<243 349.1> 475 30<133.8 456.2>
VStem: 41 30<88.8 411.2> 213 30<105 232 262 365> 363 30<275.3 350.7> 519 30<88.8 411.2>
Fore
410 105 m 1
 375 105 l 1
 306 232 l 1
 243 232 l 1
 243 105 l 1
 213 105 l 1
 213 395 l 1
 314 395 l 2
 358 395 393 358 393 313 c 0
 393 277 370 246 338 236 c 1
 410 105 l 1
71 250 m 0
 71 126 171 25 295 25 c 0
 419 25 519 126 519 250 c 0
 519 374 419 475 295 475 c 0
 171 475 71 374 71 250 c 0
295 505 m 0
 435 505 549 391 549 250 c 0
 549 109 435 -5 295 -5 c 0
 155 -5 41 109 41 250 c 0
 41 391 155 505 295 505 c 0
243 262 m 1
 315 262 l 2
 341 262 363 284 363 313 c 0
 363 342 341 365 314 365 c 2
 243 365 l 1
 243 262 l 1
EndSplineSet
EndChar
StartChar: eth
Encoding: 240 240 158
Width: 430
Flags: W
HStem: -5 29<110 318> 314 31<134 267>
VStem: 41 28<65 273> 359 30<65 225.9>
Fore
239 454 m 1
 240 453 l 2
 376 338 389 213 389 170 c 0
 389 73 311 -5 215 -5 c 0
 119 -5 41 73 41 170 c 0
 41 267 119 345 215 345 c 0
 255 345 292 332 321 309 c 1
 295 358 257 402 213 437 c 1
 107 374 l 1
 92 400 l 1
 187 457 l 1
 154 480 118 498 83 509 c 1
 92 538 l 1
 133 525 175 503 214 474 c 1
 320 537 l 1
 335 511 l 1
 239 454 l 1
215 314 m 2
 214 314 l 2
 134 314 69 249 69 169 c 0
 69 89 134 24 214 24 c 0
 294 24 359 89 359 169 c 0
 359 256 289 314 215 314 c 2
EndSplineSet
EndChar
StartChar: multiply
Encoding: 215 215 159
Width: 358
Flags: W
HStem: 117 266<24 334>
VStem: 24 310<117 383>
Fore
334 117 m 1
 291 117 l 1
 180 228 l 1
 71 117 l 1
 29 117 l 1
 159 249 l 1
 24 383 l 1
 67 383 l 1
 180 270 l 1
 291 383 l 1
 333 383 l 1
 201 249 l 1
 334 117 l 1
EndSplineSet
EndChar
StartChar: copyright
Encoding: 169 169 160
Width: 590
Flags: W
HStem: -5 30<133.8 456.2> 104 30<225.1 339.5> 364 30<225.1 339.5> 475 30<133.8 456.2>
VStem: 41 30<88.8 411.2> 165 30<164.5 333.5> 519 30<88.8 411.2>
Fore
295 505 m 0
 435 505 549 391 549 250 c 0
 549 109 435 -5 295 -5 c 0
 155 -5 41 109 41 250 c 0
 41 391 155 505 295 505 c 0
71 250 m 0
 71 126 171 25 295 25 c 0
 419 25 519 126 519 250 c 0
 519 374 419 475 295 475 c 0
 171 475 71 374 71 250 c 0
378 188 m 1
 404 173 l 1
 382 132 341 104 294 104 c 0
 221 104 165 170 165 249 c 0
 165 328 221 394 294 394 c 0
 341 394 382 366 404 325 c 1
 378 310 l 1
 360 343 329 364 294 364 c 0
 241 364 195 314 195 249 c 0
 195 184 241 134 294 134 c 0
 329 134 360 155 378 188 c 1
EndSplineSet
EndChar
StartChar: Aacute
Encoding: 193 193 161
Width: 444
Flags: W
HStem: 0 21G<12 44 400 432> 155 30<122 324>
VStem: 12 420<0 0>
Fore
268 629 m 1
 325 629 l 1
 224 540 l 1
 193 540 l 1
 268 629 l 1
122 185 m 1
 324 185 l 1
 223 428 l 1
 122 185 l 1
336 155 m 1
 108 155 l 1
 44 0 l 1
 12 0 l 1
 222 506 l 1
 432 0 l 1
 400 0 l 1
 336 155 l 1
EndSplineSet
EndChar
StartChar: Acircumflex
Encoding: 194 194 162
Width: 444
Flags: W
HStem: 0 21G<12 44 400 432> 155 30<122 324>
VStem: 12 420<0 0>
Fore
212 629 m 1
 234 629 l 1
 315 540 l 1
 274 540 l 1
 223 595 l 1
 172 540 l 1
 131 540 l 1
 212 629 l 1
122 185 m 1
 324 185 l 1
 223 428 l 1
 122 185 l 1
336 155 m 1
 108 155 l 1
 44 0 l 1
 12 0 l 1
 222 506 l 1
 432 0 l 1
 400 0 l 1
 336 155 l 1
EndSplineSet
EndChar
StartChar: Adieresis
Encoding: 196 196 163
Width: 444
Flags: W
HStem: 0 21G<12 44 400 432> 155 30<122 324> 540 56<143.5 182.5 263.5 302.5>
VStem: 135 56<548.5 587.5> 255 56<548.5 587.5>
Fore
135 568 m 0
 135 583 148 596 163 596 c 0
 178 596 191 583 191 568 c 0
 191 553 178 540 163 540 c 0
 148 540 135 553 135 568 c 0
255 568 m 0
 255 583 268 596 283 596 c 0
 298 596 311 583 311 568 c 0
 311 553 298 540 283 540 c 0
 268 540 255 553 255 568 c 0
122 185 m 1
 324 185 l 1
 223 428 l 1
 122 185 l 1
336 155 m 1
 108 155 l 1
 44 0 l 1
 12 0 l 1
 222 506 l 1
 432 0 l 1
 400 0 l 1
 336 155 l 1
EndSplineSet
EndChar
StartChar: Agrave
Encoding: 192 192 164
Width: 444
Flags: W
HStem: 0 21G<12 44 400 432> 155 30<122 324>
VStem: 12 420<0 0>
Fore
122 629 m 1
 179 629 l 1
 254 540 l 1
 223 540 l 1
 122 629 l 1
122 185 m 1
 324 185 l 1
 223 428 l 1
 122 185 l 1
336 155 m 1
 108 155 l 1
 44 0 l 1
 12 0 l 1
 222 506 l 1
 432 0 l 1
 400 0 l 1
 336 155 l 1
EndSplineSet
EndChar
StartChar: Aring
Encoding: 197 197 165
Width: 444
Flags: W
HStem: 0 21G<12 44 400 432> 155 30<122 324> 535 30<191.1 250.9> 649 30<191.1 250.9>
VStem: 149 30<577.1 636.9> 263 30<577.1 636.9>
Fore
221 679 m 0
 261 679 293 647 293 607 c 0
 293 567 261 535 221 535 c 0
 181 535 149 567 149 607 c 0
 149 647 181 679 221 679 c 0
179 607 m 0
 179 584 198 565 221 565 c 0
 244 565 263 584 263 607 c 0
 263 630 244 649 221 649 c 0
 198 649 179 630 179 607 c 0
122 185 m 1
 324 185 l 1
 223 428 l 1
 122 185 l 1
336 155 m 1
 108 155 l 1
 44 0 l 1
 12 0 l 1
 222 506 l 1
 432 0 l 1
 400 0 l 1
 336 155 l 1
EndSplineSet
EndChar
StartChar: Atilde
Encoding: 195 195 166
Width: 444
Flags: W
HStem: 0 21G<12 44 400 432> 155 30<122 324> 535 30<235.4 272.85> 571 30<166.471 208.2>
VStem: 135 19<540 572.5> 285 20<560.9 596>
Fore
154 540 m 1
 135 540 l 1
 136 565 140 601 178 601 c 0
 214 601 242 565 264 565 c 0
 268 565 285 569 285 596 c 1
 305 596 l 1
 305 551 288 535 263 535 c 0
 231 535 201 571 177 571 c 0
 169 571 155 566 154 540 c 1
122 185 m 1
 324 185 l 1
 223 428 l 1
 122 185 l 1
336 155 m 1
 108 155 l 1
 44 0 l 1
 12 0 l 1
 222 506 l 1
 432 0 l 1
 400 0 l 1
 336 155 l 1
EndSplineSet
EndChar
StartChar: Ccedilla
Encoding: 199 199 167
Width: 541
Flags: W
HStem: -133 30<252.593 303> 475 31<133.8 391.2>
VStem: 41 30<88.8 411.2> 309 30<-96.6 -65.1489>
Fore
475 116 m 1
 500 99 l 1
 456 40 387 0 309 -4 c 1
 293 -31 l 1
 339 -39 339 -70 339 -81 c 0
 339 -112 312 -133 277 -133 c 0
 260 -133 242 -128 225 -117 c 1
 241 -92 l 1
 253 -100 266 -103 277 -103 c 0
 297 -103 309 -93 309 -81 c 0
 309 -67 291 -60 273 -57 c 2
 251 -54 l 1
 281 -3 l 1
 147 4 41 115 41 251 c 0
 41 392 155 506 295 506 c 0
 379 506 453 465 499 402 c 1
 475 384 l 1
 434 439 369 475 295 475 c 0
 171 475 71 374 71 250 c 0
 71 126 171 25 295 25 c 0
 369 25 434 61 475 116 c 1
EndSplineSet
EndChar
StartChar: Eacute
Encoding: 201 201 168
Width: 367
Flags: W
HStem: 0 30<86 346> 275 30<86 326> 470 30<86 347>
VStem: 56 30<30 275 305 470>
Fore
275 629 m 1
 174 540 l 1
 143 540 l 1
 218 629 l 1
 275 629 l 1
326 305 m 1
 326 275 l 1
 86 275 l 1
 86 30 l 1
 346 30 l 1
 346 0 l 1
 56 0 l 1
 56 500 l 1
 347 500 l 1
 347 470 l 1
 86 470 l 1
 86 305 l 1
 326 305 l 1
EndSplineSet
EndChar
StartChar: Ecircumflex
Encoding: 202 202 169
Width: 367
Flags: W
HStem: 0 30<86 346> 275 30<86 326> 470 30<86 347>
VStem: 56 30<30 275 305 470>
Fore
240 540 m 1
 188 595 l 1
 137 540 l 1
 96 540 l 1
 177 629 l 1
 200 629 l 1
 281 540 l 1
 240 540 l 1
326 305 m 1
 326 275 l 1
 86 275 l 1
 86 30 l 1
 346 30 l 1
 346 0 l 1
 56 0 l 1
 56 500 l 1
 347 500 l 1
 347 470 l 1
 86 470 l 1
 86 305 l 1
 326 305 l 1
EndSplineSet
EndChar
StartChar: Edieresis
Encoding: 203 203 170
Width: 367
Flags: W
HStem: 0 30<86 346> 275 30<86 326> 470 30<86 347> 540 56<108.5 147.5 228.5 267.5>
VStem: 56 30<30 275 305 470> 100 56<548.5 587.5> 220 56<548.5 587.5>
Fore
100 568 m 0
 100 583 113 596 128 596 c 0
 143 596 156 583 156 568 c 0
 156 553 143 540 128 540 c 0
 113 540 100 553 100 568 c 0
220 568 m 0
 220 583 233 596 248 596 c 0
 263 596 276 583 276 568 c 0
 276 553 263 540 248 540 c 0
 233 540 220 553 220 568 c 0
326 305 m 1
 326 275 l 1
 86 275 l 1
 86 30 l 1
 346 30 l 1
 346 0 l 1
 56 0 l 1
 56 500 l 1
 347 500 l 1
 347 470 l 1
 86 470 l 1
 86 305 l 1
 326 305 l 1
EndSplineSet
EndChar
StartChar: Egrave
Encoding: 200 200 171
Width: 367
Flags: W
HStem: 0 30<86 346> 275 30<86 326> 470 30<86 347>
VStem: 56 30<30 275 305 470>
Fore
101 629 m 1
 158 629 l 1
 233 540 l 1
 202 540 l 1
 101 629 l 1
326 305 m 1
 326 275 l 1
 86 275 l 1
 86 30 l 1
 346 30 l 1
 346 0 l 1
 56 0 l 1
 56 500 l 1
 347 500 l 1
 347 470 l 1
 86 470 l 1
 86 305 l 1
 326 305 l 1
EndSplineSet
EndChar
StartChar: Iacute
Encoding: 205 205 172
Width: 142
Flags: W
HStem: 0 21G<56 86> 480 20G<56 86>
VStem: 56 30<0 500>
Fore
172 629 m 1
 71 540 l 1
 40 540 l 1
 115 629 l 1
 172 629 l 1
86 0 m 1
 56 0 l 1
 56 500 l 1
 86 500 l 1
 86 0 l 1
EndSplineSet
EndChar
StartChar: Icircumflex
Encoding: 206 206 173
Width: 142
Flags: W
HStem: 0 21G<56 86> 480 20G<56 86>
VStem: 56 30<0 500>
Fore
122 540 m 1
 70 595 l 1
 19 540 l 1
 -22 540 l 1
 59 629 l 1
 82 629 l 1
 163 540 l 1
 122 540 l 1
86 0 m 1
 56 0 l 1
 56 500 l 1
 86 500 l 1
 86 0 l 1
EndSplineSet
EndChar
StartChar: Idieresis
Encoding: 207 207 174
Width: 142
Flags: W
HStem: 0 21G<56 86> 480 20G<56 86> 540 56<-9.5 29.5 110.5 149.5>
VStem: -18 56<548.5 587.5> 56 30<0 500> 102 56<548.5 587.5>
Fore
-18 568 m 0
 -18 583 -5 596 10 596 c 0
 25 596 38 583 38 568 c 0
 38 553 25 540 10 540 c 0
 -5 540 -18 553 -18 568 c 0
102 568 m 0
 102 583 115 596 130 596 c 0
 145 596 158 583 158 568 c 0
 158 553 145 540 130 540 c 0
 115 540 102 553 102 568 c 0
86 0 m 1
 56 0 l 1
 56 500 l 1
 86 500 l 1
 86 0 l 1
EndSplineSet
EndChar
StartChar: Igrave
Encoding: 204 204 175
Width: 142
Flags: W
HStem: 0 21G<56 86> 480 20G<56 86>
VStem: 56 30<0 500>
Fore
-30 629 m 1
 27 629 l 1
 102 540 l 1
 71 540 l 1
 -30 629 l 1
86 0 m 5
 56 0 l 5
 56 500 l 5
 86 500 l 5
 86 0 l 5
EndSplineSet
EndChar
StartChar: Ntilde
Encoding: 209 209 176
Width: 563
Flags: W
HStem: 0 21G<56 86> 480 20G<477 507> 535 30<295.4 332.85> 571 30<226.471 268.2>
VStem: 56 30<0 433> 195 19<540 572.5> 345 20<560.9 596> 477 30<67 500>
Fore
194 540 m 1
 195 540 l 1
 196 565 200 601 238 601 c 0
 274 601 302 565 324 565 c 0
 328 565 345 569 345 596 c 1
 365 596 l 1
 365 551 348 535 323 535 c 0
 291 535 261 571 237 571 c 0
 229 571 215 566 214 540 c 1
 194 540 l 1
56 0 m 1
 56 507 l 1
 477 67 l 1
 477 500 l 1
 507 500 l 1
 507 -7 l 1
 86 433 l 1
 86 0 l 1
 56 0 l 1
EndSplineSet
EndChar
StartChar: Oacute
Encoding: 211 211 177
Width: 590
Flags: W
HStem: -5 30<133.8 456.2> 475 30<133.8 456.2>
VStem: 41 30<88.8 411.2> 519 30<88.8 411.2>
Fore
416 629 m 1
 315 540 l 1
 284 540 l 1
 359 629 l 1
 416 629 l 1
295 505 m 0
 435 505 549 391 549 250 c 0
 549 109 435 -5 295 -5 c 0
 155 -5 41 109 41 250 c 0
 41 391 155 505 295 505 c 0
71 250 m 0
 71 126 171 25 295 25 c 0
 419 25 519 126 519 250 c 0
 519 374 419 475 295 475 c 0
 171 475 71 374 71 250 c 0
EndSplineSet
EndChar
StartChar: Ocircumflex
Encoding: 212 212 178
Width: 590
Flags: W
HStem: -5 30<133.8 456.2> 475 30<133.8 456.2>
VStem: 41 30<88.8 411.2> 519 30<88.8 411.2>
Fore
347 540 m 1
 295 595 l 1
 244 540 l 1
 203 540 l 1
 284 629 l 1
 307 629 l 1
 388 540 l 1
 347 540 l 1
295 505 m 0
 435 505 549 391 549 250 c 0
 549 109 435 -5 295 -5 c 0
 155 -5 41 109 41 250 c 0
 41 391 155 505 295 505 c 0
71 250 m 0
 71 126 171 25 295 25 c 0
 419 25 519 126 519 250 c 0
 519 374 419 475 295 475 c 0
 171 475 71 374 71 250 c 0
EndSplineSet
EndChar
StartChar: Odieresis
Encoding: 214 214 179
Width: 590
Flags: W
HStem: -5 30<133.8 456.2> 475 30<133.8 456.2> 540 56<215.5 254.5 335.5 374.5>
VStem: 41 30<88.8 411.2> 207 56<548.5 587.5> 327 56<548.5 587.5> 519 30<88.8 411.2>
Fore
207 568 m 0
 207 583 220 596 235 596 c 0
 250 596 263 583 263 568 c 0
 263 553 250 540 235 540 c 0
 220 540 207 553 207 568 c 0
327 568 m 0
 327 583 340 596 355 596 c 0
 370 596 383 583 383 568 c 0
 383 553 370 540 355 540 c 0
 340 540 327 553 327 568 c 0
295 505 m 0
 435 505 549 391 549 250 c 0
 549 109 435 -5 295 -5 c 0
 155 -5 41 109 41 250 c 0
 41 391 155 505 295 505 c 0
71 250 m 0
 71 126 171 25 295 25 c 0
 419 25 519 126 519 250 c 0
 519 374 419 475 295 475 c 0
 171 475 71 374 71 250 c 0
EndSplineSet
EndChar
StartChar: Ograve
Encoding: 210 210 180
Width: 590
Flags: W
HStem: -5 30<133.8 456.2> 475 30<133.8 456.2>
VStem: 41 30<88.8 411.2> 519 30<88.8 411.2>
Fore
295 505 m 0
 435 505 549 391 549 250 c 0
 549 109 435 -5 295 -5 c 0
 155 -5 41 109 41 250 c 0
 41 391 155 505 295 505 c 0
71 250 m 0
 71 126 171 25 295 25 c 0
 419 25 519 126 519 250 c 0
 519 374 419 475 295 475 c 0
 171 475 71 374 71 250 c 0
166 629 m 1
 223 629 l 1
 298 540 l 1
 267 540 l 1
 166 629 l 1
EndSplineSet
EndChar
StartChar: Otilde
Encoding: 213 213 181
Width: 590
Flags: W
HStem: -5 30<133.8 456.2> 475 30<133.8 456.2> 535 30<310.4 347.85> 571 30<241.471 283.2>
VStem: 41 30<88.8 411.2> 210 19<540 572.5> 360 20<560.9 596> 519 30<88.8 411.2>
Fore
209 540 m 1
 210 540 l 1
 211 565 215 601 253 601 c 0
 289 601 317 565 339 565 c 0
 343 565 360 569 360 596 c 1
 380 596 l 1
 380 551 363 535 338 535 c 0
 306 535 276 571 252 571 c 0
 244 571 230 566 229 540 c 1
 209 540 l 1
295 505 m 0
 435 505 549 391 549 250 c 0
 549 109 435 -5 295 -5 c 0
 155 -5 41 109 41 250 c 0
 41 391 155 505 295 505 c 0
71 250 m 0
 71 126 171 25 295 25 c 0
 419 25 519 126 519 250 c 0
 519 374 419 475 295 475 c 0
 171 475 71 374 71 250 c 0
EndSplineSet
EndChar
StartChar: Scaron
Encoding: 352 352 182
Width: 361
Flags: W
HStem: -7 31<104.9 263.5> 475 31<112.4 232>
VStem: 24 30<28.0406 141> 63 30<238.2 450.1> 307 30<47.8 326>
Fore
190 530 m 1
 168 530 l 1
 87 619 l 1
 128 619 l 1
 179 564 l 1
 230 619 l 1
 271 619 l 1
 190 530 l 1
306 412 m 1
 278 402 l 1
 261 452 220 475 180 475 c 0
 128 475 93 436 93 389 c 0
 93 273 337 307 337 143 c 0
 337 53 261 -7 179 -7 c 0
 109 -7 38 38 24 141 c 1
 54 145 l 1
 66 59 122 24 179 24 c 0
 244 24 307 70 307 144 c 0
 307 284 63 246 63 390 c 0
 63 452 110 506 180 506 c 0
 231 506 285 474 306 412 c 1
EndSplineSet
EndChar
StartChar: Uacute
Encoding: 218 218 183
Width: 468
Flags: W
HStem: -5 30<131 339> 480 20G<56 86 382 412>
VStem: 56 30<97 500> 382 30<69.1 500>
Fore
293 629 m 1
 350 629 l 1
 249 540 l 1
 218 540 l 1
 293 629 l 1
56 500 m 1
 86 500 l 1
 86 190 l 2
 86 97 155 25 235 25 c 0
 315 25 382 97 382 190 c 2
 382 500 l 1
 412 500 l 1
 412 190 l 2
 412 83 333 -5 234 -5 c 0
 135 -5 56 83 56 190 c 2
 56 500 l 1
EndSplineSet
EndChar
StartChar: Ucircumflex
Encoding: 219 219 184
Width: 468
Flags: W
HStem: -5 30<131 339> 480 20G<56 86 382 412>
VStem: 56 30<97 500> 382 30<69.1 500>
Fore
326 540 m 1
 284 540 l 1
 233 595 l 1
 182 540 l 1
 141 540 l 1
 222 629 l 1
 245 629 l 1
 326 540 l 1
56 500 m 1
 86 500 l 1
 86 190 l 2
 86 97 155 25 235 25 c 0
 315 25 382 97 382 190 c 2
 382 500 l 1
 412 500 l 1
 412 190 l 2
 412 83 333 -5 234 -5 c 0
 135 -5 56 83 56 190 c 2
 56 500 l 1
EndSplineSet
EndChar
StartChar: Udieresis
Encoding: 220 220 185
Width: 468
Flags: W
HStem: -5 30<131 339> 480 20G<56 86 382 412> 540 56<154.5 193.5 274.5 313.5>
VStem: 56 30<97 500> 146 56<548.5 587.5> 266 56<548.5 587.5> 382 30<69.1 500>
Fore
146 568 m 0
 146 583 159 596 174 596 c 0
 189 596 202 583 202 568 c 0
 202 553 189 540 174 540 c 0
 159 540 146 553 146 568 c 0
266 568 m 0
 266 583 279 596 294 596 c 0
 309 596 322 583 322 568 c 0
 322 553 309 540 294 540 c 0
 279 540 266 553 266 568 c 0
56 500 m 1
 86 500 l 1
 86 190 l 2
 86 97 155 25 235 25 c 0
 315 25 382 97 382 190 c 2
 382 500 l 1
 412 500 l 1
 412 190 l 2
 412 83 333 -5 234 -5 c 0
 135 -5 56 83 56 190 c 2
 56 500 l 1
EndSplineSet
EndChar
StartChar: Ugrave
Encoding: 217 217 186
Width: 468
Flags: W
HStem: -5 30<131 339> 480 20G<56 86 382 412>
VStem: 56 30<97 500> 382 30<69.1 500>
Fore
118 629 m 1
 175 629 l 1
 250 540 l 1
 219 540 l 1
 118 629 l 1
56 500 m 1
 86 500 l 1
 86 190 l 2
 86 97 155 25 235 25 c 0
 315 25 382 97 382 190 c 2
 382 500 l 1
 412 500 l 1
 412 190 l 2
 412 83 333 -5 234 -5 c 0
 135 -5 56 83 56 190 c 2
 56 500 l 1
EndSplineSet
EndChar
StartChar: Yacute
Encoding: 221 221 187
Width: 412
Flags: W
HStem: 0 21G<191 221> 480 20G<12 47 365 400>
VStem: 191 30<0 216>
Fore
266 629 m 1
 323 629 l 1
 222 540 l 1
 191 540 l 1
 266 629 l 1
12 500 m 1
 47 500 l 1
 206 248 l 1
 365 500 l 1
 400 500 l 1
 221 216 l 1
 221 0 l 1
 191 0 l 1
 191 216 l 1
 12 500 l 1
EndSplineSet
EndChar
StartChar: Ydieresis
Encoding: 376 376 188
Width: 412
Flags: W
HStem: 0 21G<191 221> 480 20G<12 47 365 400> 540 56<127.5 166.5 247.5 286.5>
VStem: 119 56<548.5 587.5> 191 30<0 216> 239 56<548.5 587.5>
Fore
119 568 m 0
 119 583 132 596 147 596 c 0
 162 596 175 583 175 568 c 0
 175 553 162 540 147 540 c 0
 132 540 119 553 119 568 c 0
239 568 m 0
 239 583 252 596 267 596 c 0
 282 596 295 583 295 568 c 0
 295 553 282 540 267 540 c 0
 252 540 239 553 239 568 c 0
12 500 m 1
 47 500 l 1
 206 248 l 1
 365 500 l 1
 400 500 l 1
 221 216 l 1
 221 0 l 1
 191 0 l 1
 191 216 l 1
 12 500 l 1
EndSplineSet
EndChar
StartChar: Zcaron
Encoding: 381 381 189
Width: 398
Flags: W
HStem: 0 30<68 376> 470 30<45 323>
VStem: 12 374<0 30>
Fore
210 530 m 1
 188 530 l 1
 107 619 l 1
 148 619 l 1
 199 564 l 1
 250 619 l 1
 291 619 l 1
 210 530 l 1
45 500 m 1
 379 500 l 1
 68 30 l 1
 386 30 l 1
 376 0 l 1
 12 0 l 1
 323 470 l 1
 35 470 l 1
 45 500 l 1
EndSplineSet
EndChar
StartChar: aacute
Encoding: 225 225 190
Width: 356
Flags: W
HStem: -6 30<70.8 209.9> 173 22.003<175.1 270> 316 30<125.7 232.3>
VStem: 34 30<51.6 192> 270 30<5.56201 71 109 173 195 292>
Fore
211 488 m 1
 268 488 l 1
 167 399 l 1
 136 399 l 1
 211 488 l 1
308 0 m 1
 276 0 l 1
 272 13 270 28 270 45 c 2
 270 71 l 1
 241 30 194 -6 141 -6 c 0
 65 -6 34 46 34 88 c 0
 34 193.142 176.36 195.003 260.933 195.003 c 0
 270 195 l 1
 268 272 217 316 166 316 c 0
 135 316 103 300 80 267 c 1
 56 283 l 1
 85 326 126 346 166 346 c 0
 233 346 298 292 300 195 c 2
 300 45 l 2
 300 25 303 10 308 0 c 1
141 24 m 0
 196 24 248 69 270 109 c 1
 270 173 l 1
 197 172 64 168 64 88 c 0
 64 60 87 24 141 24 c 0
EndSplineSet
EndChar
StartChar: acircumflex
Encoding: 226 226 191
Width: 356
Flags: W
HStem: -6 30<70.8 209.9> 173 22.003<175.1 270> 316 30<125.7 232.3>
VStem: 34 30<51.6 192> 270 30<5.56201 71 109 173 195 292>
Fore
165 488 m 1
 187 488 l 1
 268 399 l 1
 227 399 l 1
 176 454 l 1
 125 399 l 1
 84 399 l 1
 165 488 l 1
308 0 m 1
 276 0 l 1
 272 13 270 28 270 45 c 2
 270 71 l 1
 241 30 194 -6 141 -6 c 0
 65 -6 34 46 34 88 c 0
 34 193.142 176.36 195.003 260.933 195.003 c 0
 270 195 l 1
 268 272 217 316 166 316 c 0
 135 316 103 300 80 267 c 1
 56 283 l 1
 85 326 126 346 166 346 c 0
 233 346 298 292 300 195 c 2
 300 45 l 2
 300 25 303 10 308 0 c 1
141 24 m 0
 196 24 248 69 270 109 c 1
 270 173 l 1
 197 172 64 168 64 88 c 0
 64 60 87 24 141 24 c 0
EndSplineSet
EndChar
StartChar: adieresis
Encoding: 228 228 192
Width: 356
Flags: W
HStem: -6 30<70.8 209.9> 173 22.003<175.1 270> 316 30<125.7 232.3> 400 56<97.5 136.5 217.5 256.5>
VStem: 34 30<51.6 192> 89 56<408.5 447.5> 209 56<408.5 447.5> 270 30<5.56201 71 109 173 195 292>
Fore
89 428 m 0
 89 443 102 456 117 456 c 0
 132 456 145 443 145 428 c 0
 145 413 132 400 117 400 c 0
 102 400 89 413 89 428 c 0
209 428 m 0
 209 443 222 456 237 456 c 0
 252 456 265 443 265 428 c 0
 265 413 252 400 237 400 c 0
 222 400 209 413 209 428 c 0
308 0 m 1
 276 0 l 1
 272 13 270 28 270 45 c 2
 270 71 l 1
 241 30 194 -6 141 -6 c 0
 65 -6 34 46 34 88 c 0
 34 193.142 176.36 195.003 260.933 195.003 c 0
 270 195 l 1
 268 272 217 316 166 316 c 0
 135 316 103 300 80 267 c 1
 56 283 l 1
 85 326 126 346 166 346 c 0
 233 346 298 292 300 195 c 2
 300 45 l 2
 300 25 303 10 308 0 c 1
141 24 m 0
 196 24 248 69 270 109 c 1
 270 173 l 1
 197 172 64 168 64 88 c 0
 64 60 87 24 141 24 c 0
EndSplineSet
EndChar
StartChar: agrave
Encoding: 224 224 193
Width: 356
Flags: W
HStem: -6 30<70.8 209.9> 173 22.003<175.1 270> 316 30<125.7 232.3>
VStem: 34 30<51.6 192> 270 30<5.56201 71 109 173 195 292>
Fore
308 0 m 1
 276 0 l 1
 272 13 270 28 270 45 c 2
 270 71 l 1
 241 30 194 -6 141 -6 c 0
 65 -6 34 46 34 88 c 0
 34 193.142 176.36 195.003 260.933 195.003 c 0
 270 195 l 1
 268 272 217 316 166 316 c 0
 135 316 103 300 80 267 c 1
 56 283 l 1
 85 326 126 346 166 346 c 0
 233 346 298 292 300 195 c 2
 300 45 l 2
 300 25 303 10 308 0 c 1
141 24 m 0
 196 24 248 69 270 109 c 1
 270 173 l 1
 197 172 64 168 64 88 c 0
 64 60 87 24 141 24 c 0
67 488 m 1
 124 488 l 1
 199 399 l 1
 168 399 l 1
 67 488 l 1
EndSplineSet
EndChar
StartChar: aring
Encoding: 229 229 194
Width: 356
Flags: W
HStem: -6 30<70.8 209.9> 173 22.003<175.1 270> 316 30<125.7 232.3> 395 30<146.1 205.9> 509 30<146.1 205.9>
VStem: 34 30<51.6 192> 104 30<437.1 496.9> 218 30<437.1 496.9> 270 30<5.56201 71 109 173 195 292>
Fore
176 539 m 0
 216 539 248 507 248 467 c 0
 248 427 216 395 176 395 c 0
 136 395 104 427 104 467 c 0
 104 507 136 539 176 539 c 0
134 467 m 0
 134 444 153 425 176 425 c 0
 199 425 218 444 218 467 c 0
 218 490 199 509 176 509 c 0
 153 509 134 490 134 467 c 0
308 0 m 1
 276 0 l 1
 272 13 270 28 270 45 c 2
 270 71 l 1
 241 30 194 -6 141 -6 c 0
 65 -6 34 46 34 88 c 0
 34 193.142 176.36 195.003 260.933 195.003 c 0
 270 195 l 1
 268 272 217 316 166 316 c 0
 135 316 103 300 80 267 c 1
 56 283 l 1
 85 326 126 346 166 346 c 0
 233 346 298 292 300 195 c 2
 300 45 l 2
 300 25 303 10 308 0 c 1
141 24 m 0
 196 24 248 69 270 109 c 1
 270 173 l 1
 197 172 64 168 64 88 c 0
 64 60 87 24 141 24 c 0
EndSplineSet
EndChar
StartChar: atilde
Encoding: 227 227 195
Width: 356
Flags: W
HStem: -6 30<70.8 209.9> 173 22.003<175.1 270> 316 30<125.7 232.3> 394 31<203.433 229.156> 431 29<121.471 148.636>
VStem: 34 30<51.6 192> 89 20<400 428.125> 240 19<425.712 453> 270 30<5.56201 71 109 173 195 292>
Fore
240 453 m 1
 259 453 l 1
 259 442 258 433 256 425 c 0
 248 394 227 394 219 394 c 0
 200 394 179 407 168 415 c 0
 152 426 140 431 132 431 c 0
 124 431 110 426 109 400 c 1
 89 400 l 1
 89 409 89 417 92 428 c 0
 99 452 116 460 132 460 c 0
 153 460 175 446 184 440 c 0
 200 430 212 425 219 425 c 0
 226 425 240 429 240 453 c 1
308 0 m 1
 276 0 l 1
 272 13 270 28 270 45 c 2
 270 71 l 1
 241 30 194 -6 141 -6 c 0
 65 -6 34 46 34 88 c 0
 34 193.142 176.36 195.003 260.933 195.003 c 0
 270 195 l 1
 268 272 217 316 166 316 c 0
 135 316 103 300 80 267 c 1
 56 283 l 1
 85 326 126 346 166 346 c 0
 233 346 298 292 300 195 c 2
 300 45 l 2
 300 25 303 10 308 0 c 1
141 24 m 0
 196 24 248 69 270 109 c 1
 270 173 l 1
 197 172 64 168 64 88 c 0
 64 60 87 24 141 24 c 0
EndSplineSet
EndChar
StartChar: ccedilla
Encoding: 231 231 196
Width: 337
Flags: W
HStem: -133 30<137.593 188> 315 31<90.6 236.2>
VStem: 24 29<64.7 275.3> 194 30<-96.6 -65.1489>
Fore
285 92 m 1
 313 79 l 1
 288 34 245 2 194 -3 c 1
 178 -31 l 1
 224 -39 224 -70 224 -81 c 0
 224 -112 197 -133 162 -133 c 0
 145 -133 127 -128 110 -117 c 1
 126 -92 l 1
 138 -100 151 -103 162 -103 c 0
 182 -103 194 -93 194 -81 c 0
 194 -67 176 -60 158 -57 c 2
 136 -54 l 1
 166 -3 l 1
 85 5 24 81 24 171 c 0
 24 266 92 346 179 346 c 0
 235 346 284 312 311 263 c 1
 285 248 l 1
 262 289 223 315 179 315 c 0
 111 315 53 251 53 170 c 0
 53 89 111 25 179 25 c 0
 223 25 262 51 285 92 c 1
EndSplineSet
EndChar
StartChar: eacute
Encoding: 233 233 197
Width: 395
Flags: W
HStem: -5 31<107.6 253.2> 169 30<74 321> 315 30<120.3 275>
VStem: 41 29<63.7 170>
Fore
252 489 m 1
 309 489 l 1
 208 400 l 1
 177 400 l 1
 252 489 l 1
74 199 m 1
 321 199 l 1
 309 266 257 315 197 315 c 0
 138 315 86 266 74 199 c 1
354 169 m 1
 70 169 l 1
 70 88 128 26 196 26 c 0
 240 26 279 52 302 93 c 1
 328 78 l 1
 301 29 252 -5 196 -5 c 0
 109 -5 41 75 41 170 c 0
 41 265 110 345 197 345 c 0
 280 345 346 273 353 185 c 2
 354 169 l 1
EndSplineSet
EndChar
StartChar: ecircumflex
Encoding: 234 234 198
Width: 395
Flags: W
HStem: -5 31<107.6 253.2> 169 30<74 321> 315 30<120.3 275>
VStem: 41 29<63.7 170>
Fore
185 489 m 1
 207 489 l 1
 288 400 l 1
 247 400 l 1
 196 455 l 1
 145 400 l 1
 104 400 l 1
 185 489 l 1
74 199 m 1
 321 199 l 1
 309 266 257 315 197 315 c 0
 138 315 86 266 74 199 c 1
354 169 m 1
 70 169 l 1
 70 88 128 26 196 26 c 0
 240 26 279 52 302 93 c 1
 328 78 l 1
 301 29 252 -5 196 -5 c 0
 109 -5 41 75 41 170 c 0
 41 265 110 345 197 345 c 0
 280 345 346 273 353 185 c 2
 354 169 l 1
EndSplineSet
EndChar
StartChar: edieresis
Encoding: 235 235 199
Width: 395
Flags: W
HStem: -5 31<107.6 253.2> 169 30<74 321> 315 30<120.3 275> 400 56<112.5 151.5 232.5 271.5>
VStem: 41 29<63.7 170> 104 56<408.5 447.5> 224 56<408.5 447.5>
Fore
104 428 m 0
 104 443 117 456 132 456 c 0
 147 456 160 443 160 428 c 0
 160 413 147 400 132 400 c 0
 117 400 104 413 104 428 c 0
224 428 m 0
 224 443 237 456 252 456 c 0
 267 456 280 443 280 428 c 0
 280 413 267 400 252 400 c 0
 237 400 224 413 224 428 c 0
74 199 m 1
 321 199 l 1
 309 266 257 315 197 315 c 0
 138 315 86 266 74 199 c 1
354 169 m 1
 70 169 l 1
 70 88 128 26 196 26 c 0
 240 26 279 52 302 93 c 1
 328 78 l 1
 301 29 252 -5 196 -5 c 0
 109 -5 41 75 41 170 c 0
 41 265 110 345 197 345 c 0
 280 345 346 273 353 185 c 2
 354 169 l 1
EndSplineSet
EndChar
StartChar: egrave
Encoding: 232 232 200
Width: 395
Flags: W
HStem: -5 31<107.6 253.2> 169 30<74 321> 315 30<120.3 275>
VStem: 41 29<63.7 170>
Fore
75 489 m 1
 132 489 l 1
 207 400 l 1
 176 400 l 1
 75 489 l 1
74 199 m 1
 321 199 l 1
 309 266 257 315 197 315 c 0
 138 315 86 266 74 199 c 1
354 169 m 1
 70 169 l 1
 70 88 128 26 196 26 c 0
 240 26 279 52 302 93 c 1
 328 78 l 1
 301 29 252 -5 196 -5 c 0
 109 -5 41 75 41 170 c 0
 41 265 110 345 197 345 c 0
 280 345 346 273 353 185 c 2
 354 169 l 1
EndSplineSet
EndChar
StartChar: iacute
Encoding: 237 237 201
Width: 142
Flags: W
HStem: 0 21G<56 86> 320 20G<56 86>
VStem: 56 30<0 340>
Fore
110 489 m 1
 166 489 l 1
 65 400 l 1
 34 400 l 1
 110 489 l 1
86 0 m 1
 56 0 l 1
 56 340 l 1
 86 340 l 1
 86 0 l 1
EndSplineSet
EndChar
StartChar: icircumflex
Encoding: 238 238 202
Width: 142
Flags: W
HStem: 0 21G<56 86> 320 20G<56 86>
VStem: 56 30<0 340>
Fore
86 0 m 1
 56 0 l 1
 56 340 l 1
 86 340 l 1
 86 0 l 1
60 489 m 1
 82 489 l 1
 163 400 l 1
 122 400 l 1
 71 455 l 1
 20 400 l 1
 -21 400 l 1
 60 489 l 1
EndSplineSet
EndChar
StartChar: idieresis
Encoding: 239 239 203
Width: 142
Flags: W
HStem: 0 21G<56 86> 320 20G<56 86> 400 56<-9.5 29.5 110.5 149.5>
VStem: -18 56<408.5 447.5> 56 30<0 340> 102 56<408.5 447.5>
Fore
-18 428 m 0
 -18 443 -5 456 10 456 c 0
 25 456 38 443 38 428 c 0
 38 413 25 400 10 400 c 0
 -5 400 -18 413 -18 428 c 0
102 428 m 0
 102 443 115 456 130 456 c 0
 145 456 158 443 158 428 c 0
 158 413 145 400 130 400 c 0
 115 400 102 413 102 428 c 0
86 0 m 1
 56 0 l 1
 56 340 l 1
 86 340 l 1
 86 0 l 1
EndSplineSet
EndChar
StartChar: igrave
Encoding: 236 236 204
Width: 142
Flags: W
HStem: 0 21G<56 86> 320 20G<56 86>
VStem: 56 30<0 340>
Fore
-33 489 m 1
 24 489 l 1
 99 400 l 1
 68 400 l 1
 -33 489 l 1
86 0 m 1
 56 0 l 1
 56 340 l 1
 86 340 l 1
 86 0 l 1
EndSplineSet
EndChar
StartChar: ntilde
Encoding: 241 241 205
Width: 360
Flags: W
HStem: 0 21G<56 86 274 304> 315 30<146.4 276.7> 394 31<208.433 232.847> 431 29<126.471 153.636>
VStem: 56 30<0 236.3 244 334.438> 94 20<400 428.125> 245 19<428.377 456> 274 30<0 267.2>
Fore
245 456 m 1
 264 453 l 1
 264 442 263 433 261 425 c 0
 253 394 232 394 224 394 c 0
 205 394 184 407 173 415 c 0
 157 426 145 431 137 431 c 0
 129 431 115 426 114 400 c 1
 94 400 l 1
 94 409 94 417 97 428 c 0
 104 452 121 460 137 460 c 0
 158 460 180 446 189 440 c 0
 205 430 217 425 224 425 c 0
 231 425 245 432 245 456 c 1
48 340 m 1
 80 340 l 1
 84 327 86 312 86 295 c 2
 86 244 l 1
 110 298 159 345 201 345 c 0
 272 345 304 282 304 210 c 2
 304 0 l 1
 274 0 l 1
 274 210 l 2
 274 254 259 315 200 315 c 0
 145 315 86 221 86 170 c 2
 86 0 l 1
 56 0 l 1
 56 295 l 2
 56 315 53 330 48 340 c 1
EndSplineSet
EndChar
StartChar: oacute
Encoding: 243 243 206
Width: 430
Flags: W
HStem: -5 30<112 320> 315 30<112 320>
VStem: 41 30<66 274> 361 28<66 274>
Fore
252 489 m 1
 309 489 l 1
 208 400 l 1
 177 400 l 1
 252 489 l 1
215 345 m 0
 311 345 389 267 389 170 c 0
 389 73 311 -5 215 -5 c 0
 119 -5 41 73 41 170 c 0
 41 267 119 345 215 345 c 0
71 170 m 0
 71 90 136 25 216 25 c 0
 296 25 361 90 361 170 c 0
 361 250 296 315 216 315 c 0
 136 315 71 250 71 170 c 0
EndSplineSet
EndChar
StartChar: ocircumflex
Encoding: 244 244 207
Width: 430
Flags: W
HStem: -5 30<112 320> 315 30<112 320>
VStem: 41 30<66 274> 361 28<66 274>
Fore
203 489 m 1
 225 489 l 1
 306 400 l 1
 265 400 l 1
 214 455 l 1
 163 400 l 1
 122 400 l 1
 203 489 l 1
215 345 m 0
 311 345 389 267 389 170 c 0
 389 73 311 -5 215 -5 c 0
 119 -5 41 73 41 170 c 0
 41 267 119 345 215 345 c 0
71 170 m 0
 71 90 136 25 216 25 c 0
 296 25 361 90 361 170 c 0
 361 250 296 315 216 315 c 0
 136 315 71 250 71 170 c 0
EndSplineSet
EndChar
StartChar: odieresis
Encoding: 246 246 208
Width: 430
Flags: W
HStem: -5 30<112 320> 315 30<112 320> 400 56<134.5 173.5 254.5 293.5>
VStem: 41 30<66 274> 126 56<408.5 447.5> 246 56<408.5 447.5> 361 28<66 274>
Fore
126 428 m 0
 126 443 139 456 154 456 c 0
 169 456 182 443 182 428 c 0
 182 413 169 400 154 400 c 0
 139 400 126 413 126 428 c 0
246 428 m 0
 246 443 259 456 274 456 c 0
 289 456 302 443 302 428 c 0
 302 413 289 400 274 400 c 0
 259 400 246 413 246 428 c 0
215 345 m 0
 311 345 389 267 389 170 c 0
 389 73 311 -5 215 -5 c 0
 119 -5 41 73 41 170 c 0
 41 267 119 345 215 345 c 0
71 170 m 0
 71 90 136 25 216 25 c 0
 296 25 361 90 361 170 c 0
 361 250 296 315 216 315 c 0
 136 315 71 250 71 170 c 0
EndSplineSet
EndChar
StartChar: ograve
Encoding: 242 242 209
Width: 430
Flags: W
HStem: -5 30<112 320> 315 30<112 320>
VStem: 41 30<66 274> 361 28<66 274>
Fore
119 489 m 1
 176 489 l 1
 251 400 l 1
 220 400 l 1
 119 489 l 1
215 345 m 0
 311 345 389 267 389 170 c 0
 389 73 311 -5 215 -5 c 0
 119 -5 41 73 41 170 c 0
 41 267 119 345 215 345 c 0
71 170 m 0
 71 90 136 25 216 25 c 0
 296 25 361 90 361 170 c 0
 361 250 296 315 216 315 c 0
 136 315 71 250 71 170 c 0
EndSplineSet
EndChar
StartChar: otilde
Encoding: 245 245 210
Width: 430
Flags: W
HStem: -5 30<112 320> 315 30<112 320> 394 31<241.433 265.847> 431 29<159.471 186.636>
VStem: 41 30<66 274> 127 20<400 428.125> 278 19<428.377 456> 361 28<66 274>
Fore
278 456 m 1
 297 453 l 1
 297 442 296 433 294 425 c 0
 286 394 265 394 257 394 c 0
 238 394 217 407 206 415 c 0
 190 426 178 431 170 431 c 0
 162 431 148 426 147 400 c 1
 127 400 l 1
 127 409 127 417 130 428 c 0
 137 452 154 460 170 460 c 0
 191 460 213 446 222 440 c 0
 238 430 250 425 257 425 c 0
 264 425 278 432 278 456 c 1
215 345 m 0
 311 345 389 267 389 170 c 0
 389 73 311 -5 215 -5 c 0
 119 -5 41 73 41 170 c 0
 41 267 119 345 215 345 c 0
71 170 m 0
 71 90 136 25 216 25 c 0
 296 25 361 90 361 170 c 0
 361 250 296 315 216 315 c 0
 136 315 71 250 71 170 c 0
EndSplineSet
EndChar
StartChar: scaron
Encoding: 353 353 211
Width: 266
Flags: W
HStem: -6 30<86.2 185> 316 30<97.6 165.2>
VStem: 24 30<26.0505 97> 50 30<169.4 307.2> 213 29<39.2 214.7>
Fore
145 370 m 1xc8
 123 370 l 1
 42 459 l 1
 83 459 l 1
 134 404 l 1
 185 459 l 1
 226 459 l 1
 145 370 l 1xc8
222 280 m 1
 194 271 l 1
 183 302 158 316 134 316 c 0
 106 316 80 297 80 263 c 0xd8
 80 191 242 211 242 98 c 0
 242 33 187 -6 132 -6 c 0
 83 -6 34 25 24 97 c 1
 54 101 l 1xe8
 61 47 97 24 133 24 c 0
 173 24 213 53 213 99 c 0
 213 188 50 164 50 264 c 0xd8
 50 317 91 346 134 346 c 0
 170 346 207 325 222 280 c 1
EndSplineSet
EndChar
StartChar: uacute
Encoding: 250 250 212
Width: 358
Flags: W
HStem: -5 30<111.7 244.3> 320 20G<56 86 272 302>
VStem: 56 30<71 340> 272 30<53.3 340>
Fore
225 489 m 1
 282 489 l 1
 181 400 l 1
 150 400 l 1
 225 489 l 1
56 340 m 1
 86 340 l 1
 86 130 l 2
 86 71 127 25 178 25 c 0
 229 25 272 71 272 130 c 2
 272 340 l 1
 302 340 l 1
 302 130 l 2
 302 56 248 -5 179 -5 c 0
 110 -5 56 56 56 130 c 2
 56 340 l 1
EndSplineSet
EndChar
StartChar: ucircumflex
Encoding: 251 251 213
Width: 358
Flags: W
HStem: -5 30<111.7 244.3> 320 20G<56 86 272 302>
VStem: 56 30<71 340> 272 30<53.3 340>
Fore
168 489 m 1
 190 489 l 1
 271 400 l 1
 230 400 l 1
 179 455 l 1
 128 400 l 1
 87 400 l 1
 168 489 l 1
56 340 m 1
 86 340 l 1
 86 130 l 2
 86 71 127 25 178 25 c 0
 229 25 272 71 272 130 c 2
 272 340 l 1
 302 340 l 1
 302 130 l 2
 302 56 248 -5 179 -5 c 0
 110 -5 56 56 56 130 c 2
 56 340 l 1
EndSplineSet
EndChar
StartChar: udieresis
Encoding: 252 252 214
Width: 358
Flags: W
HStem: -5 30<111.7 244.3> 320 20G<56 86 272 302> 400 56<101.5 140.5 221.5 260.5>
VStem: 56 30<71 340> 93 56<408.5 447.5> 213 56<408.5 447.5> 272 30<53.3 340>
Fore
93 428 m 0
 93 443 106 456 121 456 c 0
 136 456 149 443 149 428 c 0
 149 413 136 400 121 400 c 0
 106 400 93 413 93 428 c 0
213 428 m 0
 213 443 226 456 241 456 c 0
 256 456 269 443 269 428 c 0
 269 413 256 400 241 400 c 0
 226 400 213 413 213 428 c 0
56 340 m 1
 86 340 l 1
 86 130 l 2
 86 71 127 25 178 25 c 0
 229 25 272 71 272 130 c 2
 272 340 l 1
 302 340 l 1
 302 130 l 2
 302 56 248 -5 179 -5 c 0
 110 -5 56 56 56 130 c 2
 56 340 l 1
EndSplineSet
EndChar
StartChar: ugrave
Encoding: 249 249 215
Width: 358
Flags: W
HStem: -5 30<111.7 244.3> 320 20G<56 86 272 302>
VStem: 56 30<71 340> 272 30<53.3 340>
Fore
79 489 m 1
 136 489 l 1
 211 400 l 1
 180 400 l 1
 79 489 l 1
56 340 m 1
 86 340 l 1
 86 130 l 2
 86 71 127 25 178 25 c 0
 229 25 272 71 272 130 c 2
 272 340 l 1
 302 340 l 1
 302 130 l 2
 302 56 248 -5 179 -5 c 0
 110 -5 56 56 56 130 c 2
 56 340 l 1
EndSplineSet
EndChar
StartChar: yacute
Encoding: 253 253 216
Width: 319
Flags: W
HStem: 320 20G<12 44 275 307>
VStem: 12 295<340 340>
Fore
205 489 m 1
 262 489 l 1
 161 400 l 1
 130 400 l 1
 205 489 l 1
112 -175 m 1
 79 -175 l 1
 145 -1 l 1
 12 340 l 1
 44 340 l 1
 161 40 l 1
 275 340 l 1
 307 340 l 1
 112 -175 l 1
EndSplineSet
EndChar
StartChar: ydieresis
Encoding: 255 255 217
Width: 318
Flags: W
HStem: 320 20G<12 43 274 306> 405 56<81.5 120.5 201.5 240.5>
VStem: 73 56<413.5 452.5> 193 56<413.5 452.5>
Fore
73 433 m 0
 73 448 86 461 101 461 c 0
 116 461 129 448 129 433 c 0
 129 418 116 405 101 405 c 0
 86 405 73 418 73 433 c 0
193 433 m 0
 193 448 206 461 221 461 c 0
 236 461 249 448 249 433 c 0
 249 418 236 405 221 405 c 0
 206 405 193 418 193 433 c 0
12 340 m 1
 43 340 l 1
 160 40 l 1
 274 340 l 1
 306 340 l 1
 111 -175 l 1
 79 -175 l 1
 145 -1 l 1
 12 340 l 1
EndSplineSet
EndChar
StartChar: zcaron
Encoding: 382 382 218
Width: 298
Flags: W
HStem: 0 30<69 275> 310 30<53 230>
VStem: 12 274<0 340>
Fore
170 370 m 1
 148 370 l 1
 67 459 l 1
 108 459 l 1
 159 404 l 1
 210 459 l 1
 251 459 l 1
 170 370 l 1
53 340 m 1
 286 340 l 1
 69 30 l 1
 285 30 l 1
 275 0 l 1
 12 0 l 1
 230 310 l 1
 43 310 l 1
 53 340 l 1
EndSplineSet
EndChar
StartChar: uni00AD
Encoding: 173 173 220
Width: 348
Flags: W
HStem: 155 30<41 307>
Fore
307 185 m 1
 307 155 l 1
 41 155 l 1
 41 185 l 1
 307 185 l 1
EndSplineSet
EndChar
StartChar: uni00B2
Encoding: 178 178 221
Width: 297
Flags: W
HStem: 310 30<75 248> 618 30<106.9 203.1>
VStem: 56 30<539 597.5> 224 32<431.1 597.5>
Fore
248 310 m 1
 41 309 l 1
 41 324 l 2
 41 438 224 456 224 539 c 0
 224 584 192 618 155 618 c 0
 118 618 86 584 86 539 c 1
 56 539 l 1
 56 598 100 648 156 648 c 0
 212 648 256 599 256 540 c 0
 256 440 93 420 75 340 c 1
 248 340 l 1
 248 310 l 1
EndSplineSet
EndChar
StartChar: uni00B3
Encoding: 179 179 222
Width: 292
Flags: W
HStem: 305 29<92.4 201.6> 486 30<147 186> 617 30<108 186>
VStem: 41 30<355.4 410> 63 30<564 601.7> 201 28<528.9 601.7> 223 28<355.4 460.7>
Fore
93 564 m 1xec
 63 564 l 1
 63 610 100 647 146 647 c 0
 192 647 229 610 229 564 c 0xec
 229 537 216 515 197 501 c 1
 229 483 251 449 251 410 c 0
 251 352 204 305 146 305 c 0
 88 305 41 352 41 410 c 1
 71 410 l 1
 71 368 105 334 147 334 c 0
 189 334 223 368 223 410 c 0xf2
 223 452 189 486 147 486 c 1
 147 516 l 1
 177 516 201 535 201 564 c 0
 201 593 177 617 147 617 c 0
 117 617 93 593 93 564 c 1xec
EndSplineSet
EndChar
StartChar: uni00B5
Encoding: 181 181 223
Width: 358
Flags: W
HStem: -3 30<129.6 244.3> 320 20G<56 86 272 302>
VStem: 56 30<-128.385 43 73 340> 272 30<55.3 340>
Fore
56 340 m 1
 86 340 l 1
 86 132 l 2
 86 73 127 27 178 27 c 0
 229 27 272 73 272 132 c 2
 272 340 l 1
 302 340 l 1
 302 132 l 2
 302 58 248 -3 179 -3 c 0
 141 -3 108 15 86 43 c 1
 86 -102 l 2
 86 -122 91 -141 99 -157 c 1
 73 -171 l 1
 62 -151 56 -128 56 -103 c 2
 56 340 l 1
EndSplineSet
EndChar
StartChar: uni00B9
Encoding: 185 185 224
Width: 263
Flags: W
HStem: 310 336<140 169>
VStem: 140 29<310 589>
Fore
140 310 m 1
 140 589 l 1
 100 562 l 1
 83 587 l 1
 169 646 l 1
 169 310 l 1
 140 310 l 1
EndSplineSet
EndChar
StartChar: uni0E01
Encoding: 3585 3585 225
Width: 396
Flags: W
HStem: 0 21G<56 86 310 340> 375 30<128.6 269>
VStem: 56 30<0 222.7> 310 30<0 353.5>
Fore
73 288 m 1
 129 256 l 1
 101 242 86 225 86 185 c 2
 86 0 l 1
 56 0 l 1
 56 185 l 2
 56 214 76 240 95 254 c 1
 43 282 l 1
 65 375 141 405 191 405 c 0
 273 405 340 338 340 256 c 2
 340 0 l 1
 310 0 l 1
 310 256 l 2
 310 331 251 375 191 375 c 0
 143 375 91 348 73 288 c 1
EndSplineSet
EndChar
StartChar: uni0E02
Encoding: 3586 3586 226
Width: 410
Flags: W
HStem: -5 30<119.2 290.8> 225 30<86 150> 370 30<131 175>
VStem: 56 30<78 225> 175 30<261.8 370> 324 30<58.2 400>
Fore
121 370 m 1
 131 400 l 1
 205 400 l 1
 205 280 l 2
 205 250 180 225 150 225 c 2
 86 225 l 1
 86 144 l 2
 86 78 139 25 205 25 c 0
 271 25 324 78 324 144 c 2
 324 400 l 1
 354 400 l 1
 354 144 l 2
 354 62 287 -5 205 -5 c 0
 123 -5 56 62 56 144 c 2
 56 255 l 1
 150 255 l 2
 164 255 175 266 175 280 c 2
 175 370 l 1
 121 370 l 1
EndSplineSet
EndChar
StartChar: uni0E03
Encoding: 3587 3587 227
Width: 410
Flags: W
HStem: -5 30<119.603 290.396> 225 30<86 150>
VStem: 56 30<78.3105 225> 175 30<262.068 352.329> 324 30<58.6025 400>
Fore
65.749 378.869 m 1
 80.251 405.131 l 1
 96.5352 396.139 119.225 376.898 135.558 352.165 c 1
 176.044 400 l 1
 205 400 l 1
 205 280 l 2
 205 249.634 180.359 225 150 225 c 2
 86 225 l 1
 86 144 l 2
 86 78.3105 139.31 25 205 25 c 0
 270.689 25 324 78.3096 324 144 c 2
 324 400 l 1
 354 400 l 1
 354 144 l 2
 354 61.7549 287.246 -5 205 -5 c 0
 122.755 -5 56 61.7539 56 144 c 2
 56 255 l 1
 150 255 l 2
 163.801 255 175 266.206 175 280 c 2
 175 352.329 l 1
 129.06 298.05 l 1
 122.785 312.043 106.08 356.598 65.749 378.869 c 1
EndSplineSet
EndChar
StartChar: uni0E04
Encoding: 3588 3588 228
Width: 410
Flags: W
HStem: 0 21G<56 86 324 354> 185 30<86 195> 375 30<119.2 290.8>
VStem: 56 30<0 185 215 341.8> 324 30<0 341.8>
Fore
205 215 m 1
 195 185 l 1
 86 185 l 1
 86 0 l 1
 56 0 l 1
 56 256 l 2
 56 338 123 405 205 405 c 0
 287 405 354 338 354 256 c 2
 354 0 l 1
 324 0 l 1
 324 256 l 2
 324 322 271 375 205 375 c 0
 139 375 86 322 86 256 c 2
 86 215 l 1
 205 215 l 1
EndSplineSet
EndChar
StartChar: uni0E05
Encoding: 3589 3589 229
Width: 410
Flags: W
HStem: 0 21G<56 86 324 354> 185 30<86 195> 312 30<184.5 219.874>
VStem: 56 30<0 185 215 322.7> 324 30<0 322.7>
Fore
205 215 m 1
 195 185 l 1
 86 185 l 1
 86 0 l 1
 56 0 l 1
 56 272 l 2
 56 325 78 371 121 399 c 2
 133 407 l 1
 141 395 l 2
 169 354 189 342 204 342 c 0
 215 343 239 349 269 394 c 2
 277 406 l 1
 289 399 l 2
 333 373 353 323 354 272 c 2
 354 0 l 1
 324 0 l 1
 324 272 l 2
 324 311 310 344 284 365 c 1
 262 336 236 312 205 312 c 0
 174 312 148 336 126 365 c 1
 100 344 86 311 86 272 c 2
 86 215 l 1
 205 215 l 1
EndSplineSet
EndChar
StartChar: uni0E06
Encoding: 3590 3590 230
Width: 410
Flags: W
HStem: -5 30<163.5 327.3> 225 30<86 150>
VStem: 56 30<0 112 118 225> 175 30<262.068 352.329> 324 30<72.5 400>
Fore
86 225 m 1
 86 186 l 2
 86 118 172 25 235 25 c 0
 306 25 324 89 324 144 c 2
 324 400 l 1
 354 400 l 1
 354 144 l 2
 354 63 319 -5 235 -5 c 0
 180 -5 121 51 86 112 c 1
 86 0 l 1
 56 0 l 1
 56 255 l 1
 150 255 l 2
 163.801 255 175 266.206 175 280 c 2
 175 352.329 l 1
 129.06 298.05 l 1
 122.785 312.043 106.08 356.598 65.749 378.869 c 1
 80.251 405.131 l 1
 96.5352 396.139 119.225 376.898 135.558 352.165 c 1
 176.044 400 l 1
 205 400 l 1
 205 280 l 2
 205 249.634 180.359 225 150 225 c 2
 86 225 l 1
EndSplineSet
EndChar
StartChar: uni0E07
Encoding: 3591 3591 231
Width: 410
Flags: W
HStem: -5 30<119.2 290.8> 370 30<205 290.8>
VStem: 56 30<58.2 280> 324 30<58.2 317>
Fore
86 290 m 1
 86 144 l 2
 86 78 139 25 205 25 c 0
 271 25 324 78 324 144 c 2
 324 251 l 2
 324 317 271 370 205 370 c 1
 205 400 l 1
 287 400 354 333 354 251 c 2
 354 144 l 2
 354 62 287 -5 205 -5 c 0
 123 -5 56 62 56 144 c 2
 56 280 l 1
 86 290 l 1
EndSplineSet
EndChar
StartChar: uni0E08
Encoding: 3592 3592 232
Width: 380
Flags: W
HStem: 0 21G<294 324> 185 30<185 294> 375 30<89.2 260.8>
VStem: 26 30<256 341.8> 294 30<0 185 215 322>
Fore
175 185 m 1
 185 215 l 1
 294 215 l 1
 294 256 l 2
 294 322 241 375 175 375 c 0
 109 375 56 322 56 256 c 1
 26 256 l 1
 26 338 93 405 175 405 c 0
 257 405 324 338 324 256 c 2
 324 0 l 1
 294 0 l 1
 294 185 l 1
 175 185 l 1
EndSplineSet
EndChar
StartChar: uni0E09
Encoding: 3593 3593 233
Width: 380
Flags: W
HStem: -3 30<93.9 224.9> 178 30<21 47> 375 30<89.2 260.8>
VStem: 26 30<256 341.8> 47 30<47.2 178>
Fore
294 0 m 1xf0
 294 107 l 1
 262 48 209 -3 156 -3 c 0
 69 -3 48 70 47 146 c 2
 47 178 l 1
 11 178 l 1
 21 208 l 1
 77 208 l 1
 77 146 l 2xe8
 78 54 108 27 155 27 c 0
 220 27 294 120 294 186 c 2
 294 256 l 2
 294 322 241 375 175 375 c 0
 109 375 56 322 56 256 c 1
 26 256 l 1
 26 338 93 405 175 405 c 0
 257 405 324 338 324 256 c 2
 324 0 l 1
 294 0 l 1xf0
EndSplineSet
EndChar
StartChar: uni0E0A
Encoding: 3594 3594 234
Width: 410
Flags: W
HStem: -5 30<119.2 290.8> 225 30<86 150> 292 30<205 305> 370 30<131 175>
VStem: 56 30<58.2 225> 175 30<261.8 292 322 370> 324 30<78 269.2 342.8 400>
Fore
56 144 m 2
 56 255 l 1
 150 255 l 2
 164 255 175 266 175 280 c 2
 175 370 l 1
 121 370 l 1
 131 400 l 1
 205 400 l 1
 205 322 l 1
 269 322 l 2
 305 322 324 351 324 387 c 2
 324 400 l 1
 354 400 l 1
 354 387 l 2
 354 353 337 323 311 306 c 1
 337 289 354 259 354 225 c 2
 354 144 l 2
 354 62 287 -5 205 -5 c 0
 123 -5 56 62 56 144 c 2
269 292 m 2
 205 292 l 1
 205 280 l 2
 205 250 180 225 150 225 c 2
 86 225 l 1
 86 144 l 2
 86 78 139 25 205 25 c 0
 271 25 324 78 324 144 c 2
 324 225 l 2
 324 261 305 292 269 292 c 2
EndSplineSet
EndChar
StartChar: uni0E0B
Encoding: 3595 3595 235
Width: 410
Flags: W
HStem: -5 30<119.2 290.8> 225 30<86 150> 292 30<205 305>
VStem: 56 30<58.2 225> 175 30<266.206 292 322 352.329> 324 30<78 269.2 342.8 400>
Fore
205 322 m 1
 269 322 l 2
 305 322 324 351 324 387 c 2
 324 400 l 1
 354 400 l 1
 354 387 l 2
 354 353 337 323 311 306 c 1
 337 289 354 259 354 225 c 2
 354 144 l 2
 354 62 287 -5 205 -5 c 0
 123 -5 56 62 56 144 c 2
 56 255 l 1
 150 255 l 2
 163.801 255 175 266.206 175 280 c 2
 175 352.329 l 1
 129.06 298.05 l 1
 122.785 312.043 106.08 356.598 65.749 378.869 c 1
 80.251 405.131 l 1
 96.5352 396.139 119.225 376.898 135.558 352.165 c 1
 176.044 400 l 1
 205 400 l 1
 205 322 l 1
86 225 m 1
 86 144 l 2
 86 78 139 25 205 25 c 0
 271 25 324 78 324 144 c 2
 324 225 l 2
 324 261 305 292 269 292 c 2
 205 292 l 1
 205 280 l 2
 205 249.634 180.359 225 150 225 c 2
 86 225 l 1
EndSplineSet
EndChar
StartChar: uni0E0C
Encoding: 3596 3596 236
Width: 633
Flags: W
HStem: -6 30<400.4 529.1> 0 30<86 116> 375 30<128.6 269>
VStem: 56 30<30 222.7> 310 30<0 99 115 353.5> 547 30<24.7 400>
Fore
126 30 m 1x7c
 116 0 l 1
 56 0 l 1x7c
 56 185 l 2
 56 214 76 240 95 254 c 1
 43 282 l 1
 65 375 141 405 191 405 c 0
 273 405 340 338 340 256 c 2
 340 185 l 2
 340 115 406 24 468 24 c 0
 515 24 547 52 547 143 c 2
 547 400 l 1
 577 400 l 1
 577 143 l 2
 577 35 533 -6 468 -6 c 0xbc
 416 -6 369 43 340 99 c 1
 340 0 l 1
 310 0 l 1
 310 256 l 2
 310 331 251 375 191 375 c 0
 143 375 91 348 73 288 c 1
 129 256 l 1
 101 242 86 225 86 185 c 2
 86 30 l 1
 126 30 l 1x7c
EndSplineSet
EndChar
StartChar: uni0E0D
Encoding: 3597 3597 237
Width: 633
Flags: W
HStem: -115 29<404.7 519.1> -5 30<370.9 500.9> 0 30<86 116> 375 30<128.6 269>
VStem: 56 30<30 222.7> 310 30<77 353.5> 549 28<-54.1 49 56.9 400>
Fore
126 30 m 1xbe
 116 0 l 1
 56 0 l 1xbe
 56 185 l 2
 56 214 76 240 95 254 c 1
 43 282 l 1
 65 375 141 405 191 405 c 0
 273 405 340 338 340 256 c 2
 340 144 l 2
 340 77 388 25 445 25 c 0
 502 25 549 77 549 144 c 2
 549 400 l 1
 577 400 l 1
 577 34 l 2
 577 -47 521 -115 445 -115 c 0
 402 -115 365 -94 341 -61 c 1
 367 -46 l 1
 386 -71 414 -86 445 -86 c 0
 502 -86 549 -34 549 33 c 2
 549 49 l 1
 525 16 488 -5 445 -5 c 0xde
 369 -5 310 62 310 143 c 2
 310 256 l 2
 310 331 251 375 191 375 c 0
 143 375 91 348 73 288 c 1
 129 256 l 1
 101 242 86 225 86 185 c 2
 86 30 l 1
 126 30 l 1xbe
EndSplineSet
Substitution2: "Single Substitution lookup 45" uniF70F
EndChar
StartChar: uni0E0E
Encoding: 3598 3598 238
Width: 396
Flags: W
HStem: -141 30<14 126 304 310> 0 30<31 56> 375 30<128.6 269>
VStem: 56 30<30 214> 310 30<-111 353.5>
Fore
21 0 m 1
 31 30 l 1
 56 30 l 1
 56 185 l 2
 56 214 76 240 95 254 c 1
 43 282 l 1
 65 375 141 405 191 405 c 0
 273 405 340 338 340 256 c 2
 340 -141 l 1
 296 -141 l 1
 213 -86 l 1
 136 -141 l 1
 4 -141 l 1
 14 -111 l 1
 126 -111 l 1
 211 -50 l 1
 304 -111 l 1
 310 -111 l 1
 310 256 l 2
 310 331 251 375 191 375 c 0
 143 375 91 348 73 288 c 1
 129 256 l 1
 101 242 86 225 86 185 c 2
 86 0 l 1
 21 0 l 1
EndSplineSet
EndChar
StartChar: uni0E0F
Encoding: 3599 3599 239
Width: 396
Flags: W
HStem: -141 30<14 57 306 310> 0 30<31 56> 375 30<128.6 269>
VStem: 56 30<30 222.7> 310 30<-111 331>
Fore
57 -111 m 1
 114 -46 l 1
 180 -106 l 1
 242 -46 l 1
 306 -111 l 1
 310 -111 l 1
 310 256 l 2
 310 331 251 375 191 375 c 0
 143 375 91 348 73 288 c 1
 129 256 l 1
 101 242 86 225 86 185 c 2
 86 0 l 1
 21 0 l 1
 31 30 l 1
 56 30 l 1
 56 185 l 2
 56 214 76 240 95 254 c 1
 43 282 l 1
 65 375 141 405 191 405 c 0
 273 405 340 338 340 256 c 2
 340 -141 l 1
 294 -141 l 1
 242 -88 l 1
 182 -146 l 1
 118 -88 l 1
 71 -141 l 1
 4 -141 l 1
 14 -111 l 1
 57 -111 l 1
EndSplineSet
EndChar
StartChar: uni0E10
Encoding: 3600 3600 240
Width: 392
Flags: W
HStem: -141 30<10 53 302 306> 0 21G<306 336> 185 30<197 306> 375 30<101.2 229.9>
VStem: 38 30<256 341.8> 306 30<-111 -53 0 185 215 305.4>
Fore
306 -111 m 1
 306 -53 l 1
 283 -53 l 1
 293 -23 l 1
 336 -23 l 1
 336 -141 l 1
 290 -141 l 1
 238 -88 l 1
 178 -146 l 1
 114 -88 l 1
 67 -141 l 1
 0 -141 l 1
 10 -111 l 1
 53 -111 l 1
 110 -46 l 1
 176 -106 l 1
 238 -46 l 1
 302 -111 l 1
 306 -111 l 1
306 215 m 1
 306 256 l 2
 306 322 253 375 187 375 c 0
 121 375 68 322 68 256 c 1
 38 256 l 1
 38 338 105 405 187 405 c 0
 220 405 250 394 275 376 c 1
 313 401 l 1
 330 376 l 1
 298 355 l 1
 322 329 336 294 336 256 c 2
 336 0 l 1
 306 0 l 1
 306 185 l 1
 187 185 l 1
 197 215 l 1
 306 215 l 1
EndSplineSet
Substitution2: "Single Substitution lookup 45" uniF700
EndChar
StartChar: uni0E11
Encoding: 3601 3601 241
Width: 410
Flags: W
HStem: 0 21G<56 86 324 354> 376 30<238.279 348.224>
VStem: 56 30<0 176.471> 128 30<316.93 352.329> 324 30<0 373.256>
Fore
56 0 m 1
 56 186 l 2
 56 186.039 86.752 232.181 128 282.191 c 1
 128 352.329 l 1
 82.0605 298.051 l 1
 75.7852 312.043 59.0801 356.599 18.749 378.869 c 1
 33.251 405.131 l 1
 49.5352 396.139 72.2246 376.898 88.5576 352.165 c 1
 129.044 400 l 1
 158 400 l 1
 158 316.93 l 1
 200.889 364.135 249.061 406 285 406 c 0
 362.787 406 354 325.772 354 252 c 2
 354 0 l 1
 324 0 l 1
 324 252 l 2
 324 313.881 333.634 376 285 376 c 0
 243.473 376 142.096 259.965 86 176.471 c 1
 86 0 l 1
 56 0 l 1
EndSplineSet
EndChar
StartChar: uni0E12
Encoding: 3602 3602 242
Width: 653
Flags: W
HStem: -5 30<84.9 239.6 420.4 549.1> 213 30<141 169> 311 30<185.7 239>
VStem: 41 30<78.8 276.4> 237 30<74.2 180.8> 330 30<0 100 116 320.5> 567 30<25.7 400>
Fore
131 213 m 1
 141 243 l 1
 169 243 l 2
 234 243 267 183 267 121 c 0
 267 73 245 -5 159 -5 c 0
 82 -5 41 88 41 188 c 0
 41 269 74 358 138 406 c 1
 166 363 192 341 213 341 c 0
 233 341 257 362 286 405 c 1
 331 374 360 326 360 275 c 2
 360 186 l 2
 360 116 426 25 488 25 c 0
 535 25 567 53 567 144 c 2
 567 400 l 1
 597 400 l 1
 597 144 l 2
 597 36 553 -5 488 -5 c 0
 436 -5 389 44 360 100 c 1
 360 0 l 1
 330 0 l 1
 330 275 l 2
 330 310 317 341 292 363 c 1
 267 331 238 311 213 311 c 0
 186 311 158 330 133 363 c 1
 92 324 71 256 71 188 c 0
 71 104 102 25 159 25 c 0
 221 25 237 85 237 121 c 0
 237 167 214 213 169 213 c 2
 131 213 l 1
EndSplineSet
EndChar
StartChar: uni0E13
Encoding: 3603 3603 243
Width: 633
Flags: W
HStem: -6 30<356.9 486.6> 0 30<86 116> 375 30<128.6 269>
VStem: 56 30<30 222.7> 310 30<52 353.5> 547 30<0 400>
Fore
73 288 m 1xbc
 129 256 l 1
 101 242 86 225 86 185 c 2
 86 30 l 1
 126 30 l 1
 116 0 l 1
 56 0 l 1x7c
 56 185 l 2
 56 214 76 240 95 254 c 1
 43 282 l 1
 65 375 141 405 191 405 c 0
 273 405 340 338 340 256 c 2
 340 143 l 2
 340 52 371 24 418 24 c 0xbc
 480 24 547 115 547 185 c 2
 547 400 l 1
 577 400 l 1
 577 0 l 1
 547 0 l 1x7c
 547 99 l 1
 518 43 471 -6 419 -6 c 0
 354 -6 310 35 310 143 c 2
 310 256 l 2
 310 331 251 375 191 375 c 0
 143 375 91 348 73 288 c 1xbc
EndSplineSet
EndChar
StartChar: uni0E14
Encoding: 3604 3604 244
Width: 416
Flags: W
HStem: -5 30<86.2 226.6> 213 30<141 169> 375 30<84.2 294.8>
VStem: 41 30<73.6 302.4> 237 30<53.4 180.8> 330 30<0 341.8>
Fore
131 213 m 1
 141 243 l 1
 169 243 l 2
 234 243 267 183 267 121 c 0
 267 53 231 -5 159 -5 c 0
 83 -5 41 84 41 188 c 0
 41 290 93 405 209 405 c 0
 291 405 360 338 360 256 c 2
 360 0 l 1
 330 0 l 1
 330 256 l 2
 330 322 275 375 209 375 c 0
 113 375 71 276 71 188 c 0
 71 100 103 25 159 25 c 0
 211 25 237 69 237 121 c 0
 237 167 214 213 169 213 c 2
 131 213 l 1
EndSplineSet
EndChar
StartChar: uni0E15
Encoding: 3605 3605 245
Width: 416
Flags: W
HStem: -5 30<84.9 239.6> 213 30<141 169> 311 30<185.7 239>
VStem: 41 30<78.8 276.4> 237 30<74.2 180.8> 330 30<0 320.5>
Fore
131 213 m 1
 141 243 l 1
 169 243 l 2
 234 243 267 183 267 121 c 0
 267 73 245 -5 159 -5 c 0
 82 -5 41 88 41 188 c 0
 41 269 74 358 138 406 c 1
 166 363 192 341 213 341 c 0
 233 341 257 362 286 405 c 1
 331 374 360 326 360 275 c 2
 360 0 l 1
 330 0 l 1
 330 275 l 2
 330 310 317 341 292 363 c 1
 267 331 238 311 213 311 c 0
 186 311 158 330 133 363 c 1
 92 324 71 256 71 188 c 0
 71 104 102 25 159 25 c 0
 221 25 237 85 237 121 c 0
 237 167 214 213 169 213 c 2
 131 213 l 1
EndSplineSet
EndChar
StartChar: uni0E16
Encoding: 3606 3606 246
Width: 396
Flags: W
HStem: 0 30<86 116> 375 30<128.6 269>
VStem: 56 30<30 222.7> 310 30<0 353.5>
Fore
73 288 m 1
 129 256 l 1
 101 242 86 225 86 185 c 2
 86 30 l 1
 126 30 l 1
 116 0 l 1
 56 0 l 1
 56 185 l 2
 56 214 76 240 95 254 c 1
 43 282 l 1
 65 375 141 405 191 405 c 0
 273 405 340 338 340 256 c 2
 340 0 l 1
 310 0 l 1
 310 256 l 2
 310 331 251 375 191 375 c 0
 143 375 91 348 73 288 c 1
EndSplineSet
EndChar
StartChar: uni0E17
Encoding: 3607 3607 247
Width: 410
Flags: W
HStem: 0 21G<56 86 324 354> 375 30<163.5 327.3>
VStem: 56 30<0 282 288 400> 324 30<0 327.5>
Fore
56 0 m 1
 56 400 l 1
 86 400 l 1
 86 288 l 1
 121 349 180 405 235 405 c 0
 319 405 354 337 354 256 c 2
 354 0 l 1
 324 0 l 1
 324 256 l 2
 324 311 306 375 235 375 c 0
 172 375 86 282 86 214 c 2
 86 0 l 1
 56 0 l 1
EndSplineSet
EndChar
StartChar: uni0E18
Encoding: 3608 3608 248
Width: 410
Flags: W
HStem: 0 30<86 205> 185 30<86 324> 375 30<119.2 290.8>
VStem: 56 30<30 152 215 341.8> 324 30<63.2 185 256 341.8>
Fore
56 0 m 1
 56 152 l 1
 86 152 l 1
 86 30 l 1
 205 30 l 2
 271 30 324 83 324 149 c 2
 324 185 l 1
 56 185 l 1
 56 256 l 2
 56 338 123 405 205 405 c 0
 287 405 354 338 354 256 c 1
 324 256 l 1
 324 322 271 375 205 375 c 0
 139 375 86 322 86 256 c 2
 86 215 l 1
 354 215 l 1
 354 149 l 2
 354 67 287 0 205 0 c 2
 56 0 l 1
EndSplineSet
EndChar
StartChar: uni0E19
Encoding: 3609 3609 249
Width: 410
Flags: W
HStem: -3 30<82.7 245.2>
VStem: 56 30<91 400> 324 30<0 400>
Fore
56 400 m 1
 86 400 l 1
 86 146 l 2
 86 91 104 27 175 27 c 0
 240 27 324 120 324 186 c 2
 324 400 l 1
 354 400 l 1
 354 0 l 1
 324 0 l 1
 324 112 l 1
 289 51 229 -3 175 -3 c 0
 91 -3 56 65 56 146 c 2
 56 400 l 1
EndSplineSet
EndChar
StartChar: uni0E1A
Encoding: 3610 3610 250
Width: 410
Flags: W
HStem: -5 30<119.2 290.8>
VStem: 56 30<78 400> 324 30<58.2 400>
Fore
56 400 m 1
 86 400 l 1
 86 144 l 2
 86 78 139 25 205 25 c 0
 271 25 324 78 324 144 c 1
 324 400 l 1
 354 400 l 1
 354 144 l 2
 354 62 287 -5 205 -5 c 0
 123 -5 56 62 56 144 c 2
 56 400 l 1
EndSplineSet
EndChar
StartChar: uni0E1B
Encoding: 3611 3611 251
Width: 410
Flags: W
HStem: -5 30<119.2 290.8> 480 20G<324 354>
VStem: 56 30<78 400> 324 30<58.2 500>
Fore
56 400 m 1
 86 400 l 1
 86 144 l 2
 86 78 139 25 205 25 c 0
 271 25 324 78 324 144 c 2
 324 500 l 1
 354 500 l 1
 354 144 l 2
 354 62 287 -5 205 -5 c 0
 123 -5 56 62 56 144 c 2
 56 400 l 1
EndSplineSet
EndChar
StartChar: uni0E1C
Encoding: 3612 3612 252
Width: 440
Flags: W
HStem: -5 30<86.4 182.6 251.4 356.7> 371 30<86.4 141>
VStem: 41 30<77.1 318.9> 203 29<84.6352 400> 354 30<59.4 400>
Fore
203 400 m 1
 232 400 l 1
 232 114 l 2
 232 72 244 25 293 25 c 0
 342 25 354 72 354 114 c 2
 354 400 l 1
 384 400 l 1
 384 114 l 2
 384 31 343 -5 293 -5 c 0
 261 -5 233 20 217 52 c 1
 201 20 173 -5 141 -5 c 0
 81 -5 41 77 41 198 c 0
 41 318 81 401 141 401 c 1
 141 371 l 1
 99 371 71 291 71 198 c 0
 71 105 99 25 141 25 c 0
 195 25 203 86 203 114 c 2
 203 400 l 1
EndSplineSet
EndChar
StartChar: uni0E1D
Encoding: 3613 3613 253
Width: 440
Flags: W
HStem: -5 30<86.4 182.6 251.4 356.7> 371 30<86.4 141> 480 20G<354 384>
VStem: 41 30<77.1 318.9> 203 29<84.6352 400> 354 30<59.4 500>
Fore
203 400 m 1
 232 400 l 1
 232 114 l 2
 232 72 244 25 293 25 c 0
 342 25 354 72 354 114 c 2
 354 500 l 1
 384 500 l 1
 384 114 l 2
 384 31 343 -5 293 -5 c 0
 261 -5 233 20 217 52 c 1
 201 20 173 -5 141 -5 c 0
 81 -5 41 77 41 198 c 0
 41 318 81 401 141 401 c 1
 141 371 l 1
 99 371 71 291 71 198 c 0
 71 105 99 25 141 25 c 0
 195 25 203 86 203 114 c 2
 203 400 l 1
EndSplineSet
EndChar
StartChar: uni0E1E
Encoding: 3614 3614 254
Width: 458
Flags: W
HStem: -5 30<82.7 192.9 265.1 374.3>
VStem: 56 30<72 400> 214 30<72.4 400> 372 30<59.4 400>
CounterMasks: 1 00
Fore
56 400 m 1
 86 400 l 1
 86 114 l 2
 86 72 98 25 149 25 c 0
 204 25 214 82 214 114 c 2
 214 400 l 1
 244 400 l 1
 244 114 l 2
 244 72 257 25 308 25 c 0
 359 25 372 72 372 114 c 2
 372 400 l 1
 402 400 l 1
 402 114 l 2
 402 31 360 -5 308 -5 c 0
 275 -5 246 20 229 53 c 1
 212 20 183 -5 150 -5 c 0
 98 -5 56 31 56 114 c 2
 56 400 l 1
EndSplineSet
EndChar
StartChar: uni0E1F
Encoding: 3615 3615 255
Width: 458
Flags: W
HStem: -5 30<82.7 192.9 265.1 374.3> 480 20G<372 402>
VStem: 56 30<72 400> 214 30<72.4 400> 372 30<59.4 500>
CounterMasks: 1 00
Fore
56 400 m 1
 86 400 l 1
 86 114 l 2
 86 72 98 25 149 25 c 0
 204 25 214 82 214 114 c 2
 214 400 l 1
 244 400 l 1
 244 114 l 2
 244 72 257 25 308 25 c 0
 359 25 372 72 372 114 c 2
 372 500 l 1
 402 500 l 1
 402 114 l 2
 402 31 360 -5 308 -5 c 0
 275 -5 246 20 229 53 c 1
 212 20 183 -5 150 -5 c 0
 98 -5 56 31 56 114 c 2
 56 400 l 1
EndSplineSet
EndChar
StartChar: uni0E20
Encoding: 3616 3616 256
Width: 396
Flags: W
HStem: 0 30<31 56> 375 30<128.6 269>
VStem: 56 30<30 222.7> 310 30<0 353.5>
Fore
73 288 m 1
 129 256 l 1
 101 242 86 225 86 185 c 2
 86 0 l 1
 21 0 l 1
 31 30 l 1
 56 30 l 1
 56 185 l 2
 56 214 76 240 95 254 c 1
 43 282 l 1
 65 375 141 405 191 405 c 0
 273 405 340 338 340 256 c 2
 340 0 l 1
 310 0 l 1
 310 256 l 2
 310 331 251 375 191 375 c 0
 143 375 91 348 73 288 c 1
EndSplineSet
EndChar
StartChar: uni0E21
Encoding: 3617 3617 257
Width: 410
Flags: W
HStem: -5 30<163.5 327.3>
VStem: 56 30<0 112 118 400> 324 30<72.5 400>
Fore
56 400 m 1
 86 400 l 1
 86 186 l 2
 86 118 172 25 235 25 c 0
 306 25 324 89 324 144 c 2
 324 400 l 1
 354 400 l 1
 354 144 l 2
 354 63 319 -5 235 -5 c 0
 180 -5 121 51 86 112 c 1
 86 0 l 1
 56 0 l 1
 56 400 l 1
EndSplineSet
EndChar
StartChar: uni0E22
Encoding: 3618 3618 258
Width: 400
Flags: W
HStem: -5 30<107.6 281.8> 237 26<77 114> 371 30<115.7 195>
VStem: 41 31<49.5 201.6> 46 31<263 299.871> 315 29<69 400>
Fore
315 400 m 1xf4
 344 400 l 1
 344 134 l 2
 344 51 276 -5 195 -5 c 0
 114 -5 41 48 41 134 c 0xf4
 41 186 77 225 114 237 c 1
 46 237 l 1
 46 252 l 2
 46 334 113 401 195 401 c 1
 195 371 l 1
 134 371 84 326 77 267 c 2
 77 263 l 1xec
 205 263 l 1
 195 237 l 1
 128 237 72 196 72 134 c 0
 72 69 128 25 196 25 c 0
 262 25 315 69 315 134 c 2
 315 400 l 1xf4
EndSplineSet
EndChar
StartChar: uni0E23
Encoding: 3619 3619 259
Width: 410
Flags: W
HStem: -5 30<205 290.8> 185 30<86 324> 375 30<119.2 290.8>
VStem: 56 30<215 341.8> 324 30<58.2 185 256 341.8>
CounterMasks: 1 00
Fore
354 215 m 1
 354 144 l 2
 354 62 287 -5 205 -5 c 1
 205 25 l 1
 271 25 324 78 324 144 c 2
 324 185 l 1
 56 185 l 1
 56 256 l 2
 56 338 123 405 205 405 c 0
 287 405 354 338 354 256 c 1
 324 256 l 1
 324 322 271 375 205 375 c 0
 139 375 86 322 86 256 c 2
 86 215 l 1
 354 215 l 1
EndSplineSet
EndChar
StartChar: uni0E24
Encoding: 3620 3620 260
Width: 396
Flags: W
HStem: 0 30<86 116> 375 30<128.6 269>
VStem: 56 30<30 222.7> 310 30<-152 353.5>
Fore
73 288 m 1
 129 256 l 1
 101 242 86 225 86 185 c 2
 86 30 l 1
 126 30 l 1
 116 0 l 1
 56 0 l 1
 56 185 l 2
 56 214 76 240 95 254 c 1
 43 282 l 1
 65 375 141 405 191 405 c 0
 273 405 340 338 340 256 c 2
 340 -152 l 1
 310 -152 l 1
 310 256 l 2
 310 331 251 375 191 375 c 0
 143 375 91 348 73 288 c 1
EndSplineSet
EndChar
StartChar: uni0E25
Encoding: 3621 3621 261
Width: 410
Flags: W
HStem: -5 30<119.2 205> 185 30<86 324> 375 30<119.2 290.8>
VStem: 56 30<78 185 256 341.8> 324 30<0 185 215 322>
CounterMasks: 1 00
Fore
324 0 m 1
 324 185 l 1
 86 185 l 1
 86 144 l 2
 86 78 139 25 205 25 c 1
 205 -5 l 1
 123 -5 56 62 56 144 c 2
 56 215 l 1
 324 215 l 1
 324 256 l 2
 324 322 271 375 205 375 c 0
 139 375 86 322 86 256 c 1
 56 256 l 1
 56 338 123 405 205 405 c 0
 287 405 354 338 354 256 c 2
 354 0 l 1
 324 0 l 1
EndSplineSet
EndChar
StartChar: uni0E26
Encoding: 3622 3622 262
Width: 396
Flags: W
HStem: 0 30<31 56> 375 30<128.6 269>
VStem: 56 30<30 222.7> 310 30<-152 353.5>
Fore
73 288 m 1
 129 256 l 1
 101 242 86 225 86 185 c 2
 86 0 l 1
 21 0 l 1
 31 30 l 1
 56 30 l 1
 56 185 l 2
 56 214 76 240 95 254 c 1
 43 282 l 1
 65 375 141 405 191 405 c 0
 273 405 340 338 340 256 c 2
 340 -152 l 1
 310 -152 l 1
 310 256 l 2
 310 331 251 375 191 375 c 0
 143 375 91 348 73 288 c 1
EndSplineSet
EndChar
StartChar: uni0E27
Encoding: 3623 3623 263
Width: 407
Flags: W
HStem: -5 30<130.7 293.2> 375 30<128.1 293.2>
VStem: 336 30<72.3 329.7>
Fore
41 112 m 1
 70 124 l 1
 93 56 146 25 197 25 c 0
 271 25 336 102 336 201 c 0
 336 300 271 375 197 375 c 0
 144 375 96 336 73 277 c 1
 45 288 l 1
 71 356 128 405 197 405 c 0
 292 405 366 311 366 200 c 0
 366 89 292 -5 197 -5 c 0
 127 -5 66 39 41 112 c 1
EndSplineSet
EndChar
StartChar: uni0E28
Encoding: 3624 3624 264
Width: 410
Flags: W
HStem: 0 21G<56 86 324 354> 185 30<86 195> 376 30<119.2 250.5>
VStem: 56 30<0 185 215 341.8> 324 30<0 293>
Fore
324 0 m 1
 324 256 l 2
 324 322 271 376 205 376 c 0
 139 376 86 322 86 256 c 2
 86 215 l 1
 205 215 l 1
 195 185 l 1
 86 185 l 1
 86 0 l 1
 56 0 l 1
 56 257 l 2
 56 339 123 406 205 406 c 0
 240 406 272 394 297 374 c 1
 332.999 405 l 1
 353.999 384 l 1
 319 353 l 1
 341 327 354 293 354 256 c 2
 354 0 l 1
 324 0 l 1
EndSplineSet
EndChar
StartChar: uni0E29
Encoding: 3625 3625 265
Width: 409
Flags: W
HStem: -5 30<118.2 289.8> 224 30<217 323 354 378>
VStem: 56 30<78 400> 187 30<254 271> 323 31<58.2 224 254 400>
Fore
56 400 m 1
 86 400 l 1
 86 144 l 2
 86 78 138 25 204 25 c 0
 270 25 323 78 323 144 c 2
 323 224 l 1
 187 224 l 1
 187 271 l 1
 217 281 l 1
 217 254 l 1
 323 254 l 1
 323 400 l 1
 353 400 l 1
 353 254 l 1
 388 254 l 1
 378 224 l 1
 354 224 l 1
 354 144 l 2
 354 62 287 -5 205 -5 c 0
 123 -5 56 62 56 144 c 2
 56 400 l 1
EndSplineSet
EndChar
StartChar: uni0E2A
Encoding: 3626 3626 266
Width: 410
Flags: W
HStem: -5 30<119.2 205> 185 30<86 324> 375 31<119.2 250.5>
VStem: 56 30<78 185 257 342.8> 324 30<0 185 215 304.1>
Fore
86 257 m 1
 56 257 l 1
 56 339 123 406 205 406 c 0
 240 406 272 394 297 374 c 1
 332.999 405 l 1
 353.999 384 l 1
 319 353 l 1
 341 327 354 293 354 256 c 2
 354 0 l 1
 324 0 l 1
 324 185 l 1
 86 185 l 1
 86 144 l 2
 86 78 139 25 205 25 c 1
 205 -5 l 1
 123 -5 56 62 56 144 c 2
 56 215 l 1
 324 215 l 1
 324 256 l 2
 324 322 271 375 205 375 c 0
 139 375 86 323 86 257 c 1
EndSplineSet
EndChar
StartChar: uni0E2B
Encoding: 3627 3627 267
Width: 410
Flags: W
HStem: 0 21G<56 86 324 354> 318 23<234 323.7>
VStem: 324 30<0 263.5>
Fore
56 400 m 1
 86 400 l 1
 86 215 l 1
 125 303 245 387 307 401 c 1
 350 386 l 1
 311 379 273 360 247 341 c 1
 318 341 354 268 354 192 c 2
 354 0 l 1
 324 0 l 1
 324 192 l 2
 324 247 303 318 234 318 c 0
 182 318 87 197 86 132 c 2
 86 0 l 1
 56 0 l 1
 56 400 l 1
EndSplineSet
EndChar
StartChar: uni0E2C
Encoding: 3628 3628 268
Width: 458
Flags: W
HStem: -5 30<83.7 192.9 265.1 374.3> 370 30<275 363.8>
VStem: 56 30<59.4 400> 214 30<72.4 400> 372 30<59.4 337 420.8 470>
CounterMasks: 1 00
Fore
214 114 m 2
 214 400 l 1
 244 400 l 1
 244 114 l 2
 244 72 257 25 308 25 c 0
 359 25 372 72 372 114 c 2
 372 305 l 2
 372 341 353 370 317 370 c 2
 275 370 l 1
 275 400 l 1
 317 400 l 2
 353 400 372 429 372 465 c 2
 372 470 l 1
 402 470 l 1
 402 465 l 2
 402 431 385 401 359 384 c 1
 385 367 402 337 402 303 c 2
 402 114 l 2
 402 31 360 -5 308 -5 c 0
 275 -5 246 10 229 43 c 1
 212 10 183 -5 150 -5 c 0
 98 -5 56 31 56 114 c 2
 56 400 l 1
 86 400 l 1
 86 114 l 2
 86 72 99 25 150 25 c 0
 205 25 214 82 214 114 c 2
EndSplineSet
Substitution2: "Single Substitution lookup 45" uniF782
EndChar
StartChar: uni0E2D
Encoding: 3629 3629 269
Width: 446
Flags: W
HStem: -4 30<120.6 328.6> 185 30<71 212> 374 30<134.6 329.6>
VStem: 373 32<73.9 326.1>
CounterMasks: 1 00
Fore
223 215 m 1
 212 185 l 1
 71 185 l 1
 78 95 144 26 222 26 c 0
 304 26 373 103 373 200 c 0
 373 297 305 374 223 374 c 0
 155 374 97 332 78 262 c 1
 49 270 l 1
 72 354 142 404 223 404 c 0
 325 404 405 311 405 200 c 0
 405 89 325 -4 223 -4 c 0
 121 -4 41 89 41 200 c 2
 41 215 l 1
 223 215 l 1
EndSplineSet
EndChar
StartChar: uni0E2E
Encoding: 3630 3630 270
Width: 446
Flags: W
HStem: -4 30<120.6 328.6> 185 30<71 212> 374 30<134.6 269.8>
VStem: 373 32<73.9 278>
CounterMasks: 1 00
Fore
223 215 m 1
 212 185 l 1
 71 185 l 1
 78 95 144 26 222 26 c 0
 304 26 373 103 373 200 c 0
 373 297 305 374 223 374 c 0
 155 374 97 332 78 262 c 1
 49 270 l 1
 72 354 142 404 223 404 c 0
 259 404 292 392 320 373 c 1
 354 401 l 1
 376 381 l 1
 343 353 l 1
 381 316 405 260 405 200 c 0
 405 89 325 -4 223 -4 c 0
 121 -4 41 89 41 200 c 2
 41 215 l 1
 223 215 l 1
EndSplineSet
EndChar
StartChar: uni0E2F
Encoding: 3631 3631 271
Width: 378
Flags: W
HStem: 0 21G<292 322> 257 30<104.91 228.6> 376 30<83.3 134>
VStem: 41 29<285.7 353.3> 292 30<0 344>
Fore
292 0 m 1
 292 344 l 1
 263 307 207 257 135 257 c 0
 91 257 41 281 41 326 c 0
 41 368 84 406 134 406 c 1
 134 376 l 1
 95 376 70 347 70 326 c 0
 70 295 117 287 134 287 c 0
 220 287 286 378 292 400 c 1
 322 400 l 1
 322 0 l 1
 292 0 l 1
EndSplineSet
EndChar
StartChar: uni0E30
Encoding: 3632 3632 272
Width: 203
Flags: W
HStem: 40 30<86 165> 291 30<86 165>
VStem: 56 30<70 99 321 350>
Fore
86 321 m 1
 175 321 l 1
 165 291 l 1
 56 291 l 1
 56 350 l 1
 86 360 l 1
 86 321 l 1
86 70 m 1
 175 70 l 1
 165 40 l 1
 56 40 l 1
 56 99 l 1
 86 109 l 1
 86 70 l 1
EndSplineSet
Ligature2: "Ligature Substitution lookup 43" uni0E4E uni0E30
Ligature2: "Ligature Substitution lookup 43" uni0E4D uni0E30
Ligature2: "Ligature Substitution lookup 43" uni0E47 uni0E30
Ligature2: "Ligature Substitution lookup 43" uni0E3A uni0E30
Ligature2: "Ligature Substitution lookup 43" uni0E39 uni0E30
Ligature2: "Ligature Substitution lookup 43" uni0E38 uni0E30
Ligature2: "Ligature Substitution lookup 43" uni0E37 uni0E30
Ligature2: "Ligature Substitution lookup 43" uni0E36 uni0E30
Ligature2: "Ligature Substitution lookup 43" uni0E35 uni0E30
Ligature2: "Ligature Substitution lookup 43" uni0E34 uni0E30
Ligature2: "Ligature Substitution lookup 43" uni0E33 uni0E30
Ligature2: "Ligature Substitution lookup 43" uni0E31 uni0E30
EndChar
StartChar: uni0E31
Encoding: 3633 3633 273
Width: 0
Flags: W
HStem: 452 30<-155 74>
VStem: -185 30<482 511>
Fore
-155 482 m 1
 94 482 l 1
 74 452 l 1
 -185 452 l 1
 -185 511 l 1
 -155 521 l 1
 -155 482 l 1
EndSplineSet
Substitution2: "Single Substitution lookup 45" uniF710
Ligature2: "Ligature Substitution lookup 43" uni0E4E uni0E31
Ligature2: "Ligature Substitution lookup 43" uni0E4D uni0E31
Ligature2: "Ligature Substitution lookup 43" uni0E47 uni0E31
Ligature2: "Ligature Substitution lookup 43" uni0E3A uni0E31
Ligature2: "Ligature Substitution lookup 43" uni0E39 uni0E31
Ligature2: "Ligature Substitution lookup 43" uni0E38 uni0E31
Ligature2: "Ligature Substitution lookup 43" uni0E37 uni0E31
Ligature2: "Ligature Substitution lookup 43" uni0E36 uni0E31
Ligature2: "Ligature Substitution lookup 43" uni0E35 uni0E31
Ligature2: "Ligature Substitution lookup 43" uni0E34 uni0E31
Ligature2: "Ligature Substitution lookup 43" uni0E33 uni0E31
Ligature2: "Ligature Substitution lookup 43" uni0E32 uni0E31
Ligature2: "Ligature Substitution lookup 43" uni0E31 uni0E31
Ligature2: "Ligature Substitution lookup 43" uni0E30 uni0E31
EndChar
StartChar: uni0E32
Encoding: 3634 3634 274
Width: 296
Flags: W
HStem: 0 21G<210 240> 375 30<88.5 213.3>
VStem: 210 30<0 311>
Fore
210 0 m 1
 210 256 l 2
 210 311 192 375 121 375 c 0
 96 375 67 360 41 338 c 1
 41 372 l 1
 66 392 94 405 121 405 c 0
 205 405 240 337 240 256 c 2
 240 0 l 1
 210 0 l 1
EndSplineSet
Substitution2: "Single Substitution lookup 54" uniF70E
Substitution2: "Single Substitution lookup 53" uniF70D
Substitution2: "Single Substitution lookup 52" uniF70C
Substitution2: "Single Substitution lookup 51" uniF70B
Substitution2: "Single Substitution lookup 50" uniF70A
Substitution2: "Single Substitution lookup 49" uniF709
Substitution2: "Single Substitution lookup 48" uniF708
Substitution2: "Single Substitution lookup 47" uniF707
Substitution2: "Single Substitution lookup 46" uniF706
Substitution2: "Single Substitution lookup 45" uniF705
Ligature2: "Ligature Substitution lookup 43" uni0E4E uni0E32
Ligature2: "Ligature Substitution lookup 43" uni0E47 uni0E32
Ligature2: "Ligature Substitution lookup 43" uni0E3A uni0E32
Ligature2: "Ligature Substitution lookup 43" uni0E39 uni0E32
Ligature2: "Ligature Substitution lookup 43" uni0E38 uni0E32
Ligature2: "Ligature Substitution lookup 43" uni0E37 uni0E32
Ligature2: "Ligature Substitution lookup 43" uni0E36 uni0E32
Ligature2: "Ligature Substitution lookup 43" uni0E35 uni0E32
Ligature2: "Ligature Substitution lookup 43" uni0E34 uni0E32
Ligature2: "Ligature Substitution lookup 43" uni0E33 uni0E32
Ligature2: "Ligature Substitution lookup 43" uni0E31 uni0E32
EndChar
StartChar: uni0E33
Encoding: 3635 3635 275
Width: 296
Flags: W
HStem: 0 21G<210 240> 375 30<88.5 213.3> 441 23<-79.9 -63> 510 23<-63 -46.1>
VStem: -109 23<487 503.9> -40 23<470.1 487> 210 30<0 311>
Fore
210 0 m 1
 210 256 l 2
 210 311 192 375 121 375 c 0
 96 375 67 360 41 338 c 1
 41 372 l 1
 66 392 94 405 121 405 c 0
 205 405 240 337 240 256 c 2
 240 0 l 1
 210 0 l 1
-63 533 m 0
 -38 533 -17 512 -17 487 c 0
 -17 462 -38 441 -63 441 c 0
 -88 441 -109 462 -109 487 c 0
 -109 512 -88 533 -63 533 c 0
-86 487 m 0
 -86 474 -76 464 -63 464 c 0
 -50 464 -40 474 -40 487 c 0
 -40 500 -50 510 -63 510 c 0
 -76 510 -86 500 -86 487 c 0
EndSplineSet
LCarets2: 1 0 
Substitution2: "Single Substitution lookup 50" uni0E4C
Substitution2: "Single Substitution lookup 49" uni0E4B
Substitution2: "Single Substitution lookup 48" uni0E4A
Substitution2: "Single Substitution lookup 47" uni0E49
Substitution2: "Single Substitution lookup 46" uni0E48
Substitution2: "Single Substitution lookup 45" uniF780
Ligature2: "Ligature Substitution lookup 43" uni0E4E uni0E33
Ligature2: "Ligature Substitution lookup 43" uni0E4D uni0E33
Ligature2: "Ligature Substitution lookup 43" uni0E4D uni0E32
Ligature2: "Ligature Substitution lookup 43" uni0E47 uni0E33
Ligature2: "Ligature Substitution lookup 43" uni0E3A uni0E33
Ligature2: "Ligature Substitution lookup 43" uni0E39 uni0E33
Ligature2: "Ligature Substitution lookup 43" uni0E38 uni0E33
Ligature2: "Ligature Substitution lookup 43" uni0E37 uni0E33
Ligature2: "Ligature Substitution lookup 43" uni0E36 uni0E33
Ligature2: "Ligature Substitution lookup 43" uni0E35 uni0E33
Ligature2: "Ligature Substitution lookup 43" uni0E34 uni0E33
Ligature2: "Ligature Substitution lookup 43" uni0E33 uni0E33
Ligature2: "Ligature Substitution lookup 43" uni0E32 uni0E33
Ligature2: "Ligature Substitution lookup 43" uni0E31 uni0E33
Ligature2: "Ligature Substitution lookup 43" uni0E30 uni0E33
EndChar
StartChar: uni0E34
Encoding: 3636 3636 276
Width: 0
Flags: W
HStem: 452 30<-318 -56>
VStem: -338 282<452 482>
Fore
-56 482 m 1
 -56 452 l 1
 -338 452 l 1
 -318 482 l 1
 -56 482 l 1
EndSplineSet
LCarets2: 1 0 
Substitution2: "Single Substitution lookup 45" uniF701
Ligature2: "Ligature Substitution lookup 43" uni0E4E uni0E34
Ligature2: "Ligature Substitution lookup 43" uni0E4D uni0E34
Ligature2: "Ligature Substitution lookup 43" uni0E47 uni0E34
Ligature2: "Ligature Substitution lookup 43" uni0E3A uni0E34
Ligature2: "Ligature Substitution lookup 43" uni0E39 uni0E34
Ligature2: "Ligature Substitution lookup 43" uni0E38 uni0E34
Ligature2: "Ligature Substitution lookup 43" uni0E37 uni0E34
Ligature2: "Ligature Substitution lookup 43" uni0E36 uni0E34
Ligature2: "Ligature Substitution lookup 43" uni0E35 uni0E34
Ligature2: "Ligature Substitution lookup 43" uni0E34 uni0E34
Ligature2: "Ligature Substitution lookup 43" uni0E33 uni0E34
Ligature2: "Ligature Substitution lookup 43" uni0E32 uni0E34
Ligature2: "Ligature Substitution lookup 43" uni0E31 uni0E34
Ligature2: "Ligature Substitution lookup 43" uni0E30 uni0E34
EndChar
StartChar: uni0E35
Encoding: 3637 3637 277
Width: 0
Flags: W
HStem: 452 30<-318 -86>
VStem: -86 30<482 521>
Fore
-86 482 m 1
 -86 521 l 1
 -56 521 l 1
 -56 452 l 1
 -338 452 l 1
 -318 482 l 1
 -86 482 l 1
EndSplineSet
LCarets2: 1 0 
Substitution2: "Single Substitution lookup 45" uniF702
Ligature2: "Ligature Substitution lookup 43" uni0E4E uni0E35
Ligature2: "Ligature Substitution lookup 43" uni0E4D uni0E35
Ligature2: "Ligature Substitution lookup 43" uni0E47 uni0E35
Ligature2: "Ligature Substitution lookup 43" uni0E3A uni0E35
Ligature2: "Ligature Substitution lookup 43" uni0E39 uni0E35
Ligature2: "Ligature Substitution lookup 43" uni0E38 uni0E35
Ligature2: "Ligature Substitution lookup 43" uni0E37 uni0E35
Ligature2: "Ligature Substitution lookup 43" uni0E36 uni0E35
Ligature2: "Ligature Substitution lookup 43" uni0E35 uni0E35
Ligature2: "Ligature Substitution lookup 43" uni0E34 uni0E35
Ligature2: "Ligature Substitution lookup 43" uni0E33 uni0E35
Ligature2: "Ligature Substitution lookup 43" uni0E32 uni0E35
Ligature2: "Ligature Substitution lookup 43" uni0E31 uni0E35
Ligature2: "Ligature Substitution lookup 43" uni0E30 uni0E35
EndChar
StartChar: uni0E36
Encoding: 3638 3638 278
Width: 0
Flags: W
HStem: 452 30<-318 -115> 452 23<-88.9 -72> 521 23<-72 -55.1>
VStem: -118 23<498 514.9> -49 23<481.1 498>
Fore
-72 544 m 0xb8
 -47 544 -26 523 -26 498 c 0
 -26 473 -47 452 -72 452 c 2
 -338 452 l 1x78
 -318 482 l 1
 -115 482 l 1
 -117 487 -118 492 -118 498 c 0
 -118 523 -97 544 -72 544 c 0xb8
-95 498 m 0
 -95 485 -85 475 -72 475 c 0
 -59 475 -49 485 -49 498 c 0
 -49 511 -59 521 -72 521 c 0
 -85 521 -95 511 -95 498 c 0
EndSplineSet
Substitution2: "Single Substitution lookup 45" uniF703
Ligature2: "Ligature Substitution lookup 43" uni0E4E uni0E36
Ligature2: "Ligature Substitution lookup 43" uni0E4D uni0E36
Ligature2: "Ligature Substitution lookup 43" uni0E47 uni0E36
Ligature2: "Ligature Substitution lookup 43" uni0E3A uni0E36
Ligature2: "Ligature Substitution lookup 43" uni0E39 uni0E36
Ligature2: "Ligature Substitution lookup 43" uni0E38 uni0E36
Ligature2: "Ligature Substitution lookup 43" uni0E37 uni0E36
Ligature2: "Ligature Substitution lookup 43" uni0E36 uni0E36
Ligature2: "Ligature Substitution lookup 43" uni0E35 uni0E36
Ligature2: "Ligature Substitution lookup 43" uni0E34 uni0E36
Ligature2: "Ligature Substitution lookup 43" uni0E33 uni0E36
Ligature2: "Ligature Substitution lookup 43" uni0E32 uni0E36
Ligature2: "Ligature Substitution lookup 43" uni0E31 uni0E36
Ligature2: "Ligature Substitution lookup 43" uni0E30 uni0E36
EndChar
StartChar: uni0E37
Encoding: 3639 3639 279
Width: 0
Flags: W
HStem: 452 69<-151 -121 -86 -56> 452 30<-318 -151 -121 -86>
VStem: -151 30<482 521> -86 30<482 521>
Fore
-86 482 m 1x70
 -86 521 l 1
 -56 521 l 1
 -56 452 l 1xb0
 -338 452 l 1
 -318 482 l 1
 -151 482 l 1x70
 -151 521 l 1
 -121 521 l 1xb0
 -121 482 l 1
 -86 482 l 1x70
EndSplineSet
Substitution2: "Single Substitution lookup 45" uniF704
Ligature2: "Ligature Substitution lookup 43" uni0E4E uni0E37
Ligature2: "Ligature Substitution lookup 43" uni0E4D uni0E37
Ligature2: "Ligature Substitution lookup 43" uni0E47 uni0E37
Ligature2: "Ligature Substitution lookup 43" uni0E3A uni0E37
Ligature2: "Ligature Substitution lookup 43" uni0E39 uni0E37
Ligature2: "Ligature Substitution lookup 43" uni0E38 uni0E37
Ligature2: "Ligature Substitution lookup 43" uni0E37 uni0E37
Ligature2: "Ligature Substitution lookup 43" uni0E36 uni0E37
Ligature2: "Ligature Substitution lookup 43" uni0E35 uni0E37
Ligature2: "Ligature Substitution lookup 43" uni0E34 uni0E37
Ligature2: "Ligature Substitution lookup 43" uni0E33 uni0E37
Ligature2: "Ligature Substitution lookup 43" uni0E32 uni0E37
Ligature2: "Ligature Substitution lookup 43" uni0E31 uni0E37
Ligature2: "Ligature Substitution lookup 43" uni0E30 uni0E37
EndChar
StartChar: uni0E38
Encoding: 3640 3640 280
Width: 0
Flags: W
HStem: -72 30<-112 -86>
VStem: -86 30<-159 -72>
Fore
-112 -42 m 1
 -56 -42 l 1
 -56 -159 l 1
 -86 -159 l 1
 -86 -72 l 1
 -122 -72 l 1
 -112 -42 l 1
EndSplineSet
Substitution2: "Single Substitution lookup 45" uniF718
Ligature2: "Ligature Substitution lookup 43" uni0E4E uni0E38
Ligature2: "Ligature Substitution lookup 43" uni0E4D uni0E38
Ligature2: "Ligature Substitution lookup 43" uni0E47 uni0E38
Ligature2: "Ligature Substitution lookup 43" uni0E3A uni0E38
Ligature2: "Ligature Substitution lookup 43" uni0E39 uni0E38
Ligature2: "Ligature Substitution lookup 43" uni0E38 uni0E38
Ligature2: "Ligature Substitution lookup 43" uni0E37 uni0E38
Ligature2: "Ligature Substitution lookup 43" uni0E36 uni0E38
Ligature2: "Ligature Substitution lookup 43" uni0E35 uni0E38
Ligature2: "Ligature Substitution lookup 43" uni0E34 uni0E38
Ligature2: "Ligature Substitution lookup 43" uni0E33 uni0E38
Ligature2: "Ligature Substitution lookup 43" uni0E32 uni0E38
Ligature2: "Ligature Substitution lookup 43" uni0E31 uni0E38
Ligature2: "Ligature Substitution lookup 43" uni0E30 uni0E38
EndChar
StartChar: uni0E39
Encoding: 3641 3641 281
Width: 0
Flags: W
HStem: -164 30<-170.1 -99.9> -72 30<-231 -214>
VStem: -214 30<-120.1 -72> -86 30<-120.1 -42>
Fore
-231 -42 m 1
 -184 -42 l 1
 -184 -85 l 2
 -184 -112 -162 -134 -135 -134 c 0
 -108 -134 -86 -112 -86 -85 c 2
 -86 -42 l 1
 -56 -42 l 1
 -56 -85 l 2
 -56 -129 -91 -164 -135 -164 c 0
 -179 -164 -214 -129 -214 -85 c 2
 -214 -72 l 1
 -241 -72 l 1
 -231 -42 l 1
EndSplineSet
Substitution2: "Single Substitution lookup 45" uniF719
Ligature2: "Ligature Substitution lookup 43" uni0E4E uni0E39
Ligature2: "Ligature Substitution lookup 43" uni0E4D uni0E39
Ligature2: "Ligature Substitution lookup 43" uni0E47 uni0E39
Ligature2: "Ligature Substitution lookup 43" uni0E3A uni0E39
Ligature2: "Ligature Substitution lookup 43" uni0E39 uni0E39
Ligature2: "Ligature Substitution lookup 43" uni0E38 uni0E39
Ligature2: "Ligature Substitution lookup 43" uni0E37 uni0E39
Ligature2: "Ligature Substitution lookup 43" uni0E36 uni0E39
Ligature2: "Ligature Substitution lookup 43" uni0E35 uni0E39
Ligature2: "Ligature Substitution lookup 43" uni0E34 uni0E39
Ligature2: "Ligature Substitution lookup 43" uni0E33 uni0E39
Ligature2: "Ligature Substitution lookup 43" uni0E32 uni0E39
Ligature2: "Ligature Substitution lookup 43" uni0E31 uni0E39
Ligature2: "Ligature Substitution lookup 43" uni0E30 uni0E39
EndChar
StartChar: uni0E3A
Encoding: 3642 3642 282
Width: 0
Flags: W
Fore
-96 -61 m 0
 -96 -47 -85 -36 -71 -36 c 0
 -57 -36 -46 -47 -46 -61 c 0
 -46 -75 -57 -86 -71 -86 c 0
 -85 -86 -96 -75 -96 -61 c 0
EndSplineSet
Substitution2: "Single Substitution lookup 45" uniF71A
Ligature2: "Ligature Substitution lookup 43" uni0E4E uni0E3A
Ligature2: "Ligature Substitution lookup 43" uni0E4D uni0E3A
Ligature2: "Ligature Substitution lookup 43" uni0E47 uni0E3A
Ligature2: "Ligature Substitution lookup 43" uni0E3A uni0E3A
Ligature2: "Ligature Substitution lookup 43" uni0E39 uni0E3A
Ligature2: "Ligature Substitution lookup 43" uni0E38 uni0E3A
Ligature2: "Ligature Substitution lookup 43" uni0E37 uni0E3A
Ligature2: "Ligature Substitution lookup 43" uni0E36 uni0E3A
Ligature2: "Ligature Substitution lookup 43" uni0E35 uni0E3A
Ligature2: "Ligature Substitution lookup 43" uni0E34 uni0E3A
Ligature2: "Ligature Substitution lookup 43" uni0E33 uni0E3A
Ligature2: "Ligature Substitution lookup 43" uni0E32 uni0E3A
Ligature2: "Ligature Substitution lookup 43" uni0E31 uni0E3A
Ligature2: "Ligature Substitution lookup 43" uni0E30 uni0E3A
EndChar
StartChar: uni0E3F
Encoding: 3647 3647 283
Width: 409
Flags: W
HStem: 0 30<78 155 186 319.2> 266 30<78 156 186 223> 470 30<78 156 186 218>
VStem: 48 30<30 266 296 470> 156 30<-50 0 30 266 296 470 500 550> 317 29<325.4 442.1> 354 29<66.1 226.3>
Fore
186 500 m 1
 218 500 l 2
 288 500 346 446 346 380 c 0
 346 338 322 302 286 281 c 1
 343 259 383 208 383 147 c 0
 383 65 310 0 222 0 c 2
 185 0 l 1
 185 -50 l 1
 155 -50 l 1
 155 0 l 1
 48 0 l 1
 48 500 l 1
 156 500 l 1
 156 550 l 1
 186 550 l 1
 186 500 l 1
186 470 m 1
 186 296 l 1
 218 296 l 2
 274 296 317 334 317 381 c 0
 317 428 274 470 218 470 c 2
 186 470 l 1
186 30 m 1
 223 30 l 2
 297 30 354 85 354 148 c 0
 354 211 297 266 223 266 c 2
 186 266 l 1
 186 30 l 1
156 296 m 1
 156 470 l 1
 78 470 l 1
 78 296 l 1
 156 296 l 1
156 30 m 1
 156 266 l 1
 78 266 l 1
 78 30 l 1
 156 30 l 1
EndSplineSet
EndChar
StartChar: uni0E40
Encoding: 3648 3648 284
Width: 142
Flags: W
HStem: 0 21G<56 86>
VStem: 56 30<0 400>
Fore
86 0 m 1
 56 0 l 1
 56 400 l 1
 86 400 l 1
 86 0 l 1
EndSplineSet
EndChar
StartChar: uni0E41
Encoding: 3649 3649 285
Width: 232
Flags: W
HStem: 0 21G<56 86 146 176>
VStem: 56 30<0 400> 146 30<0 400>
Fore
86 0 m 1
 56 0 l 1
 56 400 l 1
 86 400 l 1
 86 0 l 1
176 0 m 1
 146 0 l 1
 146 400 l 1
 176 400 l 1
 176 0 l 1
EndSplineSet
EndChar
StartChar: uni0E42
Encoding: 3650 3650 286
Width: 142
Flags: W
HStem: 0 30<86 112> 561 30<36 194>
VStem: 56 30<30 504.4>
Fore
56 0 m 1
 56 442 l 2
 56 497 38 561 -33 561 c 5
 -23 591 l 1
 204 591 l 1
 194 561 l 1
 36 561 l 1
 68 538 86 490 86 442 c 2
 86 30 l 1
 122 30 l 1
 112 0 l 1
 56 0 l 1
EndSplineSet
EndChar
StartChar: uni0E43
Encoding: 3651 3651 287
Width: 159
Flags: W
HStem: 0 30<103 125> 565 31<22 104.5>
VStem: -33 30<516 544.6> 73 30<30 486.9> 121 30<475.7 542>
Fore
73 0 m 1
 73 404 l 2
 73 478 121 485 121 516 c 0
 121 536 94 565 59 565 c 2
 58 565 l 2
 22 565 -4 538 -3 516 c 1
 -33 516 l 1
 -34 556 8 595 57 596 c 2
 58 596 l 2
 108 596 151 555 151 517 c 0
 151 468 103 468 103 405 c 2
 103 30 l 1
 135 30 l 1
 125 0 l 1
 73 0 l 1
EndSplineSet
EndChar
StartChar: uni0E44
Encoding: 3652 3652 288
Width: 147
Flags: W
HStem: 0 30<91 115> 562 30<54 111>
VStem: 61 30<30 516.7>
Fore
61 0 m 1
 61 453 l 2
 61 502 88 536 111 562 c 1
 54 562 l 1
 18 513 l 1
 -33 560 l 1
 -33 601 l 1
 17 556 l 1
 41 592 l 1
 149 592 l 1
 149 565 l 1
 121 542 91 509 91 452 c 2
 91 30 l 1
 125 30 l 1
 115 0 l 1
 61 0 l 1
EndSplineSet
EndChar
StartChar: uni0E45
Encoding: 3653 3653 289
Width: 296
Flags: W
HStem: 375 30<88.5 213.3>
VStem: 210 30<-152 311>
Fore
210 -152 m 1
 210 256 l 2
 210 311 192 375 121 375 c 0
 96 375 67 360 41 338 c 1
 41 372 l 1
 66 392 94 405 121 405 c 0
 205 405 240 337 240 256 c 2
 240 -152 l 1
 210 -152 l 1
EndSplineSet
EndChar
StartChar: uni0E46
Encoding: 3654 3654 290
Width: 395
Flags: W
HStem: 194 30<77.1 167.492> 310 32<171.808 210.192>
VStem: 41 28<246.2 329.4> 309 30<-152 309>
Fore
309 -152 m 1
 309 274 l 2
 309 309 293 340 269 362 c 1
 247 332 221 310 190 310 c 0
 158 310 131 333 108 364 c 1
 82 349 69 321 69 293 c 0
 69 257 90 224 133 224 c 0
 141 224 150 225 160 227 c 1
 167 198 l 1
 155 195 144 194 134 194 c 0
 73 194 41 242 41 293 c 0
 41 335 63 380 109 399 c 2
 120 404 l 1
 127 394 l 2
 156 349 178 342 191 342 c 0
 204 342 226 349 255 394 c 2
 263 407 l 1
 276 398 l 2
 314 371 339 326 339 276 c 2
 339 -152 l 1
 309 -152 l 1
EndSplineSet
EndChar
StartChar: uni0E47
Encoding: 3655 3655 291
Width: 0
Flags: W
HStem: 445.121 30.129<-123.21 -66.4479> 452 30<-279.5 -242> 544 30<-272 -38>
VStem: -317 29<495.1 530.2>
Fore
-38 544 m 1x70
 -243 544 l 2
 -272 544 -288 526 -288 512 c 0
 -288 499 -272 483 -247 482 c 1x70
 -192 517 l 1
 -125 481 l 2
 -115.5 477 -105.75 475.25 -96 475.25 c 0xb0
 -86.25 475.25 -76.5 477 -67 480 c 1
 -56 452 l 1x70
 -68.6895 447.607 -82.5703 445.121 -96.2471 445.121 c 0xb0
 -110.592 445.121 -124.713 447.857 -137 454 c 2
 -190 483 l 1
 -238 452 l 1
 -242 452 l 2
 -279 452 -317 476 -317 513 c 0
 -317 550 -279 574 -242 574 c 2
 -28 574 l 1
 -38 544 l 1x70
EndSplineSet
Substitution2: "Single Substitution lookup 45" uniF712
Ligature2: "Ligature Substitution lookup 43" uniF70E uni0E47
Ligature2: "Ligature Substitution lookup 43" uniF70D uni0E47
Ligature2: "Ligature Substitution lookup 43" uniF70C uni0E47
Ligature2: "Ligature Substitution lookup 43" uniF70B uni0E47
Ligature2: "Ligature Substitution lookup 43" uniF70A uni0E47
Ligature2: "Ligature Substitution lookup 43" uni0E4E uni0E47
Ligature2: "Ligature Substitution lookup 43" uni0E4D uni0E47
Ligature2: "Ligature Substitution lookup 43" uni0E4C uni0E47
Ligature2: "Ligature Substitution lookup 43" uni0E4B uni0E47
Ligature2: "Ligature Substitution lookup 43" uni0E4A uni0E47
Ligature2: "Ligature Substitution lookup 43" uni0E49 uni0E47
Ligature2: "Ligature Substitution lookup 43" uni0E48 uni0E47
Ligature2: "Ligature Substitution lookup 43" uni0E47 uni0E47
Ligature2: "Ligature Substitution lookup 43" uni0E3A uni0E47
Ligature2: "Ligature Substitution lookup 43" uni0E39 uni0E47
Ligature2: "Ligature Substitution lookup 43" uni0E38 uni0E47
Ligature2: "Ligature Substitution lookup 43" uni0E37 uni0E47
Ligature2: "Ligature Substitution lookup 43" uni0E36 uni0E47
Ligature2: "Ligature Substitution lookup 43" uni0E35 uni0E47
Ligature2: "Ligature Substitution lookup 43" uni0E34 uni0E47
Ligature2: "Ligature Substitution lookup 43" uni0E33 uni0E47
Ligature2: "Ligature Substitution lookup 43" uni0E32 uni0E47
Ligature2: "Ligature Substitution lookup 43" uni0E31 uni0E47
Ligature2: "Ligature Substitution lookup 43" uni0E30 uni0E47
EndChar
StartChar: uni0E48
Encoding: 3656 3656 292
Width: 0
Flags: W
VStem: -86 30<564 646>
Fore
-56 564 m 5
 -86 564 l 5
 -86 646 l 5
 -56 646 l 5
 -56 564 l 5
EndSplineSet
Substitution2: "Single Substitution lookup 51" uni0E32
Substitution2: "Single Substitution lookup 50" uniF780
Substitution2: "Single Substitution lookup 49" uni0E33
Substitution2: "Single Substitution lookup 48" uni0E48
Substitution2: "Single Substitution lookup 47" uniF705
Substitution2: "Single Substitution lookup 46" uniF713
Substitution2: "Single Substitution lookup 45" uniF70A
Ligature2: "Ligature Substitution lookup 43" uni0E4C uni0E48
Ligature2: "Ligature Substitution lookup 43" uni0E4B uni0E48
Ligature2: "Ligature Substitution lookup 43" uni0E4A uni0E48
Ligature2: "Ligature Substitution lookup 43" uni0E49 uni0E48
Ligature2: "Ligature Substitution lookup 43" uni0E48 uni0E48
EndChar
StartChar: uni0E49
Encoding: 3657 3657 293
Width: 0
Flags: W
HStem: 564 30<-116 1> 615 30<-177 -144.1>
VStem: -146 30<594 612.064>
Fore
-146 564 m 1
 -146 600 l 2
 -146 605 -148 614 -161 615 c 2
 -187 615 l 1
 -177 645 l 1
 -161 645 l 2
 -122 645 -116 612 -116 600 c 2
 -116 594 l 1
 11 594 l 1
 1 564 l 1
 -146 564 l 1
EndSplineSet
Substitution2: "Single Substitution lookup 51" uni0E32
Substitution2: "Single Substitution lookup 50" uniF780
Substitution2: "Single Substitution lookup 49" uni0E33
Substitution2: "Single Substitution lookup 48" uni0E49
Substitution2: "Single Substitution lookup 47" uniF706
Substitution2: "Single Substitution lookup 46" uniF714
Substitution2: "Single Substitution lookup 45" uniF70B
Ligature2: "Ligature Substitution lookup 43" uni0E4C uni0E49
Ligature2: "Ligature Substitution lookup 43" uni0E4B uni0E49
Ligature2: "Ligature Substitution lookup 43" uni0E4A uni0E49
Ligature2: "Ligature Substitution lookup 43" uni0E49 uni0E49
Ligature2: "Ligature Substitution lookup 43" uni0E48 uni0E49
EndChar
StartChar: uni0E4A
Encoding: 3658 3658 294
Width: 0
Flags: W
HStem: 565 30<-160.9 -137 27 115> 638 30<-165.4 -85.8>
VStem: -195 31<601.061 627.744> -3 30<594 628>
Fore
-3 564 m 1
 -3 628 l 1
 -74 575 l 1
 -81 600 -90 638 -129 638 c 0
 -157 638 -164 624 -164 615 c 0
 -164 605 -157 595 -144 595 c 2
 -137 595 l 1
 -137 565 l 1
 -144 565 l 2
 -175 565 -195 590 -195 615 c 0
 -195 642 -173 668 -130 668 c 0
 -96 668 -73 648 -62 621 c 1
 -10 659 l 1
 27 659 l 1
 27 594 l 1
 125 594 l 1
 115 564 l 1
 -3 564 l 1
EndSplineSet
Substitution2: "Single Substitution lookup 51" uni0E32
Substitution2: "Single Substitution lookup 50" uniF780
Substitution2: "Single Substitution lookup 49" uni0E33
Substitution2: "Single Substitution lookup 48" uni0E4A
Substitution2: "Single Substitution lookup 47" uniF707
Substitution2: "Single Substitution lookup 46" uniF715
Substitution2: "Single Substitution lookup 45" uniF70C
Ligature2: "Ligature Substitution lookup 43" uni0E4C uni0E4A
Ligature2: "Ligature Substitution lookup 43" uni0E4B uni0E4A
Ligature2: "Ligature Substitution lookup 43" uni0E4A uni0E4A
Ligature2: "Ligature Substitution lookup 43" uni0E49 uni0E4A
Ligature2: "Ligature Substitution lookup 43" uni0E48 uni0E4A
EndChar
StartChar: uni0E4B
Encoding: 3659 3659 295
Width: 0
Flags: W
HStem: 595 28<-115 -86 -56 -27>
VStem: -86 30<564 594 624 654>
Fore
-115 595 m 1
 -115 623 l 1
 -86 623 l 1
 -86 654 l 1
 -56 654 l 1
 -56 624 l 1
 -27 624 l 1
 -27 594 l 1
 -56 594 l 1
 -56 564 l 1
 -86 564 l 1
 -86 595 l 1
 -115 595 l 1
EndSplineSet
Substitution2: "Single Substitution lookup 51" uni0E32
Substitution2: "Single Substitution lookup 50" uniF780
Substitution2: "Single Substitution lookup 49" uni0E33
Substitution2: "Single Substitution lookup 48" uni0E4B
Substitution2: "Single Substitution lookup 47" uniF708
Substitution2: "Single Substitution lookup 46" uniF716
Substitution2: "Single Substitution lookup 45" uniF70D
Ligature2: "Ligature Substitution lookup 43" uni0E4C uni0E4B
Ligature2: "Ligature Substitution lookup 43" uni0E4B uni0E4B
Ligature2: "Ligature Substitution lookup 43" uni0E4A uni0E4B
Ligature2: "Ligature Substitution lookup 43" uni0E49 uni0E4B
Ligature2: "Ligature Substitution lookup 43" uni0E48 uni0E4B
EndChar
StartChar: uni0E4C
Encoding: 3660 3660 296
Width: 0
Flags: W
HStem: 601 30<-41 10>
VStem: -86 30<564 595.666>
Fore
-86 564 m 1
 -86 586 l 2
 -86 598 -80 631 -41 631 c 2
 20 631 l 1
 10 601 l 1
 -41 601 l 2
 -54 601 -56 591 -56 586 c 2
 -56 564 l 1
 -86 564 l 1
EndSplineSet
Substitution2: "Single Substitution lookup 50" uniF780
Substitution2: "Single Substitution lookup 49" uni0E33
Substitution2: "Single Substitution lookup 48" uni0E4C
Substitution2: "Single Substitution lookup 47" uniF709
Substitution2: "Single Substitution lookup 46" uniF717
Substitution2: "Single Substitution lookup 45" uniF70E
Ligature2: "Ligature Substitution lookup 43" uni0E4C uni0E4C
Ligature2: "Ligature Substitution lookup 43" uni0E4B uni0E4C
Ligature2: "Ligature Substitution lookup 43" uni0E4A uni0E4C
Ligature2: "Ligature Substitution lookup 43" uni0E49 uni0E4C
Ligature2: "Ligature Substitution lookup 43" uni0E48 uni0E4C
EndChar
StartChar: uni0E4D
Encoding: 3661 3661 297
Width: 0
Flags: W
HStem: 441 23<-87.9 -71> 510 23<-71 -54.1>
VStem: -117 23<487 503.9> -48 23<470.1 487>
Fore
-71 533 m 0
 -46 533 -25 512 -25 487 c 0
 -25 462 -46 441 -71 441 c 0
 -96 441 -117 462 -117 487 c 0
 -117 512 -96 533 -71 533 c 0
-94 487 m 0
 -94 474 -84 464 -71 464 c 0
 -58 464 -48 474 -48 487 c 0
 -48 500 -58 510 -71 510 c 0
 -84 510 -94 500 -94 487 c 0
EndSplineSet
Substitution2: "Single Substitution lookup 45" uniF711
Ligature2: "Ligature Substitution lookup 43" uni0E4E uni0E4D
Ligature2: "Ligature Substitution lookup 43" uni0E4D uni0E4D
Ligature2: "Ligature Substitution lookup 43" uni0E47 uni0E4D
Ligature2: "Ligature Substitution lookup 43" uni0E3A uni0E4D
Ligature2: "Ligature Substitution lookup 43" uni0E39 uni0E4D
Ligature2: "Ligature Substitution lookup 43" uni0E38 uni0E4D
Ligature2: "Ligature Substitution lookup 43" uni0E37 uni0E4D
Ligature2: "Ligature Substitution lookup 43" uni0E36 uni0E4D
Ligature2: "Ligature Substitution lookup 43" uni0E35 uni0E4D
Ligature2: "Ligature Substitution lookup 43" uni0E34 uni0E4D
Ligature2: "Ligature Substitution lookup 43" uni0E33 uni0E4D
Ligature2: "Ligature Substitution lookup 43" uni0E32 uni0E4D
Ligature2: "Ligature Substitution lookup 43" uni0E31 uni0E4D
Ligature2: "Ligature Substitution lookup 43" uni0E30 uni0E4D
EndChar
StartChar: uni0E4E
Encoding: 3662 3662 298
Width: 0
Flags: W
HStem: 489 24<-213.9 -155.4> 714 25<-68.2567 -21.1235> 717 25<-129.5 -11.9912>
VStem: -255 25<518.9 600.5> -189 25<636.9 704.5>
Fore
-148 527 m 1xb8
 -127 515 l 1
 -138 497 -161 489 -184 489 c 0
 -223 489 -255 510 -255 542 c 0
 -255 587 -220 612 -172 621 c 1
 -182 630 -189 642 -189 659 c 0
 -189 709 -128 742 -57 742 c 0xb8
 -45 742 -32 741 -18 739 c 1
 -22 714 l 1xd8
 -35 716 -47 717 -58 717 c 0
 -113 717 -164 694 -164 659 c 0
 -164 638 -138 628 -115 625 c 2
 -93 625 l 1
 -117 600 l 1
 -126 600 l 0
 -172 600 -230 588 -230 541 c 0
 -230 524 -207 513 -184 513 c 0
 -162 513 -151 522 -148 527 c 1xb8
EndSplineSet
Substitution2: "Single Substitution lookup 45" uniF781
Ligature2: "Ligature Substitution lookup 43" uni0E4E uni0E4E
Ligature2: "Ligature Substitution lookup 43" uni0E4D uni0E4E
Ligature2: "Ligature Substitution lookup 43" uni0E47 uni0E4E
Ligature2: "Ligature Substitution lookup 43" uni0E3A uni0E4E
Ligature2: "Ligature Substitution lookup 43" uni0E39 uni0E4E
Ligature2: "Ligature Substitution lookup 43" uni0E38 uni0E4E
Ligature2: "Ligature Substitution lookup 43" uni0E37 uni0E4E
Ligature2: "Ligature Substitution lookup 43" uni0E36 uni0E4E
Ligature2: "Ligature Substitution lookup 43" uni0E35 uni0E4E
Ligature2: "Ligature Substitution lookup 43" uni0E34 uni0E4E
Ligature2: "Ligature Substitution lookup 43" uni0E33 uni0E4E
Ligature2: "Ligature Substitution lookup 43" uni0E32 uni0E4E
Ligature2: "Ligature Substitution lookup 43" uni0E31 uni0E4E
Ligature2: "Ligature Substitution lookup 43" uni0E30 uni0E4E
EndChar
StartChar: uni0E4F
Encoding: 3663 3663 299
Width: 492
Flags: W
HStem: -5 31<120.2 369.8> 95 210<170.6 321.4> 374 31<120.2 369.8>
VStem: 41 30<75.2 324.8> 141 210<124.6 275.4> 419 32<75.2 324.8>
CounterMasks: 1 00
Fore
246 405 m 0
 359 405 451 313 451 200 c 0
 451 87 359 -5 246 -5 c 0
 133 -5 41 87 41 200 c 0
 41 313 133 405 246 405 c 0
71 200 m 0
 71 104 149 26 245 26 c 0
 341 26 419 104 419 200 c 0
 419 296 341 374 245 374 c 0
 149 374 71 296 71 200 c 0
141 200 m 0
 141 258 188 305 246 305 c 0
 304 305 351 258 351 200 c 0
 351 142 304 95 246 95 c 0
 188 95 141 142 141 200 c 0
EndSplineSet
EndChar
StartChar: uni0E50
Encoding: 3664 3664 300
Width: 470
Flags: W
HStem: -5 30<115.4 354.6> 305 30<115.4 354.6>
VStem: 41 30<66.2 263.8> 399 30<66.2 263.8>
Fore
235 335 m 0
 341 335 429 261 429 165 c 0
 429 69 341 -5 235 -5 c 0
 129 -5 41 69 41 165 c 0
 41 261 129 335 235 335 c 0
71 165 m 0
 71 89 143 25 235 25 c 0
 327 25 399 89 399 165 c 0
 399 241 327 305 235 305 c 0
 143 305 71 241 71 165 c 0
EndSplineSet
EndChar
StartChar: uni0E51
Encoding: 3665 3665 301
Width: 470
Flags: W
HStem: -42 29<231 345.1> 32 30<106.6 232.7> 305 30<115.4 353.3>
VStem: 41 30<84.4 263.8> 399 30<21.6 267.3>
Fore
231 -42 m 1
 232 -13 l 1
 319 -13 399 54 399 162 c 0
 399 243 326 305 235 305 c 0
 143 305 71 241 71 165 c 0
 71 103 124 62 182 62 c 0
 221 62 257 81 281 113 c 1
 305 95 l 1
 275 55 231 32 182 32 c 0
 109 32 41 85 41 165 c 0
 41 261 129 335 235 335 c 0
 340 335 429 262 429 162 c 0
 429 38 336 -42 231 -42 c 1
EndSplineSet
EndChar
StartChar: uni0E52
Encoding: 3666 3666 302
Width: 470
Flags: W
HStem: 0 30<120 367.1> 80 30<157.3 208> 304 30<157.6 244.7 307.3 400.9>
VStem: 41 30<62.9 390> 116 30<139.4 275.9> 261 30<170 256> 398 30<83 269.3>
Fore
261 170 m 1
 261 215 l 2
 261 256 250 304 207 304 c 0
 169 304 146 260 146 207 c 0
 146 155 169 110 208 110 c 1
 208 80 l 1
 153 80 116 135 116 207 c 0
 116 279 152 334 207 334 c 0
 236 334 260 320 275 290 c 1
 290 320 316 334 345 334 c 0
 392 334 428 296 428 215 c 2
 428 149 l 2
 428 68 368 0 292 0 c 2
 176 0 l 2
 100 0 41 68 41 149 c 2
 41 350 l 2
 41 390 35 406 24 411 c 1
 36 439 l 1
 72 424 71 376 71 351 c 2
 71 150 l 2
 71 83 120 30 177 30 c 2
 293 30 l 2
 350 30 398 83 398 150 c 2
 398 216 l 2
 398 257 388 305 345 305 c 0
 302 305 291 257 291 216 c 2
 291 170 l 1
 261 170 l 1
EndSplineSet
EndChar
StartChar: uni0E53
Encoding: 3667 3667 303
Width: 470
Flags: W
HStem: -5 30<86 151> 305 30<88.9 196.5 273.5 387.9>
VStem: 43 29<68.8 265.1> 219 30<0 258> 387 30<0 270.6>
Fore
219 0 m 1
 219 216 l 2
 219 258 205 305 150 305 c 0
 103 305 72 243 72 165 c 0
 72 91 101 25 151 25 c 1
 151 -5 l 1
 75 -5 43 86 43 165 c 0
 43 242 74 335 151 335 c 0
 186 335 217 320 235 286 c 1
 253 320 284 335 319 335 c 0
 372 335 417 300 417 216 c 2
 417 0 l 1
 387 0 l 1
 387 216 l 2
 387 258 373 305 318 305 c 0
 263 305 249 258 249 216 c 2
 249 0 l 1
 219 0 l 1
EndSplineSet
EndChar
StartChar: uni0E54
Encoding: 3668 3668 304
Width: 470
Flags: W
HStem: -5 30<93.2 251.17> 9 29<288.832 386.775> 155 30<245.2 298.5> 298 29<290.054 405.4> 306 29<98.9 292.667>
VStem: 26.5 29<74.8 268.5> 209.5 30<76.8 140.5> 424.5 29<332.8 429>
Fore
424.5 429 m 1x37
 453.5 429 l 1
 453.5 323 389.5 298 335.5 298 c 0x37
 305.5 298 273.5 306 218.5 306 c 0
 126.5 306 55.5 246 55.5 171 c 0
 55.5 97 120.5 25 211.5 25 c 0xaf
 224.5 25 238.5 27 252.5 30 c 1
 224.5 52 209.5 81 209.5 109 c 0
 209.5 150 241.5 185 298.5 185 c 1
 298.5 155 l 1
 257.5 155 239.5 133 239.5 108 c 0
 239.5 84 257.5 53 299.5 36 c 1
 311.5 37 324.5 38 337.5 38 c 0
 370.5 38 404.5 33 434.5 19 c 1
 421.5 -8 l 1
 397.5 4 368.5 9 338.5 9 c 0x67
 282.5 9 254.5 -5 212.5 -5 c 0
 105.5 -5 26.5 79 26.5 170 c 0
 26.5 265 115.5 335 220.5 335 c 0xaf
 276.5 335 312.5 327 336.5 327 c 0
 389.5 327 424.5 355 424.5 429 c 1x37
EndSplineSet
EndChar
StartChar: uni0E55
Encoding: 3669 3669 305
Width: 470
Flags: W
HStem: -5 30<93.2 251.17> 9 29<288.832 386.775> 155 30<245.2 298.5> 298 29<285.762 405.4> 306 29<195.2 257.6> 393 28<206.8 256.2>
VStem: 26.5 29<74.8 268.5> 169.5 29<347.65 383.5> 209.5 30<76.8 140.5> 264.5 31<345.8 383.5> 424.5 29<332.8 429>
Fore
424.5 429 m 1xb7e0
 453.5 429 l 1
 453.5 323 389.5 298 335.5 298 c 0xb7e0
 308.5 298 271.5 306 218.5 306 c 0
 126.5 306 55.5 246 55.5 171 c 0
 55.5 97 120.5 25 211.5 25 c 0xafe0
 224.5 25 238.5 27 252.5 30 c 1
 224.5 52 209.5 81 209.5 109 c 0
 209.5 150 241.5 185 298.5 185 c 1
 298.5 155 l 1
 257.5 155 239.5 133 239.5 108 c 0
 239.5 84 257.5 53 299.5 36 c 1
 311.5 37 324.5 38 337.5 38 c 0
 370.5 38 404.5 33 434.5 19 c 1
 421.5 -8 l 1
 397.5 4 368.5 9 338.5 9 c 0x67e0
 282.5 9 254.5 -5 212.5 -5 c 0
 105.5 -5 26.5 79 26.5 170 c 0
 26.5 253 93.5 316 179.5 331 c 1
 172.5 341 169.5 352 169.5 362 c 0
 169.5 393 196.5 421 232.5 421 c 0
 266.5 421 295.5 396 295.5 363 c 0
 295.5 351 291.5 340 285.5 331 c 1
 306.5 329 322.5 327 336.5 327 c 0
 389.5 327 424.5 355 424.5 429 c 1xb7e0
198.5 364 m 0
 198.5 353 204.5 336 235.5 335 c 1x2fe0
 252.5 337 264.5 350 264.5 364 c 0
 264.5 379 250.5 393 231.5 393 c 0
 212.5 393 198.5 379 198.5 364 c 0
EndSplineSet
EndChar
StartChar: uni0E56
Encoding: 3670 3670 306
Width: 470
Flags: W
HStem: -5 30<94.5 337.6> 157 28<89.8 147> 307 28<163.4 337.6>
VStem: 54 30<63.8 139.2> 382 30<66.2 263.8>
Fore
147 185 m 1
 147 157 l 1
 103 157 84 132 84 108 c 0
 84 74 123 25 218 25 c 0
 310 25 382 89 382 165 c 0
 382 241 310 307 218 307 c 0
 168 307 106 288 78 264 c 2
 55 244 l 1
 53 274 l 2
 49 332 -6 399 -40 407 c 1
 -33 436 l 1
 14 425 65 359 80 300 c 1
 119 323 176 335 218 335 c 0
 324 335 412 261 412 165 c 0
 412 69 324 -5 218 -5 c 0
 113 -5 54 52 54 108 c 0
 54 150 88 185 147 185 c 1
EndSplineSet
EndChar
StartChar: uni0E57
Encoding: 3671 3671 307
Width: 470
Flags: W
HStem: 1 30<62.5 121 270 320.7> 305 31<62.5 163.9 232 320.7>
VStem: 16 30<69.2 266.8> 184 30<131 268> 335 31<94.9 266.8> 418 30<58.5 386.755>
Fore
184 131 m 1
 184 230 l 2
 184 268 167 305 121 305 c 0
 76 305 46 244 46 168 c 0
 46 92 76 31 121 31 c 1
 121 1 l 1
 58 1 16 73 16 169 c 0
 16 265 58 336 121 336 c 0
 154 336 182 322 199 291 c 1
 214 322 241 336 271 336 c 0
 328 336 366 266 366 169 c 0
 366 112 353 64 331 34 c 1
 389 45 418 84 418 169 c 2
 418 351 l 2
 418 376 418 424 455 439 c 1
 466 411 l 1
 452 405 448 383 448 351 c 2
 448 169 l 2
 448 44 386 1 293 0 c 2
 260 0 l 1
 270 30 l 1
 309 30 335 92 335 168 c 0
 335 244 309 305 270 305 c 0
 230 305 214 268 214 231 c 2
 214 131 l 1
 184 131 l 1
EndSplineSet
EndChar
StartChar: uni0E58
Encoding: 3672 3672 308
Width: 470
Flags: W
HStem: -5 30<278.9 382.9> 297 30<289.554 404.9> 305 30<99.4 293.167>
VStem: 26 30<90.7 267.5> 403 31<26.1 95> 424 30<332.8 429>
Fore
403 95 m 1xb8
 434 95 l 1
 434 27 390 -5 328 -5 c 0
 287 -5 246 24 221 70 c 1
 193 -6 l 1
 54 0 26 109 26 170 c 0
 26 265 115 335 220 335 c 0xb8
 276 335 312 327 336 327 c 0
 389 327 424 355 424 429 c 1
 454 429 l 1
 454 323 390 297 336 297 c 0xd4
 306 297 274 305 219 305 c 0
 127 305 56 245 56 170 c 0
 56 100 95 34 175 26 c 1
 208 111 l 1
 236 111 l 1
 252 60 290 25 327 25 c 0
 370 25 403 42 403 95 c 1xb8
EndSplineSet
EndChar
StartChar: uni0E59
Encoding: 3673 3673 309
Width: 470
Flags: W
HStem: -5 30<102 216.4> 308 30<104.3 229.1 325.8 382>
VStem: 31.5 30<56.9 277.9> 236.5 32<29.1 98> 415.5 30<385.186 449.17> 418.5 30<348.262 461.665>
Fore
236.5 98 m 1xf4
 268.5 98 l 1
 268.5 34 232.5 -5 161.5 -5 c 0
 97.5 -5 31.5 72 31.5 170 c 0
 31.5 267 100.5 338 174.5 338 c 0
 216.5 338 252.5 322 282.5 285 c 1
 295.5 313 315.5 337 349.5 337 c 0
 374.5 337 389.5 325 400.5 311 c 1
 412.5 336 418.5 365 418.5 399 c 0xf4
 418.5 415 417.5 431 415.5 448 c 1
 445.5 452 l 1xf8
 447.5 434 448.5 416 448.5 399 c 0
 448.5 344 434.5 296 400.5 256 c 1
 391.5 276 378.5 307 350.5 307 c 0
 331.5 307 317.5 294 303.5 254 c 1
 334.5 201 358.5 120 375.5 3 c 1
 345.5 -1 l 1
 308.5 253 242.5 308 174.5 308 c 0
 120.5 308 61.5 253 61.5 170 c 0
 61.5 83 115.5 25 160.5 25 c 0
 203.5 25 236.5 45 236.5 98 c 1xf4
EndSplineSet
EndChar
StartChar: uni0E5A
Encoding: 3674 3674 310
Width: 451
Flags: W
HStem: 0 21G<293 322 365 395> 257 30<104.91 228.6> 375 30<83.3 134>
VStem: 41 29<285.7 353.3> 293 29<0 344> 365 30<0 400>
Fore
365 0 m 1
 365 400 l 1
 395 400 l 1
 395 0 l 1
 365 0 l 1
293 0 m 1
 293 344 l 1
 264 307 207 257 135 257 c 0
 91 257 41 281 41 326 c 0
 41 368 84 405 134 405 c 1
 134 375 l 1
 95 375 70 347 70 326 c 0
 70 295 117 287 134 287 c 0
 220 287 286 378 292 400 c 1
 322 400 l 1
 322 0 l 1
 293 0 l 1
EndSplineSet
EndChar
StartChar: uni0E5B
Encoding: 3675 3675 311
Width: 892
Flags: W
HStem: -5 30<118.3 282.1> 128 30<168.5 223.1> 180 20<791.1 857.4> 196 30<707.739 778> 242 30<170.5 209.5> 375 30<88.3 227.4>
VStem: 31 28<40 323.4> 129 29<170.1 232.5> 242 33<233.127 341.9>
Fore
190 272 m 0xef80
 213 272 231 258 241 239 c 1
 242 246 242 253 242 260 c 0
 242 323 213 375 165 375 c 0
 106 375 59 294 59 196 c 0
 59 76 133 25 182 25 c 0
 259 25 330 75 330 305 c 2
 330 333 l 2
 330 353 354 356 359 338 c 2
 412 143 l 1
 445 302 l 2
 449 321 471 321 475 301 c 2
 512 167 l 1
 539 274 l 2
 545 294 561 294 567 275 c 2
 599 183 l 1
 618 249 l 2
 624 273 632 273 645 253 c 2
 673 211 l 1
 699 222 720 226 739 226 c 0xdf80
 777 226 801 200 834 200 c 0
 855 200 872 207 880 207 c 0
 883 207 885 206 885 203 c 0
 885 194 852 180 834 180 c 0xef80
 798 180 769 196 739 196 c 0
 722 196 703 192 675 178 c 1
 668 173 659 177 655 184 c 2
 638 209 l 1
 615 129 l 2
 610 111 593 111 587 128 c 2
 556 217 l 1
 527 103 l 2
 523 84 503 82 499 102 c 2
 464 233 l 1
 431 75 l 2
 426 53 408 54 402 75 c 2
 359 232 l 1
 348 100 304 -5 184 -5 c 0
 115 -5 31 63 31 196 c 0xdf80
 31 309 85 405 165 405 c 0
 231 405 275 344 275 257 c 0
 275 180 241 128 190 128 c 0
 154 128 129 162 129 200 c 0
 129 238 154 272 190 272 c 0xef80
158 200 m 0xef80
 158 177 173 158 188 158 c 0
 215 158 222 186 222 200 c 0
 222 225 205 242 190 242 c 0
 175 242 158 225 158 200 c 0xef80
EndSplineSet
EndChar
StartChar: Euro
Encoding: 8364 8364 313
Width: 390
Flags: W
HStem: -5 30<156.5 298.2> 175 30<23 52 87 335> 295 30<23 52 87 335> 476 29<156.5 298.2>
VStem: 49 28.25<197.719 302.281>
Fore
366 465 m 1
 347 440 l 1
 320 462 288 476 254 476 c 0
 179 476 112 414 87 325 c 1
 345 325 l 1
 335 295 l 1
 81 295 l 1
 78.5 280.5 77.25 265.25 77.25 250 c 0
 77.25 234.75 78.5 219.5 81 205 c 1
 345 205 l 1
 335 175 l 1
 87 175 l 1
 112 86 179 25 254 25 c 0
 288 25 320 36 347 58 c 1
 366 35 l 1
 334 10 296 -5 255 -5 c 0
 161 -5 84 72 58 175 c 1
 13 175 l 1
 23 205 l 1
 52 205 l 1
 50 219.5 49 234.75 49 250 c 0
 49 265.25 50 280.5 52 295 c 1
 13 295 l 1
 23 325 l 1
 58 325 l 1
 84 428 161 505 255 505 c 0
 296 505 334 490 366 465 c 1
EndSplineSet
EndChar
StartChar: uni25CC
Encoding: 9676 9676 314
Width: 466
Flags: W
HStem: -12 64<211.315 256.685> 38 64<91.315 136.685 321.315 366.685> 148 64<51.315 96.685 369.315 414.685> 248 64<91.315 136.685 321.315 366.685> 308 64<211.315 256.685>
VStem: 42 64<157.315 202.685> 82 64<47.315 92.685 257.315 302.685> 202 64<-2.685 42.685 317.315 362.685> 312 64<47.315 92.685 257.315 302.685> 360 64<157.315 202.685>
Fore
344 102 m 0x6180
 361.45 102 376 87.46 376 70 c 0
 376 52.55 361.45 38 344 38 c 0
 326.55 38 312 52.54 312 70 c 0
 312 87.45 326.55 102 344 102 c 0x6180
114 102 m 0
 131.45 102 146 87.46 146 70 c 0
 146 52.55 131.46 38 114 38 c 0
 96.55 38 82 52.54 82 70 c 0x63
 82 87.45 96.54 102 114 102 c 0
344 312 m 0x3180
 361.45 312 376 297.45 376 280 c 0
 376 262.55 361.45 248 344 248 c 0
 326.55 248 312 262.55 312 280 c 0
 312 297.45 326.55 312 344 312 c 0x3180
234 52 m 0xa1
 251.45 52 266 37.46 266 20 c 0
 266 2.55 251.46 -12 234 -12 c 0
 216.55 -12 202 2.53999 202 20 c 0
 202 37.45 216.54 52 234 52 c 0xa1
114 312 m 0x33
 131.45 312 146 297.45 146 280 c 0
 146 262.55 131.46 248 114 248 c 0
 96.55 248 82 262.55 82 280 c 0
 82 297.45 96.54 312 114 312 c 0x33
74 212 m 0
 91.45 212 106 197.46 106 180 c 0
 106 162.55 91.46 148 74 148 c 0
 56.55 148 42 162.54 42 180 c 0x25
 42 197.45 56.54 212 74 212 c 0
234 372 m 0x29
 251.45 372 266 357.45 266 340 c 0
 266 322.55 251.46 308 234 308 c 0
 216.55 308 202 322.55 202 340 c 0
 202 357.45 216.54 372 234 372 c 0x29
392 212 m 0
 409.45 212 424 197.46 424 180 c 0
 424 162.55 409.45 148 392 148 c 0
 374.55 148 360 162.54 360 180 c 0x2140
 360 197.45 374.55 212 392 212 c 0
EndSplineSet
EndChar
StartChar: uniF700
Encoding: 63232 63232 315
Width: 392
Flags: W
HStem: 0 21G<306 336> 185 30<197 306> 375 30<101.2 229.9>
VStem: 38 30<256 341.8> 306 30<0 185 215 305.4>
Fore
306 215 m 1
 306 256 l 2
 306 322 253 375 187 375 c 0
 121 375 68 322 68 256 c 1
 38 256 l 1
 38 338 105 405 187 405 c 0
 220 405 250 394 275 376 c 1
 313 401 l 1
 330 376 l 1
 298 355 l 1
 322 329 336 294 336 256 c 2
 336 0 l 1
 306 0 l 1
 306 185 l 1
 187 185 l 1
 197 215 l 1
 306 215 l 1
EndSplineSet
EndChar
StartChar: uniF701
Encoding: 63233 63233 316
Width: 0
Flags: W
HStem: 452 30<-389 -121>
VStem: -409 288<452 482>
Fore
-121 482 m 1
 -121 452 l 1
 -409 452 l 1
 -389 482 l 1
 -121 482 l 1
EndSplineSet
EndChar
StartChar: uniF702
Encoding: 63234 63234 317
Width: 0
Flags: W
HStem: 452 30<-389 -151>
VStem: -151 30<482 521>
Fore
-151 482 m 5
 -151 521 l 5
 -121 521 l 5
 -121 452 l 5
 -409 452 l 5
 -389 482 l 5
 -151 482 l 5
EndSplineSet
EndChar
StartChar: uniF703
Encoding: 63235 63235 318
Width: 0
Flags: W
HStem: 452 30<-389 -186> 452 23<-159.9 -143> 521 23<-143 -126.1>
VStem: -189 23<498 514.9> -120 23<481.1 498>
Fore
-143 544 m 0xb8
 -118 544 -97 523 -97 498 c 0
 -97 473 -118 452 -143 452 c 2
 -409 452 l 1x78
 -389 482 l 1
 -186 482 l 1
 -188 487 -189 492 -189 498 c 0
 -189 523 -168 544 -143 544 c 0xb8
-166 498 m 0
 -166 485 -156 475 -143 475 c 0
 -130 475 -120 485 -120 498 c 0
 -120 511 -130 521 -143 521 c 0
 -156 521 -166 511 -166 498 c 0
EndSplineSet
EndChar
StartChar: uniF704
Encoding: 63236 63236 319
Width: 0
Flags: W
HStem: 452 30<-389 -216 -187 -151> 452 69<-216 -187 -151 -121>
VStem: -216 29<482 521> -151 30<482 521>
Fore
-216 521 m 1x70
 -187 521 l 1x70
 -187 482 l 1
 -151 482 l 1xb0
 -151 521 l 1
 -121 521 l 1
 -121 452 l 1
 -409 452 l 1x70
 -389 482 l 1
 -216 482 l 1xb0
 -216 521 l 1x70
EndSplineSet
EndChar
StartChar: uniF705
Encoding: 63237 63237 320
Width: 0
Flags: W
VStem: -181 30<452 534>
Fore
-151 452 m 5
 -181 452 l 5
 -181 534 l 5
 -151 534 l 5
 -151 452 l 5
EndSplineSet
Substitution2: "Single Substitution lookup 45" uniF713
EndChar
StartChar: uniF706
Encoding: 63238 63238 321
Width: 0
Flags: W
HStem: 452 30<-250 -133> 503 30<-311 -276.8>
VStem: -280 30<482 501.745>
Fore
-280 452 m 1
 -280 488 l 2
 -280 494 -281 503 -295 503 c 2
 -321 503 l 1
 -311 533 l 1
 -295 533 l 2
 -253 533 -250 497 -250 488 c 2
 -250 482 l 1
 -123 482 l 1
 -133 452 l 1
 -280 452 l 1
EndSplineSet
Substitution2: "Single Substitution lookup 45" uniF714
EndChar
StartChar: uniF707
Encoding: 63239 63239 322
Width: 0
Flags: W
HStem: 452 30<-373.9 -350 -185 -97> 525 30<-378.4 -298.8>
VStem: -408 31<488.061 514.744> -215 30<482 515>
Fore
-185 546 m 1
 -185 482 l 1
 -87 482 l 1
 -97 452 l 1
 -215 452 l 1
 -215 515 l 1
 -293 457 l 1
 -297 481 l 2
 -299 491 -306 525 -342 525 c 0
 -370 525 -377 511 -377 502 c 0
 -377 492 -370 482 -357 482 c 2
 -350 482 l 1
 -350 452 l 1
 -357 452 l 2
 -388 452 -408 477 -408 502 c 0
 -408 529 -386 555 -343 555 c 0
 -309 555 -286 535 -275 508 c 1
 -223 546 l 1
 -185 546 l 1
EndSplineSet
Substitution2: "Single Substitution lookup 45" uniF715
EndChar
StartChar: uniF708
Encoding: 63240 63240 323
Width: 0
Flags: W
HStem: 483 28<-210 -181 -151 -122>
VStem: -181 30<452 482 512 542>
Fore
-210 483 m 1
 -210 511 l 1
 -181 511 l 1
 -181 542 l 1
 -151 542 l 1
 -151 512 l 1
 -122 512 l 1
 -122 482 l 1
 -151 482 l 1
 -151 452 l 1
 -181 452 l 1
 -181 483 l 1
 -210 483 l 1
EndSplineSet
Substitution2: "Single Substitution lookup 45" uniF716
EndChar
StartChar: uniF709
Encoding: 63241 63241 324
Width: 0
Flags: W
HStem: 489 30<-168 -117>
VStem: -213 30<452 484.787>
Fore
-213 452 m 1
 -213 474 l 2
 -213 486 -207 519 -168 519 c 2
 -107 519 l 1
 -117 489 l 1
 -168 489 l 2
 -183 489 -183 479 -183 474 c 2
 -183 452 l 1
 -213 452 l 1
EndSplineSet
Substitution2: "Single Substitution lookup 45" uniF717
EndChar
StartChar: uniF70A
Encoding: 63242 63242 325
Width: 0
Flags: W
VStem: -86 30<452 534>
Fore
-56 452 m 5
 -86 452 l 5
 -86 534 l 5
 -56 534 l 5
 -56 452 l 5
EndSplineSet
Substitution2: "Single Substitution lookup 45" uniF705
Ligature2: "Ligature Substitution lookup 44" uni0E47 uni0E48 uni0E48
Ligature2: "Ligature Substitution lookup 43" uniF70E uni0E48
Ligature2: "Ligature Substitution lookup 43" uniF70D uni0E48
Ligature2: "Ligature Substitution lookup 43" uniF70C uni0E48
Ligature2: "Ligature Substitution lookup 43" uniF70B uni0E48
Ligature2: "Ligature Substitution lookup 43" uniF70A uni0E48
Ligature2: "Ligature Substitution lookup 43" uni0E4E uni0E48
Ligature2: "Ligature Substitution lookup 43" uni0E47 uni0E48
Ligature2: "Ligature Substitution lookup 43" uni0E47 uniF70E uni0E48
Ligature2: "Ligature Substitution lookup 43" uni0E47 uniF70D uni0E48
Ligature2: "Ligature Substitution lookup 43" uni0E47 uniF70C uni0E48
Ligature2: "Ligature Substitution lookup 43" uni0E47 uniF70B uni0E48
Ligature2: "Ligature Substitution lookup 43" uni0E47 uniF70A uni0E48
EndChar
StartChar: uniF70B
Encoding: 63243 63243 326
Width: 0
Flags: W
HStem: 452 30<-128 9> 503 30<-189 -154.8>
VStem: -158 30<482 501.307>
Fore
-158 452 m 5
 -158 488 l 6
 -158 493 -159 503 -173 503 c 6
 -199 503 l 5
 -189 533 l 5
 -173 533 l 6
 -134 533 -128 503 -128 488 c 6
 -128 482 l 5
 19 482 l 5
 9 452 l 5
 -158 452 l 5
EndSplineSet
Substitution2: "Single Substitution lookup 45" uniF706
Ligature2: "Ligature Substitution lookup 44" uni0E47 uni0E49 uni0E49
Ligature2: "Ligature Substitution lookup 43" uniF70E uni0E49
Ligature2: "Ligature Substitution lookup 43" uniF70D uni0E49
Ligature2: "Ligature Substitution lookup 43" uniF70C uni0E49
Ligature2: "Ligature Substitution lookup 43" uniF70B uni0E49
Ligature2: "Ligature Substitution lookup 43" uniF70A uni0E49
Ligature2: "Ligature Substitution lookup 43" uni0E4E uni0E49
Ligature2: "Ligature Substitution lookup 43" uni0E47 uni0E49
Ligature2: "Ligature Substitution lookup 43" uni0E47 uniF70E uni0E49
Ligature2: "Ligature Substitution lookup 43" uni0E47 uniF70D uni0E49
Ligature2: "Ligature Substitution lookup 43" uni0E47 uniF70C uni0E49
Ligature2: "Ligature Substitution lookup 43" uni0E47 uniF70B uni0E49
Ligature2: "Ligature Substitution lookup 43" uni0E47 uniF70A uni0E49
EndChar
StartChar: uniF70C
Encoding: 63244 63244 327
Width: 0
Flags: W
HStem: 453 30<-184.9 -161 3 91> 526 30<-189.4 -109.8>
VStem: -219 31<489.061 515.744> -26 29<482 516>
Fore
-26 452 m 5
 -26 516 l 5
 -104 458 l 5
 -108 482 l 6
 -110 492 -117 526 -153 526 c 4
 -181 526 -188 512 -188 503 c 4
 -188 493 -181 483 -168 483 c 6
 -161 483 l 5
 -161 453 l 5
 -168 453 l 6
 -199 453 -219 478 -219 503 c 4
 -219 530 -197 556 -154 556 c 4
 -120 556 -97 536 -86 509 c 5
 -34 547 l 5
 3 547 l 5
 3 482 l 5
 101 482 l 5
 91 452 l 5
 -26 452 l 5
EndSplineSet
Substitution2: "Single Substitution lookup 45" uniF707
Ligature2: "Ligature Substitution lookup 44" uni0E47 uni0E4A uni0E4A
Ligature2: "Ligature Substitution lookup 43" uniF70E uni0E4A
Ligature2: "Ligature Substitution lookup 43" uniF70D uni0E4A
Ligature2: "Ligature Substitution lookup 43" uniF70C uni0E4A
Ligature2: "Ligature Substitution lookup 43" uniF70B uni0E4A
Ligature2: "Ligature Substitution lookup 43" uniF70A uni0E4A
Ligature2: "Ligature Substitution lookup 43" uni0E4E uni0E4A
Ligature2: "Ligature Substitution lookup 43" uni0E47 uni0E4A
Ligature2: "Ligature Substitution lookup 43" uni0E47 uniF70E uni0E4A
Ligature2: "Ligature Substitution lookup 43" uni0E47 uniF70D uni0E4A
Ligature2: "Ligature Substitution lookup 43" uni0E47 uniF70C uni0E4A
Ligature2: "Ligature Substitution lookup 43" uni0E47 uniF70B uni0E4A
Ligature2: "Ligature Substitution lookup 43" uni0E47 uniF70A uni0E4A
EndChar
StartChar: uniF70D
Encoding: 63245 63245 328
Width: 0
Flags: W
HStem: 483 28<-115 -86 -56 -27>
VStem: -86 30<452 482 512 542>
Fore
-115 483 m 5
 -115 511 l 5
 -86 511 l 5
 -86 542 l 5
 -56 542 l 5
 -56 512 l 5
 -27 512 l 5
 -27 482 l 5
 -56 482 l 5
 -56 452 l 5
 -86 452 l 5
 -86 483 l 5
 -115 483 l 5
EndSplineSet
Substitution2: "Single Substitution lookup 45" uniF708
Ligature2: "Ligature Substitution lookup 44" uni0E47 uni0E4B uni0E4B
Ligature2: "Ligature Substitution lookup 43" uniF70E uni0E4B
Ligature2: "Ligature Substitution lookup 43" uniF70D uni0E4B
Ligature2: "Ligature Substitution lookup 43" uniF70C uni0E4B
Ligature2: "Ligature Substitution lookup 43" uniF70B uni0E4B
Ligature2: "Ligature Substitution lookup 43" uniF70A uni0E4B
Ligature2: "Ligature Substitution lookup 43" uni0E4E uni0E4B
Ligature2: "Ligature Substitution lookup 43" uni0E47 uni0E4B
Ligature2: "Ligature Substitution lookup 43" uni0E47 uniF70E uni0E4B
Ligature2: "Ligature Substitution lookup 43" uni0E47 uniF70D uni0E4B
Ligature2: "Ligature Substitution lookup 43" uni0E47 uniF70C uni0E4B
Ligature2: "Ligature Substitution lookup 43" uni0E47 uniF70B uni0E4B
Ligature2: "Ligature Substitution lookup 43" uni0E47 uniF70A uni0E4B
EndChar
StartChar: uniF70E
Encoding: 63246 63246 329
Width: 0
Flags: W
HStem: 489 30<-101 -50>
VStem: -146 30<452 483.666>
Fore
-146 452 m 5
 -146 474 l 6
 -146 489 -140 519 -101 519 c 6
 -40 519 l 5
 -50 489 l 5
 -101 489 l 6
 -114 489 -116 479 -116 474 c 6
 -116 452 l 5
 -146 452 l 5
EndSplineSet
Substitution2: "Single Substitution lookup 45" uniF709
Ligature2: "Ligature Substitution lookup 44" uni0E47 uni0E4C uni0E4C
Ligature2: "Ligature Substitution lookup 43" uniF70E uni0E4C
Ligature2: "Ligature Substitution lookup 43" uniF70D uni0E4C
Ligature2: "Ligature Substitution lookup 43" uniF70C uni0E4C
Ligature2: "Ligature Substitution lookup 43" uniF70B uni0E4C
Ligature2: "Ligature Substitution lookup 43" uniF70A uni0E4C
Ligature2: "Ligature Substitution lookup 43" uni0E4E uni0E4C
Ligature2: "Ligature Substitution lookup 43" uni0E47 uni0E4C
Ligature2: "Ligature Substitution lookup 43" uni0E47 uniF70E uni0E4C
Ligature2: "Ligature Substitution lookup 43" uni0E47 uniF70D uni0E4C
Ligature2: "Ligature Substitution lookup 43" uni0E47 uniF70C uni0E4C
Ligature2: "Ligature Substitution lookup 43" uni0E47 uniF70B uni0E4C
Ligature2: "Ligature Substitution lookup 43" uni0E47 uniF70A uni0E4C
EndChar
StartChar: uniF70F
Encoding: 63247 63247 330
Width: 635
Flags: W
HStem: -5 30<369.9 518.1> 0 30<86 116> 375 30<128.6 269>
VStem: 56 30<30 222.7> 310 30<76 352.5> 549 30<55.9 400>
Fore
56 0 m 1x7c
 56 185 l 2
 56 214 75 240 94 254 c 1
 43 282 l 1
 65 375 141 405 191 405 c 0
 273 405 340 338 340 256 c 2
 340 143 l 2
 340 76 387 25 444 25 c 0
 501 25 549 76 549 143 c 2
 549 400 l 1
 579 400 l 1
 579 143 l 2
 579 62 520 -5 444 -5 c 0xbc
 368 -5 310 62 310 143 c 2
 310 255 l 2
 310 330 251 375 191 375 c 0
 143 375 91 348 73 288 c 1
 129 256 l 1
 101 242 86 226 86 186 c 2
 86 30 l 1
 126 30 l 1
 116 0 l 1
 56 0 l 1x7c
EndSplineSet
EndChar
StartChar: uniF710
Encoding: 63248 63248 331
Width: 0
Flags: W
HStem: 452 30<-243 6>
VStem: -273 30<482 521>
Fore
-243 482 m 1
 26 482 l 1
 6 452 l 1
 -273 452 l 1
 -273 521 l 1
 -243 521 l 1
 -243 482 l 1
EndSplineSet
EndChar
StartChar: uniF711
Encoding: 63249 63249 332
Width: 0
Flags: W
HStem: 441 23<-178.9 -162> 510 23<-162 -145.1>
VStem: -208 23<487 503.9> -139 23<470.1 487>
Fore
-162 533 m 0
 -137 533 -116 512 -116 487 c 0
 -116 462 -137 441 -162 441 c 0
 -187 441 -208 462 -208 487 c 0
 -208 512 -187 533 -162 533 c 0
-185 487 m 0
 -185 474 -175 464 -162 464 c 0
 -149 464 -139 474 -139 487 c 0
 -139 500 -149 510 -162 510 c 0
 -175 510 -185 500 -185 487 c 0
EndSplineSet
EndChar
StartChar: uniF712
Encoding: 63250 63250 333
Width: 0
Flags: W
HStem: 445.121 30.129<-195.21 -138.448> 452 30<-351.5 -314> 544 30<-344 -110>
VStem: -389 29<495.1 530.2>
Fore
-110 544 m 1x70
 -315 544 l 2
 -344 544 -360 526 -360 512 c 0
 -360 499 -344 483 -319 482 c 1x70
 -264 517 l 1
 -197 481 l 2
 -187.5 477 -177.75 475.25 -168 475.25 c 0xb0
 -158.25 475.25 -148.5 477 -139 480 c 1
 -128 452 l 1x70
 -140.69 447.607 -154.57 445.121 -168.247 445.121 c 0xb0
 -182.592 445.121 -196.713 447.857 -209 454 c 2
 -262 483 l 1
 -310 452 l 1
 -314 452 l 2
 -351 452 -389 476 -389 513 c 0
 -389 550 -351 574 -314 574 c 2
 -100 574 l 1
 -110 544 l 1x70
EndSplineSet
EndChar
StartChar: uniF713
Encoding: 63251 63251 334
Width: 0
Flags: W
VStem: -151 30<564 646>
Fore
-121 564 m 5
 -151 564 l 5
 -151 646 l 5
 -121 646 l 5
 -121 564 l 5
EndSplineSet
EndChar
StartChar: uniF714
Encoding: 63252 63252 335
Width: 0
Flags: W
HStem: 564 30<-185 -68> 615 30<-246 -211.8>
VStem: -215 30<594 613.307>
Fore
-215 564 m 1
 -215 600 l 2
 -215 605 -216 615 -230 615 c 2
 -256 615 l 1
 -246 645 l 1
 -230 645 l 2
 -190 645 -185 614 -185 600 c 2
 -185 594 l 1
 -58 594 l 1
 -68 564 l 1
 -215 564 l 1
EndSplineSet
EndChar
StartChar: uniF715
Encoding: 63253 63253 336
Width: 0
Flags: W
HStem: 565 30<-217.9 -194 -30 58> 638 30<-222.4 -142.8>
VStem: -252 31<601.061 627.744> -59 29<594 628>
Fore
-59 564 m 1
 -59 628 l 1
 -137 570 l 1
 -141 594 l 2
 -143 604 -150 638 -186 638 c 0
 -214 638 -221 624 -221 615 c 0
 -221 605 -214 595 -201 595 c 2
 -194 595 l 1
 -194 565 l 1
 -201 565 l 2
 -232 565 -252 590 -252 615 c 0
 -252 642 -230 668 -187 668 c 0
 -153 668 -130 648 -119 621 c 1
 -67 659 l 1
 -30 659 l 1
 -30 594 l 1
 68 594 l 1
 58 564 l 1
 -59 564 l 1
EndSplineSet
EndChar
StartChar: uniF716
Encoding: 63254 63254 337
Width: 0
Flags: W
HStem: 595 28<-180 -151 -121 -92>
VStem: -151 30<564 594 624 654>
Fore
-180 595 m 5
 -180 623 l 5
 -151 623 l 5
 -151 654 l 5
 -121 654 l 5
 -121 624 l 5
 -92 624 l 5
 -92 594 l 5
 -121 594 l 5
 -121 564 l 5
 -151 564 l 5
 -151 595 l 5
 -180 595 l 5
EndSplineSet
EndChar
StartChar: uniF717
Encoding: 63255 63255 338
Width: 0
Flags: W
HStem: 601 30<-106 -55>
VStem: -151 30<564 595.666>
Fore
-151 564 m 1
 -151 586 l 2
 -151 598 -143 631 -106 631 c 2
 -45 631 l 1
 -55 601 l 1
 -106 601 l 2
 -119 601 -121 591 -121 586 c 2
 -121 564 l 1
 -151 564 l 1
EndSplineSet
EndChar
StartChar: uniF718
Encoding: 63256 63256 339
Width: 0
Flags: W
HStem: -192 30<-122 -86>
VStem: -86 30<-284 -192>
Fore
-122 -162 m 5
 -56 -162 l 5
 -56 -284 l 5
 -86 -284 l 5
 -86 -192 l 5
 -132 -192 l 5
 -122 -162 l 5
EndSplineSet
Ligature2: "Ligature Substitution lookup 44" uniF71A uni0E38
Ligature2: "Ligature Substitution lookup 44" uniF719 uni0E38
Ligature2: "Ligature Substitution lookup 43" uniF718 uni0E38
EndChar
StartChar: uniF719
Encoding: 63257 63257 340
Width: 0
Flags: W
HStem: -284 30<-170.1 -99.9> -192 30<-231 -214>
VStem: -214 30<-240.1 -192> -86 30<-240.1 -162>
Fore
-231 -162 m 5
 -184 -162 l 5
 -184 -205 l 6
 -184 -232 -162 -254 -135 -254 c 4
 -108 -254 -86 -232 -86 -205 c 6
 -86 -162 l 5
 -56 -162 l 5
 -56 -205 l 6
 -56 -249 -91 -284 -135 -284 c 4
 -179 -284 -214 -249 -214 -205 c 6
 -214 -192 l 5
 -241 -192 l 5
 -231 -162 l 5
EndSplineSet
Ligature2: "Ligature Substitution lookup 43" uniF71A uni0E39
Ligature2: "Ligature Substitution lookup 43" uniF719 uni0E39
Ligature2: "Ligature Substitution lookup 43" uniF719 uni0E38
Ligature2: "Ligature Substitution lookup 43" uniF718 uni0E39
EndChar
StartChar: uniF71A
Encoding: 63258 63258 341
Width: 0
Flags: W
Fore
-96 -189 m 0
 -96 -175 -85 -164 -71 -164 c 0
 -57 -164 -46 -175 -46 -189 c 0
 -46 -203 -57 -214 -71 -214 c 0
 -85 -214 -96 -203 -96 -189 c 0
EndSplineSet
Ligature2: "Ligature Substitution lookup 43" uniF71A uni0E3A
Ligature2: "Ligature Substitution lookup 43" uniF71A uni0E38
Ligature2: "Ligature Substitution lookup 43" uniF719 uni0E3A
Ligature2: "Ligature Substitution lookup 43" uniF718 uni0E3A
EndChar
StartChar: uniF780
Encoding: 63360 63360 342
Width: 296
Flags: W
HStem: 0 21G<210 240> 375 30<88.5 213.3> 441 23<-168.9 -152> 510 23<-152 -135.1>
VStem: -198 23<487 503.9> -129 23<470.1 487> 210 30<0 311>
Fore
210 0 m 1
 210 256 l 2
 210 311 192 375 121 375 c 0
 96 375 67 360 41 338 c 1
 41 372 l 1
 66 392 94 405 121 405 c 0
 205 405 240 337 240 256 c 2
 240 0 l 1
 210 0 l 1
-152 533 m 0
 -127 533 -106 512 -106 487 c 0
 -106 462 -127 441 -152 441 c 0
 -177 441 -198 462 -198 487 c 0
 -198 512 -177 533 -152 533 c 0
-175 487 m 0
 -175 474 -165 464 -152 464 c 0
 -139 464 -129 474 -129 487 c 0
 -129 500 -139 510 -152 510 c 0
 -165 510 -175 500 -175 487 c 0
EndSplineSet
Substitution2: "Single Substitution lookup 49" uniF717
Substitution2: "Single Substitution lookup 48" uniF716
Substitution2: "Single Substitution lookup 47" uniF715
Substitution2: "Single Substitution lookup 46" uniF714
Substitution2: "Single Substitution lookup 45" uniF713
EndChar
StartChar: uniF781
Encoding: 63361 63361 343
Width: 0
Flags: W
HStem: 489 24<-273.9 -215.4> 714 25<-128.257 -81.1235> 717 25<-189.5 -71.9912>
VStem: -315 25<518.9 600.5> -249 25<636.9 704.5>
Fore
-208 527 m 1xb8
 -187 515 l 1
 -198 497 -221 489 -244 489 c 0
 -283 489 -315 510 -315 542 c 0
 -315 587 -280 612 -232 621 c 1
 -242 630 -249 642 -249 659 c 0
 -249 709 -188 742 -117 742 c 0xb8
 -105 742 -92 741 -78 739 c 1
 -82 714 l 1xd8
 -95 716 -107 717 -118 717 c 0
 -173 717 -224 694 -224 659 c 0
 -224 638 -198 628 -175 625 c 2
 -153 625 l 1
 -177 600 l 1
 -186 600 l 0
 -232 600 -290 588 -290 541 c 0
 -290 524 -267 513 -244 513 c 0
 -222 513 -211 522 -208 527 c 1xb8
EndSplineSet
EndChar
StartChar: uniF782
Encoding: 63362 63362 344
Width: 443
Flags: W
HStem: -5 32<75.7 184.9 257.1 366.3> 300 30<267 355.8>
VStem: 48 30<59.4 400> 207 29<72.4 330> 364 30<61.4 267 350.8 400>
Fore
207 114 m 2
 207 330 l 1
 236 330 l 1
 236 116 l 2
 236 74 249 27 300 27 c 0
 351 27 364 74 364 116 c 2
 364 235 l 2
 364 271 345 300 309 300 c 2
 267 300 l 1
 267 330 l 1
 309 330 l 2
 345 330 364 359 364 395 c 2
 364 400 l 1
 394 400 l 1
 394 395 l 2
 394 361 377 331 351 314 c 1
 377 297 394 267 394 233 c 2
 394 114 l 2
 394 31 352 -5 300 -5 c 0
 267 -5 238 20 221 53 c 1
 204 20 175 -5 142 -5 c 0
 90 -5 48 31 48 114 c 2
 48 400 l 1
 78 400 l 1
 78 114 l 2
 78 72 91 25 142 25 c 0
 197 25 207 82 207 114 c 2
EndSplineSet
EndChar
StartChar: uniF783
Encoding: 63363 63363 345
Width: 607
Flags: W
HStem: 0 30<86 116> 375 30<128.6 269 399.5 524.3>
VStem: 56 30<30 222.7> 310 30<-152 353.5> 521 30<-152 311>
Fore
73 288 m 1
 129 256 l 1
 101 242 86 225 86 185 c 2
 86 30 l 1
 126 30 l 1
 116 0 l 1
 56 0 l 1
 56 185 l 2
 56 214 76 240 95 254 c 1
 43 282 l 1
 65 375 141 405 191 405 c 0
 273 405 340 338 340 256 c 2
 340 -152 l 1
 310 -152 l 1
 310 256 l 2
 310 331 251 375 191 375 c 0
 143 375 91 348 73 288 c 1
521 -152 m 1
 521 256 l 2
 521 311 503 375 432 375 c 0
 407 375 378 360 352 338 c 1
 352 372 l 1
 377 392 405 405 432 405 c 0
 516 405 551 337 551 256 c 2
 551 -152 l 1
 521 -152 l 1
EndSplineSet
LCarets2: 1 0 
Ligature2: "'liga' Standard Ligatures lookup 1" uni0E24 uni0E45
Ligature2: "'liga' Standard Ligatures lookup 1" uni0E24 uni0E32
EndChar
StartChar: uniF784
Encoding: 63364 63364 346
Width: 607
Flags: W
HStem: 0 30<31 56> 375 30<128.6 269 399.5 524.3>
VStem: 56 30<30 222.7> 310 30<-152 353.5> 521 30<-152 311>
Fore
73 288 m 1
 129 256 l 1
 101 242 86 225 86 185 c 2
 86 0 l 1
 21 0 l 1
 31 30 l 1
 56 30 l 1
 56 185 l 2
 56 214 76 240 95 254 c 1
 43 282 l 1
 65 375 141 405 191 405 c 0
 273 405 340 338 340 256 c 2
 340 -152 l 1
 310 -152 l 1
 310 256 l 2
 310 331 251 375 191 375 c 0
 143 375 91 348 73 288 c 1
521 -152 m 1
 521 256 l 2
 521 311 503 375 432 375 c 0
 407 375 378 360 352 338 c 1
 352 372 l 1
 377 392 405 405 432 405 c 0
 516 405 551 337 551 256 c 2
 551 -152 l 1
 521 -152 l 1
EndSplineSet
LCarets2: 1 0 
Ligature2: "'liga' Standard Ligatures lookup 1" uni0E26 uni0E45
Ligature2: "'liga' Standard Ligatures lookup 1" uni0E26 uni0E32
EndChar
StartChar: uniFB00
Encoding: 64256 64256 347
Width: 369
Flags: W
HStem: 0 21G<48 78 235 265> 310 30<18 48 78 234 265 349> 460 20<106 217.8> 480 20<302.4 357>
VStem: 48 30<0 310> 234 29<0 310 340 402.207>
Fore
171 480 m 0
 213 480 240 463 256 443 c 1
 278 477 315 500 357 500 c 1
 357 480 l 1
 306 480 263 424 263 365 c 2
 263 340 l 1
 357 340 l 1
 349 310 l 1
 265 310 l 1
 265 0 l 1
 235 0 l 1
 235 310 l 1
 78 310 l 1
 78 0 l 1
 48 0 l 1
 48 310 l 1
 18 310 l 1
 18 340 l 1
 48 340 l 1
 48 345 l 2
 48 420 101 480 171 480 c 0
78 340 m 1
 234 340 l 1
 234 365 l 2
 234 389 240 412 250 432 c 1
 234 451 210 460 184 460 c 0
 124 460 78 410 78 345 c 2
 78 340 l 1
EndSplineSet
Ligature2: "'liga' Standard Ligatures in Latin lookup 0" f f
EndChar
StartChar: uniFB01
Encoding: 64257 64257 348
Width: 310
Flags: W
HStem: 0 21G<48 78 235 264> 310 30<18 48 78 235> 480 20<106 223>
VStem: 48 30<0 310 340 430> 235 29<0 310>
Fore
78 340 m 1
 264 340 l 1
 264 0 l 1
 235 0 l 1
 235 310 l 1
 78 310 l 1
 78 0 l 1
 48 0 l 1
 48 310 l 1
 18 310 l 1
 18 340 l 1
 48 340 l 1
 48 365 l 2
 48 440 101 500 171 500 c 0
 242 500 272 455 274 423 c 2
 274 420 l 2
 274 407 263 396 250 396 c 0
 237 396 226 407 226 420 c 0
 226 433 237 444 250 444 c 0
 252 444 255 444 257 443 c 1
 242 468 214 480 184 480 c 0
 124 480 78 430 78 365 c 2
 78 340 l 1
EndSplineSet
Ligature2: "'liga' Standard Ligatures in Latin lookup 0" f i
EndChar
StartChar: uniFB02
Encoding: 64258 64258 349
Width: 312
Flags: W
HStem: 0 21G<48 78 235 264> 310 30<18 48 78 162> 480 20<171 235>
VStem: 48 30<0 310 340 441.7> 235 29<0 480>
Fore
264 0 m 1
 235 0 l 1
 235 480 l 1
 172 480 l 2
 121 480 78 424 78 365 c 2
 78 340 l 1
 172 340 l 1
 162 310 l 1
 78 310 l 1
 78 0 l 1
 48 0 l 1
 48 310 l 1
 18 310 l 1
 18 340 l 1
 48 340 l 1
 48 365 l 2
 48 439 102 500 171 500 c 2
 264 500 l 1
 264 0 l 1
EndSplineSet
Ligature2: "'liga' Standard Ligatures in Latin lookup 0" f l
EndChar
StartChar: uniFB03
Encoding: 64259 64259 350
Width: 497
Flags: W
HStem: 0 21G<48 78 235 265 422 451> 310 30<18 48 78 235 265 422> 460 20<106 217.8> 480 20<302.1 410>
VStem: 48 30<0 310> 235 30<0 310 340 396.081> 422 29<0 310>
Fore
265 340 m 1
 451 340 l 1
 451 0 l 1
 422 0 l 1
 422 310 l 1
 265 310 l 1
 265 0 l 1
 235 0 l 1
 235 310 l 1
 78 310 l 1
 78 0 l 1
 48 0 l 1
 48 310 l 1
 18 310 l 1
 18 340 l 1
 48 340 l 1
 48 345 l 2
 48 420 101 480 171 480 c 0
 213 480 241 463 257 443 c 1
 279 477 315 500 358 500 c 0
 429 500 459 455 461 423 c 2
 461 420 l 2
 461 407 450 396 437 396 c 0
 424 396 413 407 413 420 c 0
 413 433 424 444 437 444 c 0
 439 444 442 444 444 443 c 1
 429 468 401 480 371 480 c 0
 311 480 265 430 265 365 c 2
 265 340 l 1
78 345 m 2
 78 340 l 1
 235 340 l 1
 235 365 l 2
 235 389 240 413 250 432 c 1
 234 451 210 460 184 460 c 0
 124 460 78 410 78 345 c 2
EndSplineSet
Ligature2: "'liga' Standard Ligatures in Latin lookup 0" f f i
EndChar
StartChar: uniFB04
Encoding: 64260 64260 351
Width: 499
Flags: W
HStem: 0 21G<48 78 235 265 422 451> 310 30<18 48 78 235 265 349> 460 20<106 217.8> 480 20<302.1 422>
VStem: 48 30<0 310> 235 30<0 310 340 405.406> 422 29<0 480>
Fore
359 340 m 1
 349 310 l 1
 265 310 l 1
 265 0 l 1
 235 0 l 1
 235 310 l 1
 78 310 l 1
 78 0 l 1
 48 0 l 1
 48 310 l 1
 18 310 l 1
 18 340 l 1
 48 340 l 1
 48 345 l 2
 48 420 101 480 171 480 c 0
 213 480 241 463 257 443 c 1
 279 477 315 500 358 500 c 2
 451 500 l 1
 451 0 l 1
 422 0 l 1
 422 480 l 1
 371 480 l 2
 311 480 265 430 265 365 c 2
 265 340 l 1
 359 340 l 1
78 345 m 2
 78 340 l 1
 235 340 l 1
 235 365 l 2
 235 389 240 413 250 432 c 1
 234 451 210 460 184 460 c 0
 124 460 78 410 78 345 c 2
EndSplineSet
Ligature2: "'liga' Standard Ligatures in Latin lookup 0" f f l
EndChar
